<svg width="1498pt" height="2645pt" viewBox="0 0 1497.81 2644.8" xmlns="http://www.w3.org/2000/svg"><g class="graph" transform="translate(4 2640.8)"><path fill="#fff" stroke="transparent" d="M-4 4v-2644.8h1497.806V4H-4z"/><g class="node"><path fill="none" stroke="#000" d="M1455.829-2632.8h-216.138c-6 0-12 6-12 12v12c0 6 6 12 12 12h216.138c6 0 12-6 12-12v-12c0-6-6-12-12-12"/><path fill="none" stroke="#000" d="M1459.83-2636.8h-224.14c-6 0-12 6-12 12v20c0 6 6 12 12 12h224.14c6 0 12-6 12-12v-20c0-6-6-12-12-12"/><text text-anchor="middle" x="1347.76" y="-2610.6" font-family="Helvetica,sans-Serif" font-size="14">I want to share some photos/videos!</text></g><g class="node"><path fill="none" stroke="#000" d="M1347.76-2556.6L1205.668-2448l142.092 108.6 142.092-108.6-142.092-108.6z"/><text text-anchor="middle" x="1347.76" y="-2485.8" font-family="Helvetica,sans-Serif" font-size="14">Do you want</text><text text-anchor="middle" x="1347.76" y="-2469" font-family="Helvetica,sans-Serif" font-size="14">recipients to see</text><text text-anchor="middle" x="1347.76" y="-2452.2" font-family="Helvetica,sans-Serif" font-size="14">any retouching you</text><text text-anchor="middle" x="1347.76" y="-2435.4" font-family="Helvetica,sans-Serif" font-size="14">do after the</text><text text-anchor="middle" x="1347.76" y="-2418.6" font-family="Helvetica,sans-Serif" font-size="14">photos/videos are</text><text text-anchor="middle" x="1347.76" y="-2401.8" font-family="Helvetica,sans-Serif" font-size="14">shared?</text></g><g class="edge"><path fill="none" stroke="#000" d="M1347.76-2592.65v25.706"/><path stroke="#000" d="M1351.26-2566.74l-3.5 10-3.5-10h7z"/></g><g class="node"><path fill="none" stroke="#000" stroke-width="4" d="M965.76-36h-30c-6 0-12 6-12 12v12c0 6 6 12 12 12h30c6 0 12-6 12-12v-12c0-6-6-12-12-12"/><text text-anchor="middle" x="950.76" y="-13.8" font-family="Helvetica,sans-Serif" font-size="14">SOL</text></g><g class="node"><path fill="none" stroke="#000" stroke-width="4" d="M1390.32-36h-35.12c-6 0-12 6-12 12v12c0 6 6 12 12 12h35.12c6 0 12-6 12-12v-12c0-6-6-12-12-12"/><text text-anchor="middle" x="1372.76" y="-13.8" font-family="Helvetica,sans-Serif" font-size="14">airdrop</text></g><g class="node"><path fill="none" stroke="#000" stroke-width="4" d="M281.76-36h-30c-6 0-12 6-12 12v12c0 6 6 12 12 12h30c6 0 12-6 12-12v-12c0-6-6-12-12-12"/><text text-anchor="middle" x="266.76" y="-13.8" font-family="Helvetica,sans-Serif" font-size="14">email</text></g><g class="node"><path fill="none" stroke="#000" stroke-width="4" d="M103.658-36H51.862c-6 0-12 6-12 12v12c0 6 6 12 12 12h51.796c6 0 12-6 12-12v-12c0-6-6-12-12-12"/><text text-anchor="middle" x="77.76" y="-13.8" font-family="Helvetica,sans-Serif" font-size="14">imessage</text></g><g class="node"><path fill="none" stroke="#000" stroke-width="4" d="M676.76-36h-30c-6 0-12 6-12 12v12c0 6 6 12 12 12h30c6 0 12-6 12-12v-12c0-6-6-12-12-12"/><text text-anchor="middle" x="661.76" y="-13.8" font-family="Helvetica,sans-Serif" font-size="14">icps</text></g><g class="edge"><path fill="none" stroke="#000" d="M1385.76-2368.429c8.872 20.87 17.59 43.598 24 65.229 42.141 142.2 57 180.487 57 328.8v1439.2c0 122.155-108.896 463.109-109 463.2-27.556 24.26-274.368 44.446-369.677 51.403"/><path stroke="#000" d="M988.248-17.1l-10.226-2.77 9.722-4.211.504 6.982z"/><text text-anchor="middle" x="1384.611" y="-2334.251" font-family="Helvetica,sans-Serif" font-size="14">Yes</text></g><g class="node"><path fill="none" stroke="#000" d="M1255.76-2303.2l-145.334 92 145.334 92 145.334-92-145.334-92z"/><text text-anchor="middle" x="1255.76" y="-2240.6" font-family="Helvetica,sans-Serif" font-size="14">Do you want the</text><text text-anchor="middle" x="1255.76" y="-2223.8" font-family="Helvetica,sans-Serif" font-size="14">photos/videos to be</text><text text-anchor="middle" x="1255.76" y="-2207" font-family="Helvetica,sans-Serif" font-size="14">fully editable (as</text><text text-anchor="middle" x="1255.76" y="-2190.2" font-family="Helvetica,sans-Serif" font-size="14">if the recipients</text><text text-anchor="middle" x="1255.76" y="-2173.4" font-family="Helvetica,sans-Serif" font-size="14">took them)?</text></g><g class="edge"><path fill="none" stroke="#000" d="M1315.195-2364.18l-27.03 69.572"/><path stroke="#000" d="M1291.341-2293.117l-6.884 8.053.36-10.588 6.524 2.535z"/><text text-anchor="middle" x="1293.531" y="-2339.228" font-family="Helvetica,sans-Serif" font-size="14">No</text></g><g class="node"><path fill="none" stroke="#000" d="M1255.76-2083l-156.115 108.6 156.115 108.6 156.115-108.6L1255.76-2083z"/><text text-anchor="middle" x="1255.76" y="-2012.2" font-family="Helvetica,sans-Serif" font-size="14">Do you want to share</text><text text-anchor="middle" x="1255.76" y="-1995.4" font-family="Helvetica,sans-Serif" font-size="14">&apos;Portrait&apos;, &apos;Burst&apos;,</text><text text-anchor="middle" x="1255.76" y="-1978.6" font-family="Helvetica,sans-Serif" font-size="14">or &apos;Slo-mo&apos;</text><text text-anchor="middle" x="1255.76" y="-1961.8" font-family="Helvetica,sans-Serif" font-size="14">photos/videos so that</text><text text-anchor="middle" x="1255.76" y="-1945" font-family="Helvetica,sans-Serif" font-size="14">the recipients can</text><text text-anchor="middle" x="1255.76" y="-1928.2" font-family="Helvetica,sans-Serif" font-size="14">edit them?</text></g><g class="edge"><path fill="none" stroke="#000" d="M1255.76-2118.969v25.576"/><path stroke="#000" d="M1259.26-2093.319l-3.5 10-3.5-10h7z"/><text text-anchor="middle" x="1243.082" y="-2087.58" font-family="Helvetica,sans-Serif" font-size="14">Yes</text></g><g class="node"><path fill="none" stroke="#000" d="M989.76-1829.8l-94.667 75.4 94.667 75.4 94.667-75.4-94.667-75.4z"/><text text-anchor="middle" x="989.76" y="-1775.4" font-family="Helvetica,sans-Serif" font-size="14">Do you have</text><text text-anchor="middle" x="989.76" y="-1758.6" font-family="Helvetica,sans-Serif" font-size="14">multiple</text><text text-anchor="middle" x="989.76" y="-1741.8" font-family="Helvetica,sans-Serif" font-size="14">photos to</text><text text-anchor="middle" x="989.76" y="-1725" font-family="Helvetica,sans-Serif" font-size="14">share?</text></g><g class="edge"><path fill="none" stroke="#000" d="M1179.779-2166.975c-31.473 21.69-65.94 50.366-89.019 83.775-52.325 75.747-78.257 179.506-90.609 250.068"/><path stroke="#000" d="M1003.55-1832.242l-5.124 9.273-1.777-10.445 6.902 1.172z"/><text text-anchor="middle" x="1150.253" y="-2157.461" font-family="Helvetica,sans-Serif" font-size="14">No</text></g><g class="edge"><path fill="none" stroke="#000" d="M1306.264-1900.897c51.063 81.617 122.496 219.127 122.496 349.697v1016c0 218.538 8.008 329.682-165 463.2-42.544 32.833-201.751 46.973-275.307 51.852"/><path stroke="#000" d="M988.449-16.64l-10.203-2.854L988-23.627l.448 6.986z"/><text text-anchor="middle" x="1309.531" y="-1866.875" font-family="Helvetica,sans-Serif" font-size="14">Yes</text></g><g class="edge"><path fill="none" stroke="#000" d="M1184.127-1915.155l-139.886 115.695"/><path stroke="#000" d="M1046.304-1796.624l-9.936 3.676 5.475-9.07 4.461 5.394z"/><text text-anchor="middle" x="1155.095" y="-1903.396" font-family="Helvetica,sans-Serif" font-size="14">No</text></g><g class="node"><path fill="none" stroke="#000" d="M944.76-1643.2l-151.288 92 151.288 92 151.288-92-151.288-92z"/><text text-anchor="middle" x="944.76" y="-1580.6" font-family="Helvetica,sans-Serif" font-size="14">Do you want to share</text><text text-anchor="middle" x="944.76" y="-1563.8" font-family="Helvetica,sans-Serif" font-size="14">a collection of</text><text text-anchor="middle" x="944.76" y="-1547" font-family="Helvetica,sans-Serif" font-size="14">photos that you (and</text><text text-anchor="middle" x="944.76" y="-1530.2" font-family="Helvetica,sans-Serif" font-size="14">possibly others) can</text><text text-anchor="middle" x="944.76" y="-1513.4" font-family="Helvetica,sans-Serif" font-size="14">add to over time?</text></g><g class="edge"><path fill="none" stroke="#000" d="M975.522-1690.106l-10.534 47.565"/><path stroke="#000" d="M968.367-1641.612l-5.58 9.007-1.254-10.52 6.834 1.513z"/><text text-anchor="middle" x="957.264" y="-1662.101" font-family="Helvetica,sans-Serif" font-size="14">Yes</text></g><g class="node"><path fill="none" stroke="#000" d="M515.76-1237l-118.869 75.4 118.87 75.4 118.868-75.4L515.76-1237z"/><text text-anchor="middle" x="515.76" y="-1182.6" font-family="Helvetica,sans-Serif" font-size="14">Do the</text><text text-anchor="middle" x="515.76" y="-1165.8" font-family="Helvetica,sans-Serif" font-size="14">recipients have</text><text text-anchor="middle" x="515.76" y="-1149" font-family="Helvetica,sans-Serif" font-size="14">iMessage (blue</text><text text-anchor="middle" x="515.76" y="-1132.2" font-family="Helvetica,sans-Serif" font-size="14">bubbles)?</text></g><g class="edge"><path fill="none" stroke="#000" d="M925.06-1730.531c-43.672 18.609-100.403 47.924-140.3 87.331-122.114 120.613-205.088 308.384-243.875 410.168"/><path stroke="#000" d="M544.076-1231.574l-6.807 8.12.258-10.593 6.549 2.473z"/><text text-anchor="middle" x="895.067" y="-1727.024" font-family="Helvetica,sans-Serif" font-size="14">No</text></g><g class="node"><path fill="none" stroke="#000" d="M804.76-863.9l-163.048 58.3 163.048 58.3 163.048-58.3-163.048-58.3z"/><text text-anchor="middle" x="804.76" y="-818.2" font-family="Helvetica,sans-Serif" font-size="14">Do you want to</text><text text-anchor="middle" x="804.76" y="-801.4" font-family="Helvetica,sans-Serif" font-size="14">avoid downsampling</text><text text-anchor="middle" x="804.76" y="-784.6" font-family="Helvetica,sans-Serif" font-size="14">(reducing resolution)?</text></g><g class="edge"><path fill="none" stroke="#000" d="M950.63-1462.564c4.066 94.47 4.354 247.807-24.87 376.164-18.419 80.899-59.45 167.685-88.617 223.013"/><path stroke="#000" d="M840.173-861.631l-7.785 7.186 1.605-10.473 6.18 3.287z"/><text text-anchor="middle" x="938.938" y="-1430.736" font-family="Helvetica,sans-Serif" font-size="14">Yes</text></g><g class="node"><path fill="none" stroke="#000" d="M803.76-1423.4L693.502-1348l110.258 75.4 110.258-75.4-110.258-75.4z"/><text text-anchor="middle" x="803.76" y="-1369" font-family="Helvetica,sans-Serif" font-size="14">Are the</text><text text-anchor="middle" x="803.76" y="-1352.2" font-family="Helvetica,sans-Serif" font-size="14">recipients in a</text><text text-anchor="middle" x="803.76" y="-1335.4" font-family="Helvetica,sans-Serif" font-size="14">different</text><text text-anchor="middle" x="803.76" y="-1318.6" font-family="Helvetica,sans-Serif" font-size="14">location?</text></g><g class="edge"><path fill="none" stroke="#000" d="M899.76-1486.348l-54.634 78.735"/><path stroke="#000" d="M847.998-1405.613l-8.577 6.22 2.826-10.211 5.751 3.99z"/><text text-anchor="middle" x="873.842" y="-1467.037" font-family="Helvetica,sans-Serif" font-size="14">No</text></g><g class="node"><path fill="none" stroke="#000" d="M661.76-356.7L438.912-214.4 661.76-72.1 884.61-214.4 661.76-356.7z"/><text text-anchor="middle" x="661.76" y="-269" font-family="Helvetica,sans-Serif" font-size="14">Do you want to avoid type</text><text text-anchor="middle" x="661.76" y="-252.2" font-family="Helvetica,sans-Serif" font-size="14">conversion (e.g. recompression</text><text text-anchor="middle" x="661.76" y="-235.4" font-family="Helvetica,sans-Serif" font-size="14">due to HEIF to JPEG</text><text text-anchor="middle" x="661.76" y="-218.6" font-family="Helvetica,sans-Serif" font-size="14">conversion) as much as</text><text text-anchor="middle" x="661.76" y="-201.8" font-family="Helvetica,sans-Serif" font-size="14">possible? (Photos will always</text><text text-anchor="middle" x="661.76" y="-185" font-family="Helvetica,sans-Serif" font-size="14">send certain items like</text><text text-anchor="middle" x="661.76" y="-168.2" font-family="Helvetica,sans-Serif" font-size="14">editted photos and &apos;Portrait&apos;</text><text text-anchor="middle" x="661.76" y="-151.4" font-family="Helvetica,sans-Serif" font-size="14">photos as JPEG.)</text></g><g class="edge"><path fill="none" stroke="#000" d="M769.784-140.989l145.633 98.97"/><path stroke="#000" d="M917.82-44.617l6.304 8.515-10.238-2.726 3.934-5.79z"/><text text-anchor="middle" x="785.146" y="-111.02" font-family="Helvetica,sans-Serif" font-size="14">Yes</text></g><g class="edge"><path fill="none" stroke="#000" d="M661.76-71.927v25.467"/><path stroke="#000" d="M665.26-46.309l-3.5 10-3.5-10h7z"/><text text-anchor="middle" x="649.082" y="-40.538" font-family="Helvetica,sans-Serif" font-size="14">No</text></g><g class="node"><path fill="none" stroke="#000" d="M347.76-677.5L124.912-535.2 347.76-392.9 570.61-535.2 347.76-677.5z"/><text text-anchor="middle" x="347.76" y="-589.8" font-family="Helvetica,sans-Serif" font-size="14">Do you want to avoid type</text><text text-anchor="middle" x="347.76" y="-573" font-family="Helvetica,sans-Serif" font-size="14">conversion (e.g. recompression</text><text text-anchor="middle" x="347.76" y="-556.2" font-family="Helvetica,sans-Serif" font-size="14">due to HEIF to JPEG</text><text text-anchor="middle" x="347.76" y="-539.4" font-family="Helvetica,sans-Serif" font-size="14">conversion) as much as</text><text text-anchor="middle" x="347.76" y="-522.6" font-family="Helvetica,sans-Serif" font-size="14">possible? (Photos will always</text><text text-anchor="middle" x="347.76" y="-505.8" font-family="Helvetica,sans-Serif" font-size="14">send certain items like</text><text text-anchor="middle" x="347.76" y="-489" font-family="Helvetica,sans-Serif" font-size="14">editted photos and &apos;Portrait&apos;</text><text text-anchor="middle" x="347.76" y="-472.2" font-family="Helvetica,sans-Serif" font-size="14">photos as JPEG.)</text></g><g class="edge"><path fill="none" stroke="#000" d="M379.715-413.23c4.388 18.823 8.572 38.094 12.045 56.43 11.885 62.734-7.806 240.32 38 284.8 17.378 16.875 366.83 43.073 483.47 51.38"/><path stroke="#000" d="M913.73-24.093l9.727 4.198-10.223 2.784.495-6.982z"/><text text-anchor="middle" x="373.494" y="-379.682" font-family="Helvetica,sans-Serif" font-size="14">Yes</text></g><g class="node"><path fill="none" stroke="#000" d="M266.76-272.7l-115.594 58.3 115.594 58.3 115.594-58.3-115.594-58.3z"/><text text-anchor="middle" x="266.76" y="-227" font-family="Helvetica,sans-Serif" font-size="14">Are you</text><text text-anchor="middle" x="266.76" y="-210.2" font-family="Helvetica,sans-Serif" font-size="14">sharing any</text><text text-anchor="middle" x="266.76" y="-193.4" font-family="Helvetica,sans-Serif" font-size="14">&apos;Live Photos&apos;?</text></g><g class="edge"><path fill="none" stroke="#000" d="M316.79-412.546l-34.425 136.344"/><path stroke="#000" d="M285.67-274.993l-5.842 8.839-.945-10.553 6.787 1.714z"/><text text-anchor="middle" x="297.842" y="-385.088" font-family="Helvetica,sans-Serif" font-size="14">No</text></g><g class="node"><path fill="none" stroke="#000" d="M774.76-627.2l-148.047 92 148.047 92 148.047-92-148.047-92z"/><text text-anchor="middle" x="774.76" y="-564.6" font-family="Helvetica,sans-Serif" font-size="14">Do you want to be</text><text text-anchor="middle" x="774.76" y="-547.8" font-family="Helvetica,sans-Serif" font-size="14">able to reorder the</text><text text-anchor="middle" x="774.76" y="-531" font-family="Helvetica,sans-Serif" font-size="14">photos/videos in the</text><text text-anchor="middle" x="774.76" y="-514.2" font-family="Helvetica,sans-Serif" font-size="14">shared collection</text><text text-anchor="middle" x="774.76" y="-497.4" font-family="Helvetica,sans-Serif" font-size="14">after sharing them?</text></g><g class="edge"><path fill="none" stroke="#000" d="M825.276-474.148c24.532 32.831 52.166 75.159 68.484 117.348 46.179 119.393 17.347 159.384 43 284.8 1.72 8.406 3.926 17.461 6.076 25.71"/><path stroke="#000" d="M946.283-46.949l-.795 10.565-5.967-8.754 6.762-1.81z"/><text text-anchor="middle" x="831.156" y="-440.53" font-family="Helvetica,sans-Serif" font-size="14">Yes</text></g><g class="edge"><path fill="none" stroke="#000" d="M748.124-459.581l-42.03 119.318"/><path stroke="#000" d="M709.324-338.895l-6.624 8.27.021-10.596 6.603 2.326z"/><text text-anchor="middle" x="727.132" y="-433.949" font-family="Helvetica,sans-Serif" font-size="14">No</text></g><g class="edge"><path fill="none" stroke="#000" d="M859.361-766.782c27.069 22.612 57.161 53.65 72.4 89.182 49.706 115.905 27.967 520.323 20.908 631.263"/><path stroke="#000" d="M956.155-46.005l-4.14 9.753-2.845-10.205 6.985.452z"/><text text-anchor="middle" x="871.736" y="-735.253" font-family="Helvetica,sans-Serif" font-size="14">Yes</text></g><g class="edge"><path fill="none" stroke="#000" d="M798.508-749.244l-13.064 117.747"/><path stroke="#000" d="M788.896-630.869l-4.582 9.553-2.375-10.325 6.957.772z"/><text text-anchor="middle" x="782.908" y="-719.419" font-family="Helvetica,sans-Serif" font-size="14">No</text></g><g class="node"><path fill="none" stroke="#000" d="M598.76-1050.3L435.712-992l163.048 58.3L761.808-992l-163.048-58.3z"/><text text-anchor="middle" x="598.76" y="-1004.6" font-family="Helvetica,sans-Serif" font-size="14">Do you want to</text><text text-anchor="middle" x="598.76" y="-987.8" font-family="Helvetica,sans-Serif" font-size="14">avoid downsampling</text><text text-anchor="middle" x="598.76" y="-971" font-family="Helvetica,sans-Serif" font-size="14">(reducing resolution)?</text></g><g class="edge"><path fill="none" stroke="#000" d="M596.584-934.238c-3.155 107.263-5.96 344.243 21.176 541.438 2.125 15.44 5.042 31.486 8.37 47.343"/><path stroke="#000" d="M629.566-346.129l-1.313 10.513-5.53-9.037 6.843-1.476z"/><text text-anchor="middle" x="583.223" y="-903.178" font-family="Helvetica,sans-Serif" font-size="14">No</text></g><g class="edge"><path fill="none" stroke="#000" d="M571.899-943.114L410.794-649.916"/><path stroke="#000" d="M413.716-647.965l-7.884 7.078 1.749-10.45 6.135 3.372z"/><text text-anchor="middle" x="547.694" y="-921.191" font-family="Helvetica,sans-Serif" font-size="14">Yes</text></g><g class="node"><path fill="none" stroke="#000" d="M272.76-863.9l-163.047 58.3 163.047 58.3 163.048-58.3-163.048-58.3z"/><text text-anchor="middle" x="272.76" y="-818.2" font-family="Helvetica,sans-Serif" font-size="14">Do you want to</text><text text-anchor="middle" x="272.76" y="-801.4" font-family="Helvetica,sans-Serif" font-size="14">avoid downsampling</text><text text-anchor="middle" x="272.76" y="-784.6" font-family="Helvetica,sans-Serif" font-size="14">(reducing resolution)?</text></g><g class="edge"><path fill="none" stroke="#000" d="M207.61-770.368c-33.652 21.932-71.776 53.462-91.85 92.768-28.995 56.774-36.288 512.357-37.705 631.286"/><path stroke="#000" d="M81.553-46.142l-3.614 9.96-3.385-10.04 7 .08z"/><text text-anchor="middle" x="177.973" y="-761.513" font-family="Helvetica,sans-Serif" font-size="14">No</text></g><g class="edge"><path fill="none" stroke="#000" d="M287.488-752.5l23.968 86.41"/><path stroke="#000" d="M314.906-666.744l-.7 10.572-6.045-8.7 6.745-1.872z"/><text text-anchor="middle" x="282.538" y="-718.712" font-family="Helvetica,sans-Serif" font-size="14">Yes</text></g><g class="edge"><path fill="none" stroke="#000" d="M544.092-1103.708l25.785 52.689"/><path stroke="#000" d="M573.18-1052.234l1.251 10.521-7.54-7.443 6.288-3.078z"/><text text-anchor="middle" x="544.655" y="-1069.513" font-family="Helvetica,sans-Serif" font-size="14">No</text></g><g class="node"><path fill="none" stroke="#000" d="M272.76-1010l-121.713 18 121.713 18 121.713-18-121.713-18z"/><text text-anchor="middle" x="272.76" y="-987.8" font-family="Helvetica,sans-Serif" font-size="14">video__imessage</text></g><g class="edge"><path fill="none" stroke="#000" d="M459.094-1122.05l-156.772 109.417"/><path stroke="#000" d="M304.259-1009.716l-10.204 2.853 6.197-8.593 4.007 5.74z"/><text text-anchor="middle" x="429.542" y="-1112.686" font-family="Helvetica,sans-Serif" font-size="14">Yes</text></g><g class="edge"><path fill="none" stroke="#000" d="M748.91-1309.691c-23.878 19.304-50.217 44.616-67.15 72.891-35.422 59.15-14.608 85.544-38 150.4-4.277 11.86-9.545 24.23-14.95 35.963"/><path stroke="#000" d="M631.882-1048.748l-7.422 7.561 1.087-10.539 6.335 2.978z"/><text text-anchor="middle" x="719.873" y="-1297.95" font-family="Helvetica,sans-Serif" font-size="14">Yes</text></g><g class="node"><path fill="none" stroke="#000" d="M803.76-1237l-113.033 75.4 113.033 75.4 113.033-75.4L803.76-1237z"/><text text-anchor="middle" x="803.76" y="-1182.6" font-family="Helvetica,sans-Serif" font-size="14">Do the</text><text text-anchor="middle" x="803.76" y="-1165.8" font-family="Helvetica,sans-Serif" font-size="14">recipients</text><text text-anchor="middle" x="803.76" y="-1149" font-family="Helvetica,sans-Serif" font-size="14">have an Apple</text><text text-anchor="middle" x="803.76" y="-1132.2" font-family="Helvetica,sans-Serif" font-size="14">device?</text></g><g class="edge"><path fill="none" stroke="#000" d="M803.76-1272.721v25.813"/><path stroke="#000" d="M807.26-1246.857l-3.5 10-3.5-10h7z"/><text text-anchor="middle" x="791.082" y="-1241.332" font-family="Helvetica,sans-Serif" font-size="14">No</text></g><g class="edge"><path fill="none" stroke="#000" d="M753.086-1119.676l-96.946 80.204"/><path stroke="#000" d="M658.08-1036.534l-9.936 3.678 5.474-9.071 4.462 5.393z"/><text text-anchor="middle" x="724.055" y="-1107.914" font-family="Helvetica,sans-Serif" font-size="14">No</text></g><g class="node"><path fill="none" stroke="#000" d="M1139.76-1050.3L1035.928-992l103.832 58.3 103.832-58.3-103.832-58.3z"/><text text-anchor="middle" x="1139.76" y="-1004.6" font-family="Helvetica,sans-Serif" font-size="14">Are you</text><text text-anchor="middle" x="1139.76" y="-987.8" font-family="Helvetica,sans-Serif" font-size="14">using an iOS</text><text text-anchor="middle" x="1139.76" y="-971" font-family="Helvetica,sans-Serif" font-size="14">device?</text></g><g class="edge"><path fill="none" stroke="#000" d="M868.147-1129.1l207.95 104.965"/><path stroke="#000" d="M1077.685-1027.254l7.35 7.631-10.504-1.382 3.154-6.249z"/><text text-anchor="middle" x="886.706" y="-1101.33" font-family="Helvetica,sans-Serif" font-size="14">Yes</text></g><g class="edge"><path fill="none" stroke="#000" d="M294.168-169.895C317.165-136.818 353.204-93.798 396.76-72c23.147 11.585 395.698 41.61 516.504 51.088"/><path stroke="#000" d="M913.801-24.38l9.697 4.27-10.243 2.708.546-6.978z"/><text text-anchor="middle" x="299.666" y="-136.203" font-family="Helvetica,sans-Serif" font-size="14">Yes</text></g><g class="edge"><path fill="none" stroke="#000" d="M266.76-156.005v109.87"/><path stroke="#000" d="M270.26-46.055l-3.5 10-3.5-10h7z"/><text text-anchor="middle" x="254.082" y="-124.616" font-family="Helvetica,sans-Serif" font-size="14">No</text></g><g class="node"><path fill="none" stroke="#000" d="M1389.011-553.2h-96.502c-6 0-12 6-12 12v12c0 6 6 12 12 12h96.502c6 0 12-6 12-12v-12c0-6-6-12-12-12"/><text text-anchor="middle" x="1340.76" y="-531" font-family="Helvetica,sans-Serif" font-size="14">airdrop_ios_note</text></g><g class="edge"><path fill="none" stroke="#000" d="M1205.83-970.442c34.68 14.859 74.516 38.267 96.93 72.842 69.27 106.853 53.1 269.73 43.026 334.464"/><path stroke="#000" d="M1349.24-562.57l-5.064 9.306-1.845-10.433 6.909 1.126z"/><text text-anchor="middle" x="1225.466" y="-943.56" font-family="Helvetica,sans-Serif" font-size="14">Yes</text></g><g class="node"><path fill="none" stroke="#000" d="M1139.76-897.6l-154.445 92 154.445 92 154.445-92-154.445-92z"/><text text-anchor="middle" x="1139.76" y="-835" font-family="Helvetica,sans-Serif" font-size="14">Do you want to avoid</text><text text-anchor="middle" x="1139.76" y="-818.2" font-family="Helvetica,sans-Serif" font-size="14">coverting lossless</text><text text-anchor="middle" x="1139.76" y="-801.4" font-family="Helvetica,sans-Serif" font-size="14">images to lossy</text><text text-anchor="middle" x="1139.76" y="-784.6" font-family="Helvetica,sans-Serif" font-size="14">images (e.g. PNG to</text><text text-anchor="middle" x="1139.76" y="-767.8" font-family="Helvetica,sans-Serif" font-size="14">JPEG)?</text></g><g class="edge"><path fill="none" stroke="#000" d="M1139.76-933.533v25.866"/><path stroke="#000" d="M1143.26-907.662l-3.5 10-3.5-10h7z"/><text text-anchor="middle" x="1127.082" y="-902.144" font-family="Helvetica,sans-Serif" font-size="14">No</text></g><g class="edge"><path fill="none" stroke="#000" d="M1341.88-517.096l29.123 470.691"/><path stroke="#000" d="M1374.508-46.422l-2.876 10.197-4.11-9.765 6.986-.432z"/></g><g class="edge"><path fill="none" stroke="#000" d="M1069.307-755.137c-23.851 21.067-47.887 47.63-61.547 77.537-111.995 245.214 27.293 343.08-34 605.6-2.065 8.844-5.48 18.075-9.054 26.352"/><path stroke="#000" d="M967.844-44.095l-7.336 7.644.968-10.55 6.368 2.906z"/><text text-anchor="middle" x="1040.649" y="-742.067" font-family="Helvetica,sans-Serif" font-size="14">Yes</text></g><g class="node"><path fill="none" stroke="#000" d="M1139.76-610.6l-122.706 75.4 122.706 75.4 122.706-75.4-122.706-75.4z"/><text text-anchor="middle" x="1139.76" y="-556.2" font-family="Helvetica,sans-Serif" font-size="14">Are you sharing</text><text text-anchor="middle" x="1139.76" y="-539.4" font-family="Helvetica,sans-Serif" font-size="14">both videos and</text><text text-anchor="middle" x="1139.76" y="-522.6" font-family="Helvetica,sans-Serif" font-size="14">&apos;Live Photos&apos;</text><text text-anchor="middle" x="1139.76" y="-505.8" font-family="Helvetica,sans-Serif" font-size="14">the same time?</text></g><g class="edge"><path fill="none" stroke="#000" d="M1139.76-713.3v92.54"/><path stroke="#000" d="M1143.26-620.503l-3.5 10-3.5-10h7z"/><text text-anchor="middle" x="1127.082" y="-681.911" font-family="Helvetica,sans-Serif" font-size="14">No</text></g><g class="edge"><path fill="none" stroke="#000" d="M1129.802-465.543C1114.018-371.149 1077.104-199.746 1002.76-72c-6.076 10.44-14.581 20.408-22.955 28.874"/><path stroke="#000" d="M982.163-40.538l-9.62 4.439 4.752-9.47 4.868 5.031z"/><text text-anchor="middle" x="1112.59" y="-436.772" font-family="Helvetica,sans-Serif" font-size="14">Yes</text></g><g class="node"><path fill="none" stroke="#000" d="M1243.065-232.4h-104.61c-6 0-12 6-12 12v12c0 6 6 12 12 12h104.61c6 0 12-6 12-12v-12c0-6-6-12-12-12"/><text text-anchor="middle" x="1190.76" y="-210.2" font-family="Helvetica,sans-Serif" font-size="14">airdrop_mac_note</text></g><g class="edge"><path fill="none" stroke="#000" d="M1150.7-466.38c11.072 69.637 27.648 173.906 35.553 223.632"/><path stroke="#000" d="M1189.735-243.143l-1.887 10.425-5.027-9.326 6.914-1.1z"/><text text-anchor="middle" x="1142.448" y="-433.338" font-family="Helvetica,sans-Serif" font-size="14">No</text></g><g class="edge"><path fill="none" stroke="#000" d="M1207.556-196.275L1349.011-43.63"/><path stroke="#000" d="M1351.775-45.795l4.23 9.714-9.365-4.956 5.135-4.758z"/></g><g class="edge"><path fill="none" stroke="#000" d="M227.716-980.48c-40.58 12.942-98.148 38.229-126.956 82.88C-82.75-613.17 34.185-162.135 68.945-45.998"/><path stroke="#000" d="M72.389-46.701l-.44 10.585-6.257-8.55 6.697-2.035z"/><text text-anchor="middle" x="197.901" y="-979.61" font-family="Helvetica,sans-Serif" font-size="14">No</text></g><g class="edge"><path fill="none" stroke="#000" d="M272.76-973.788v99.254"/><path stroke="#000" d="M276.26-874.155l-3.5 10-3.5-10h7z"/><text text-anchor="middle" x="260.082" y="-942.399" font-family="Helvetica,sans-Serif" font-size="14">Yes</text></g></g></svg>