<svg width="1213pt" height="3616" viewBox="0 0 1212.6 2712" xmlns="http://www.w3.org/2000/svg"><g class="graph" transform="translate(4 2708)"><path fill="#fff" stroke="transparent" d="M-4 4v-2712h1212.6V4H-4z"/><g class="node"><path fill="none" stroke="#000" d="M250.115-2700H33.977c-6 0-12 6-12 12v12c0 6 6 12 12 12h216.138c6 0 12-6 12-12v-12c0-6-6-12-12-12"/><path fill="none" stroke="#000" d="M254.116-2704H29.976c-6 0-12 6-12 12v20c0 6 6 12 12 12h224.14c6 0 12-6 12-12v-20c0-6-6-12-12-12"/><text text-anchor="middle" x="142.046" y="-2677.8" font-family="Helvetica,sans-Serif" font-size="14">I want to share some photos/videos!</text></g><g class="node"><path fill="none" stroke="#000" d="M142.046-2623.8L-.046-2515.2l142.092 108.6 142.093-108.6-142.093-108.6z"/><text text-anchor="middle" x="142.046" y="-2553" font-family="Helvetica,sans-Serif" font-size="14">Do you want</text><text text-anchor="middle" x="142.046" y="-2536.2" font-family="Helvetica,sans-Serif" font-size="14">recipients to see</text><text text-anchor="middle" x="142.046" y="-2519.4" font-family="Helvetica,sans-Serif" font-size="14">any retouching you</text><text text-anchor="middle" x="142.046" y="-2502.6" font-family="Helvetica,sans-Serif" font-size="14">do after the</text><text text-anchor="middle" x="142.046" y="-2485.8" font-family="Helvetica,sans-Serif" font-size="14">photos/videos are</text><text text-anchor="middle" x="142.046" y="-2469" font-family="Helvetica,sans-Serif" font-size="14">shared?</text></g><g class="edge"><path fill="none" stroke="#000" d="M142.046-2659.85v25.706"/><path stroke="#000" d="M145.546-2633.94l-3.5 10-3.5-10h7z"/></g><g class="node"><path fill="none" stroke="#000" stroke-width="4" d="M236.046-36h-30c-6 0-12 6-12 12v12c0 6 6 12 12 12h30c6 0 12-6 12-12v-12c0-6-6-12-12-12"/><text text-anchor="middle" x="221.046" y="-13.8" font-family="Helvetica,sans-Serif" font-size="14">SOL</text></g><g class="node"><path fill="none" stroke="#000" stroke-width="4" d="M557.046-36h-30c-6 0-12 6-12 12v12c0 6 6 12 12 12h30c6 0 12-6 12-12v-12c0-6-6-12-12-12"/><text text-anchor="middle" x="542.046" y="-13.8" font-family="Helvetica,sans-Serif" font-size="14">icps</text></g><g class="node"><path fill="none" stroke="#000" stroke-width="4" d="M1025.606-36h-35.12c-6 0-12 6-12 12v12c0 6 6 12 12 12h35.12c6 0 12-6 12-12v-12c0-6-6-12-12-12"/><text text-anchor="middle" x="1008.046" y="-13.8" font-family="Helvetica,sans-Serif" font-size="14">airdrop</text></g><g class="node"><path fill="none" stroke="#000" stroke-width="4" d="M1191.944-36h-51.795c-6 0-12 6-12 12v12c0 6 6 12 12 12h51.795c6 0 12-6 12-12v-12c0-6-6-12-12-12"/><text text-anchor="middle" x="1166.046" y="-13.8" font-family="Helvetica,sans-Serif" font-size="14">imessage</text></g><g class="node"><path fill="none" stroke="#000" stroke-width="4" d="M789.046-36h-30c-6 0-12 6-12 12v12c0 6 6 12 12 12h30c6 0 12-6 12-12v-12c0-6-6-12-12-12"/><text text-anchor="middle" x="774.046" y="-13.8" font-family="Helvetica,sans-Serif" font-size="14">email</text></g><g class="edge"><path fill="none" stroke="#000" d="M102.998-2436.34c-8.911 20.979-17.385 43.936-22.952 65.94-35.987 142.259-30 182.06-30 328.8v1674.4c0 131.5-59.32 190.316 20 295.2 14.02 18.538 73.984 35.865 113.998 45.675"/><path stroke="#000" d="M185.089-29.674l8.908 5.736-10.54 1.071 1.632-6.807z"/><text text-anchor="middle" x="80.805" y="-2411.954" font-family="Helvetica,sans-Serif" font-size="14">Yes</text></g><g class="node"><path fill="none" stroke="#000" d="M234.046-2370.4l-145.334 92 145.334 92 145.334-92-145.334-92z"/><text text-anchor="middle" x="234.046" y="-2307.8" font-family="Helvetica,sans-Serif" font-size="14">Do you want the</text><text text-anchor="middle" x="234.046" y="-2291" font-family="Helvetica,sans-Serif" font-size="14">photos/videos to be</text><text text-anchor="middle" x="234.046" y="-2274.2" font-family="Helvetica,sans-Serif" font-size="14">fully editable (as</text><text text-anchor="middle" x="234.046" y="-2257.4" font-family="Helvetica,sans-Serif" font-size="14">if the recipients</text><text text-anchor="middle" x="234.046" y="-2240.6" font-family="Helvetica,sans-Serif" font-size="14">took them)?</text></g><g class="edge"><path fill="none" stroke="#000" d="M174.611-2431.38l27.03 69.572"/><path stroke="#000" d="M204.99-2362.852l.36 10.588-6.885-8.053 6.525-2.535z"/><text text-anchor="middle" x="172.64" y="-2397.245" font-family="Helvetica,sans-Serif" font-size="14">No</text></g><g class="node"><path fill="none" stroke="#000" d="M234.046-2150.2L77.931-2041.6 234.046-1933l156.115-108.6-156.115-108.6z"/><text text-anchor="middle" x="234.046" y="-2079.4" font-family="Helvetica,sans-Serif" font-size="14">Do you want to share</text><text text-anchor="middle" x="234.046" y="-2062.6" font-family="Helvetica,sans-Serif" font-size="14">&apos;Portrait&apos;, &apos;Burst&apos;,</text><text text-anchor="middle" x="234.046" y="-2045.8" font-family="Helvetica,sans-Serif" font-size="14">or &apos;Slo-mo&apos;</text><text text-anchor="middle" x="234.046" y="-2029" font-family="Helvetica,sans-Serif" font-size="14">photos/videos so that</text><text text-anchor="middle" x="234.046" y="-2012.2" font-family="Helvetica,sans-Serif" font-size="14">the recipients can</text><text text-anchor="middle" x="234.046" y="-1995.4" font-family="Helvetica,sans-Serif" font-size="14">edit them?</text></g><g class="edge"><path fill="none" stroke="#000" d="M234.046-2186.169v25.576"/><path stroke="#000" d="M237.546-2160.519l-3.5 10-3.5-10h7z"/><text text-anchor="middle" x="221.368" y="-2154.78" font-family="Helvetica,sans-Serif" font-size="14">Yes</text></g><g class="node"><path fill="none" stroke="#000" d="M418.046-1897l-94.667 75.4 94.667 75.4 94.667-75.4-94.667-75.4z"/><text text-anchor="middle" x="418.046" y="-1842.6" font-family="Helvetica,sans-Serif" font-size="14">Do you have</text><text text-anchor="middle" x="418.046" y="-1825.8" font-family="Helvetica,sans-Serif" font-size="14">multiple</text><text text-anchor="middle" x="418.046" y="-1809" font-family="Helvetica,sans-Serif" font-size="14">photos to</text><text text-anchor="middle" x="418.046" y="-1792.2" font-family="Helvetica,sans-Serif" font-size="14">share?</text></g><g class="edge"><path fill="none" stroke="#000" d="M313.987-2236.572c32.206 21.246 66.151 50.238 85.06 86.172 41.3 78.493 39.525 182.586 31.713 252.434"/><path stroke="#000" d="M434.222-1897.434l-4.654 9.518-2.297-10.342 6.95.824z"/><text text-anchor="middle" x="329.321" y="-2206.587" font-family="Helvetica,sans-Serif" font-size="14">No</text></g><g class="edge"><path fill="none" stroke="#000" d="M189.647-1963.638c-42.954 82.883-101.6 219.135-101.6 345.238v1251.2c0 131.748-46.892 186.124 27 295.2 15.912 23.49 45.27 37.32 69.062 45.092"/><path stroke="#000" d="M185.355-30.188l8.554 6.251-10.585.448 2.03-6.699z"/><text text-anchor="middle" x="166.101" y="-1940.847" font-family="Helvetica,sans-Serif" font-size="14">Yes</text></g><g class="edge"><path fill="none" stroke="#000" d="M291.508-1972.896l82.203 98.286"/><path stroke="#000" d="M376.437-1876.805l3.73 9.916-9.1-5.426 5.37-4.49z"/><text text-anchor="middle" x="299.226" y="-1939.705" font-family="Helvetica,sans-Serif" font-size="14">No</text></g><g class="node"><path fill="none" stroke="#000" d="M418.046-1710.4l-151.288 92 151.288 92 151.288-92-151.288-92z"/><text text-anchor="middle" x="418.046" y="-1647.8" font-family="Helvetica,sans-Serif" font-size="14">Do you want to share</text><text text-anchor="middle" x="418.046" y="-1631" font-family="Helvetica,sans-Serif" font-size="14">a collection of</text><text text-anchor="middle" x="418.046" y="-1614.2" font-family="Helvetica,sans-Serif" font-size="14">photos that you (and</text><text text-anchor="middle" x="418.046" y="-1597.4" font-family="Helvetica,sans-Serif" font-size="14">possibly others) can</text><text text-anchor="middle" x="418.046" y="-1580.6" font-family="Helvetica,sans-Serif" font-size="14">add to over time?</text></g><g class="edge"><path fill="none" stroke="#000" d="M418.046-1746.225v25.6"/><path stroke="#000" d="M421.546-1720.516l-3.5 10-3.5-10h7z"/><text text-anchor="middle" x="405.368" y="-1714.835" font-family="Helvetica,sans-Serif" font-size="14">Yes</text></g><g class="node"><path fill="none" stroke="#000" d="M983.046-1169.8l-118.869 75.4 118.87 75.4 118.868-75.4-118.869-75.4z"/><text text-anchor="middle" x="983.046" y="-1115.4" font-family="Helvetica,sans-Serif" font-size="14">Do the</text><text text-anchor="middle" x="983.046" y="-1098.6" font-family="Helvetica,sans-Serif" font-size="14">recipients have</text><text text-anchor="middle" x="983.046" y="-1081.8" font-family="Helvetica,sans-Serif" font-size="14">iMessage (blue</text><text text-anchor="middle" x="983.046" y="-1065" font-family="Helvetica,sans-Serif" font-size="14">bubbles)?</text></g><g class="edge"><path fill="none" stroke="#000" d="M472.141-1788.89c83.334 52.94 243.262 165.046 336.905 298.49 72.093 102.735 124.216 240.113 151.717 323.111"/><path stroke="#000" d="M964.12-1168.284l-.207 10.593-6.444-8.41 6.65-2.183z"/><text text-anchor="middle" x="488.049" y="-1759.256" font-family="Helvetica,sans-Serif" font-size="14">No</text></g><g class="node"><path fill="none" stroke="#000" d="M339.046-1490.3L116.198-1348l222.848 142.3L561.895-1348l-222.849-142.3z"/><text text-anchor="middle" x="339.046" y="-1402.6" font-family="Helvetica,sans-Serif" font-size="14">Do you want to avoid type</text><text text-anchor="middle" x="339.046" y="-1385.8" font-family="Helvetica,sans-Serif" font-size="14">conversion (e.g. recompression</text><text text-anchor="middle" x="339.046" y="-1369" font-family="Helvetica,sans-Serif" font-size="14">due to HEIF to JPEG</text><text text-anchor="middle" x="339.046" y="-1352.2" font-family="Helvetica,sans-Serif" font-size="14">conversion) as much as</text><text text-anchor="middle" x="339.046" y="-1335.4" font-family="Helvetica,sans-Serif" font-size="14">possible? (Photos will always</text><text text-anchor="middle" x="339.046" y="-1318.6" font-family="Helvetica,sans-Serif" font-size="14">send certain items like</text><text text-anchor="middle" x="339.046" y="-1301.8" font-family="Helvetica,sans-Serif" font-size="14">editted photos and &apos;Portrait&apos;</text><text text-anchor="middle" x="339.046" y="-1285" font-family="Helvetica,sans-Serif" font-size="14">photos as JPEG.)</text></g><g class="edge"><path fill="none" stroke="#000" d="M395.196-1540.19l-18.215 62.348"/><path stroke="#000" d="M380.29-1476.687l-6.164 8.617-.555-10.58 6.719 1.963z"/><text text-anchor="middle" x="375.401" y="-1513.446" font-family="Helvetica,sans-Serif" font-size="14">Yes</text></g><g class="node"><path fill="none" stroke="#000" d="M690.046-1423.4L579.788-1348l110.258 75.4 110.258-75.4-110.258-75.4z"/><text text-anchor="middle" x="690.046" y="-1369" font-family="Helvetica,sans-Serif" font-size="14">Are the</text><text text-anchor="middle" x="690.046" y="-1352.2" font-family="Helvetica,sans-Serif" font-size="14">recipients in a</text><text text-anchor="middle" x="690.046" y="-1335.4" font-family="Helvetica,sans-Serif" font-size="14">different</text><text text-anchor="middle" x="690.046" y="-1318.6" font-family="Helvetica,sans-Serif" font-size="14">location?</text></g><g class="edge"><path fill="none" stroke="#000" d="M485.058-1566.666c27.604 22.398 59.303 49.566 85.988 76.266 26.317 26.33 53.12 57.902 74.609 84.62"/><path stroke="#000" d="M648.639-1407.653l3.508 9.997-8.977-5.627 5.469-4.37z"/><text text-anchor="middle" x="498.095" y="-1535.447" font-family="Helvetica,sans-Serif" font-size="14">No</text></g><g class="edge"><path fill="none" stroke="#000" d="M230.766-1274.54c-33.42 28.594-66.47 64.314-85.72 104.94-62.677 132.28-19 182.423-19 328.8v473.6c0 131.969-29.533 178.455 32 295.2 6.477 12.288 17.012 22.98 27.63 31.535"/><path stroke="#000" d="M187.89-43.178l5.855 8.83-10.083-3.252 4.228-5.578z"/><text text-anchor="middle" x="201.974" y="-1261.915" font-family="Helvetica,sans-Serif" font-size="14">Yes</text></g><g class="node"><path fill="none" stroke="#000" d="M317.046-1152.7L154-1094.4l163.047 58.3 163.048-58.3-163.048-58.3z"/><text text-anchor="middle" x="317.046" y="-1107" font-family="Helvetica,sans-Serif" font-size="14">Do you want to</text><text text-anchor="middle" x="317.046" y="-1090.2" font-family="Helvetica,sans-Serif" font-size="14">avoid downsampling</text><text text-anchor="middle" x="317.046" y="-1073.4" font-family="Helvetica,sans-Serif" font-size="14">(reducing resolution)?</text></g><g class="edge"><path fill="none" stroke="#000" d="M327.338-1213.032l-4.49 51.748"/><path stroke="#000" d="M326.306-1160.641l-4.351 9.66-2.623-10.265 6.974.605z"/><text text-anchor="middle" x="312.357" y="-1182.841" font-family="Helvetica,sans-Serif" font-size="14">No</text></g><g class="node"><path fill="none" stroke="#000" d="M662.046-983.1L439.198-840.8l222.848 142.3 222.849-142.3-222.849-142.3z"/><text text-anchor="middle" x="662.046" y="-895.4" font-family="Helvetica,sans-Serif" font-size="14">Do you want to avoid type</text><text text-anchor="middle" x="662.046" y="-878.6" font-family="Helvetica,sans-Serif" font-size="14">conversion (e.g. recompression</text><text text-anchor="middle" x="662.046" y="-861.8" font-family="Helvetica,sans-Serif" font-size="14">due to HEIF to JPEG</text><text text-anchor="middle" x="662.046" y="-845" font-family="Helvetica,sans-Serif" font-size="14">conversion) as much as</text><text text-anchor="middle" x="662.046" y="-828.2" font-family="Helvetica,sans-Serif" font-size="14">possible? (Photos will always</text><text text-anchor="middle" x="662.046" y="-811.4" font-family="Helvetica,sans-Serif" font-size="14">send certain items like</text><text text-anchor="middle" x="662.046" y="-794.6" font-family="Helvetica,sans-Serif" font-size="14">editted photos and &apos;Portrait&apos;</text><text text-anchor="middle" x="662.046" y="-777.8" font-family="Helvetica,sans-Serif" font-size="14">photos as JPEG.)</text></g><g class="edge"><path fill="none" stroke="#000" d="M503.606-799.37c-73.548 27.18-155.757 70.38-206.56 136.97-147.689 193.586-100.162 519.656-81.785 616.486"/><path stroke="#000" d="M218.713-46.495l-1.52 10.485-5.35-9.144 6.87-1.34z"/><text text-anchor="middle" x="473.672" y="-797.16" font-family="Helvetica,sans-Serif" font-size="14">Yes</text></g><g class="node"><path fill="none" stroke="#000" d="M795.046-628.7L632-570.4l163.047 58.3 163.048-58.3-163.048-58.3z"/><text text-anchor="middle" x="795.046" y="-583" font-family="Helvetica,sans-Serif" font-size="14">Do you want to</text><text text-anchor="middle" x="795.046" y="-566.2" font-family="Helvetica,sans-Serif" font-size="14">avoid downsampling</text><text text-anchor="middle" x="795.046" y="-549.4" font-family="Helvetica,sans-Serif" font-size="14">(reducing resolution)?</text></g><g class="edge"><path fill="none" stroke="#000" d="M715.376-732.376l50.651 102.978"/><path stroke="#000" d="M769.234-630.809l1.273 10.518-7.555-7.428 6.282-3.09z"/><text text-anchor="middle" x="716" y="-698.183" font-family="Helvetica,sans-Serif" font-size="14">No</text></g><g class="node"><path fill="none" stroke="#000" d="M454.046-256L306-164l148.047 92 148.047-92-148.047-92z"/><text text-anchor="middle" x="454.046" y="-193.4" font-family="Helvetica,sans-Serif" font-size="14">Do you want to be</text><text text-anchor="middle" x="454.046" y="-176.6" font-family="Helvetica,sans-Serif" font-size="14">able to reorder the</text><text text-anchor="middle" x="454.046" y="-159.8" font-family="Helvetica,sans-Serif" font-size="14">photos/videos in the</text><text text-anchor="middle" x="454.046" y="-143" font-family="Helvetica,sans-Serif" font-size="14">shared collection</text><text text-anchor="middle" x="454.046" y="-126.2" font-family="Helvetica,sans-Serif" font-size="14">after sharing them?</text></g><g class="edge"><path fill="none" stroke="#000" d="M380.324-117.805l-123.43 77.343"/><path stroke="#000" d="M258.448-37.306l-10.332 2.344 6.615-8.276 3.717 5.932z"/><text text-anchor="middle" x="350.552" y="-109.911" font-family="Helvetica,sans-Serif" font-size="14">Yes</text></g><g class="edge"><path fill="none" stroke="#000" d="M494.44-96.982l31.494 52.25"/><path stroke="#000" d="M528.94-46.523l2.165 10.37-8.16-6.757 5.995-3.614z"/><text text-anchor="middle" x="497.617" y="-62.951" font-family="Helvetica,sans-Serif" font-size="14">No</text></g><g class="edge"><path fill="none" stroke="#000" d="M283.613-1047.858c-12.463 19.23-25.718 42.241-34.567 64.658-68.775 174.233-85 225.484-85 412.8v203.2c0 131.708-13.487 169.55 26 295.2 2.952 9.391 7.726 18.934 12.652 27.332"/><path stroke="#000" d="M205.736-46.41l2.29 10.344-8.241-6.659 5.951-3.685z"/><text text-anchor="middle" x="258.287" y="-1027.578" font-family="Helvetica,sans-Serif" font-size="14">Yes</text></g><g class="edge"><path fill="none" stroke="#000" d="M302.501-1040.867C268.994-906.173 198.721-545.864 328.046-292c13.048 25.612 33.036 49.375 53.274 69.3"/><path stroke="#000" d="M383.99-224.988l4.785 9.452-9.636-4.405 4.85-5.047z"/><text text-anchor="middle" x="283.982" y="-1013.066" font-family="Helvetica,sans-Serif" font-size="14">No</text></g><g class="edge"><path fill="none" stroke="#000" d="M767.986-521.485c-32.51 60.632-86.693 167.916-118.94 265.485-26.204 79.286 6.016 113.04-38 184-8.274 13.339-21.088 24.698-33.438 33.506"/><path stroke="#000" d="M579.44-35.507l-10.247 2.696 6.328-8.497 3.918 5.8z"/><text text-anchor="middle" x="744.046" y="-499.205" font-family="Helvetica,sans-Serif" font-size="14">No</text></g><g class="node"><path fill="none" stroke="#000" d="M774.046-222.3L658.452-164l115.594 58.3L889.64-164l-115.594-58.3z"/><text text-anchor="middle" x="774.046" y="-176.6" font-family="Helvetica,sans-Serif" font-size="14">Are you</text><text text-anchor="middle" x="774.046" y="-159.8" font-family="Helvetica,sans-Serif" font-size="14">sharing any</text><text text-anchor="middle" x="774.046" y="-143" font-family="Helvetica,sans-Serif" font-size="14">&apos;Live Photos&apos;?</text></g><g class="edge"><path fill="none" stroke="#000" d="M792.082-513.035L777.527-231.36"/><path stroke="#000" d="M781.007-230.88l-4.012 9.807-2.979-10.168 6.99.362z"/><text text-anchor="middle" x="778.017" y="-482.336" font-family="Helvetica,sans-Serif" font-size="14">Yes</text></g><g class="edge"><path fill="none" stroke="#000" d="M1045.01-1058.043c27.059 18.97 56.733 44.563 75.036 74.843 96.808 160.153 83 225.662 83 412.8v203.2c0 131.471 6.219 166.17-19 295.2-1.698 8.688-4.411 17.907-7.222 26.223"/><path stroke="#000" d="M1180.059-44.427l-6.65 8.248.055-10.595 6.595 2.347z"/><text text-anchor="middle" x="1059.673" y="-1027.671" font-family="Helvetica,sans-Serif" font-size="14">Yes</text></g><g class="edge"><path fill="none" stroke="#000" d="M930.04-1052.523L769.744-925.884"/><path stroke="#000" d="M771.87-923.103l-10.017 3.452 5.677-8.945 4.34 5.493z"/><text text-anchor="middle" x="900.845" y="-1041.417" font-family="Helvetica,sans-Serif" font-size="14">No</text></g><g class="edge"><path fill="none" stroke="#000" d="M658.91-1293.77c-17.897 34.361-38.611 80.425-47.864 124.17-13.927 65.848-4.613 139.867 9.673 200.978"/><path stroke="#000" d="M624.208-969.081l-1.06 10.541-5.745-8.902 6.805-1.64z"/><text text-anchor="middle" x="635.248" y="-1271.127" font-family="Helvetica,sans-Serif" font-size="14">Yes</text></g><g class="node"><path fill="none" stroke="#000" d="M733.046-1169.8l-113.033 75.4 113.033 75.4 113.034-75.4-113.034-75.4z"/><text text-anchor="middle" x="733.046" y="-1115.4" font-family="Helvetica,sans-Serif" font-size="14">Do the</text><text text-anchor="middle" x="733.046" y="-1098.6" font-family="Helvetica,sans-Serif" font-size="14">recipients</text><text text-anchor="middle" x="733.046" y="-1081.8" font-family="Helvetica,sans-Serif" font-size="14">have an Apple</text><text text-anchor="middle" x="733.046" y="-1065" font-family="Helvetica,sans-Serif" font-size="14">device?</text></g><g class="edge"><path fill="none" stroke="#000" d="M701.513-1280.373l18.32 108.045"/><path stroke="#000" d="M723.316-1172.723l-1.78 10.444-5.122-9.274 6.902-1.17z"/><text text-anchor="middle" x="693.558" y="-1247.247" font-family="Helvetica,sans-Serif" font-size="14">No</text></g><g class="edge"><path fill="none" stroke="#000" d="M715.221-1030.733l-16.544 59.094"/><path stroke="#000" d="M702.008-970.554l-6.067 8.686-.674-10.573 6.74 1.887z"/><text text-anchor="middle" x="695.682" y="-1003.769" font-family="Helvetica,sans-Serif" font-size="14">No</text></g><g class="node"><path fill="none" stroke="#000" d="M1007.046-899.1l-103.832 58.3 103.832 58.3 103.832-58.3-103.832-58.3z"/><text text-anchor="middle" x="1007.046" y="-853.4" font-family="Helvetica,sans-Serif" font-size="14">Are you</text><text text-anchor="middle" x="1007.046" y="-836.6" font-family="Helvetica,sans-Serif" font-size="14">using an iOS</text><text text-anchor="middle" x="1007.046" y="-819.8" font-family="Helvetica,sans-Serif" font-size="14">device?</text></g><g class="edge"><path fill="none" stroke="#000" d="M793.17-1058.906c31.697 20.153 70.243 47.04 100.876 75.706 29.364 27.477 57.492 62.88 78.34 91.512"/><path stroke="#000" d="M975.336-893.58l3.005 10.16-8.685-6.07 5.68-4.09z"/><text text-anchor="middle" x="809.172" y="-1029.33" font-family="Helvetica,sans-Serif" font-size="14">Yes</text></g><g class="edge"><path fill="none" stroke="#000" d="M725.323-130.044C694.07-109.939 651.838-85.777 611.046-72 545.992-50.028 342.845-29.284 258.42-21.374"/><path stroke="#000" d="M258.54-17.87l-10.28-2.56 9.633-4.41.647 6.97z"/><text text-anchor="middle" x="695.569" y="-122.007" font-family="Helvetica,sans-Serif" font-size="14">Yes</text></g><g class="edge"><path fill="none" stroke="#000" d="M774.046-105.457v58.948"/><path stroke="#000" d="M777.546-46.279l-3.5 10-3.5-10h7z"/><text text-anchor="middle" x="761.368" y="-74.068" font-family="Helvetica,sans-Serif" font-size="14">No</text></g><g class="node"><path fill="none" stroke="#000" d="M1163.297-182h-96.502c-6 0-12 6-12 12v12c0 6 6 12 12 12h96.502c6 0 12-6 12-12v-12c0-6-6-12-12-12"/><text text-anchor="middle" x="1115.046" y="-159.8" font-family="Helvetica,sans-Serif" font-size="14">airdrop_ios_note</text></g><g class="edge"><path fill="none" stroke="#000" d="M1015.611-787.127l94.958 595.072"/><path stroke="#000" d="M1114.033-192.56l-1.88 10.428-5.032-9.324 6.912-1.103z"/><text text-anchor="middle" x="1007.375" y="-754.08" font-family="Helvetica,sans-Serif" font-size="14">Yes</text></g><g class="node"><path fill="none" stroke="#000" d="M460.046-662.4l-154.445 92 154.445 92 154.445-92-154.445-92z"/><text text-anchor="middle" x="460.046" y="-599.8" font-family="Helvetica,sans-Serif" font-size="14">Do you want to avoid</text><text text-anchor="middle" x="460.046" y="-583" font-family="Helvetica,sans-Serif" font-size="14">coverting lossless</text><text text-anchor="middle" x="460.046" y="-566.2" font-family="Helvetica,sans-Serif" font-size="14">images to lossy</text><text text-anchor="middle" x="460.046" y="-549.4" font-family="Helvetica,sans-Serif" font-size="14">images (e.g. PNG to</text><text text-anchor="middle" x="460.046" y="-532.6" font-family="Helvetica,sans-Serif" font-size="14">JPEG)?</text></g><g class="edge"><path fill="none" stroke="#000" d="M983.58-795.417c-19.406 32.632-50.142 74.67-89.534 97.017-105.68 59.954-155.779-2.561-271 36-27.84 9.317-56.332 23.517-81.548 37.992"/><path stroke="#000" d="M543.123-621.303l-10.4 2.02 6.87-8.065 3.53 6.045z"/><text text-anchor="middle" x="958.558" y="-774.668" font-family="Helvetica,sans-Serif" font-size="14">No</text></g><g class="edge"><path fill="none" stroke="#000" d="M1101.71-145.804l-74.187 101.228"/><path stroke="#000" d="M1030.284-42.422l-8.735 5.997 3.089-10.135 5.646 4.138z"/></g><g class="edge"><path fill="none" stroke="#000" d="M394.54-517.178c-23.281 21.386-48.219 47.445-66.494 74.778-86.571 129.48-103.107 323.7-106.26 395.974"/><path stroke="#000" d="M225.278-46.143l-3.879 9.859-3.116-10.126 6.995.267z"/><text text-anchor="middle" x="366.008" y="-503.705" font-family="Helvetica,sans-Serif" font-size="14">Yes</text></g><g class="node"><path fill="none" stroke="#000" d="M460.046-442.6L337.34-367.2l122.706 75.4 122.706-75.4-122.706-75.4z"/><text text-anchor="middle" x="460.046" y="-388.2" font-family="Helvetica,sans-Serif" font-size="14">Are you sharing</text><text text-anchor="middle" x="460.046" y="-371.4" font-family="Helvetica,sans-Serif" font-size="14">both videos and</text><text text-anchor="middle" x="460.046" y="-354.6" font-family="Helvetica,sans-Serif" font-size="14">&apos;Live Photos&apos;</text><text text-anchor="middle" x="460.046" y="-337.8" font-family="Helvetica,sans-Serif" font-size="14">the same time?</text></g><g class="edge"><path fill="none" stroke="#000" d="M460.046-478.313v25.56"/><path stroke="#000" d="M463.546-452.54l-3.5 10-3.5-10h7z"/><text text-anchor="middle" x="447.368" y="-446.923" font-family="Helvetica,sans-Serif" font-size="14">No</text></g><g class="edge"><path fill="none" stroke="#000" d="M389.765-334.636c-32.831 18.618-69.673 45.01-92.719 78.636-47.478 69.273-11.144 106.295-43 184-3.795 9.257-9.066 18.761-14.282 27.165"/><path stroke="#000" d="M242.561-42.714l-8.364 6.503 2.483-10.3 5.881 3.797z"/><text text-anchor="middle" x="359.894" y="-327.659" font-family="Helvetica,sans-Serif" font-size="14">Yes</text></g><g class="node"><path fill="none" stroke="#000" d="M1024.351-182h-104.61c-6 0-12 6-12 12v12c0 6 6 12 12 12h104.61c6 0 12-6 12-12v-12c0-6-6-12-12-12"/><text text-anchor="middle" x="972.046" y="-159.8" font-family="Helvetica,sans-Serif" font-size="14">airdrop_mac_note</text></g><g class="edge"><path fill="none" stroke="#000" d="M569.779-359.075c93.863 11.322 229.248 38.39 329.267 103.075 25.205 16.3 45.562 44.277 58.311 65.11"/><path stroke="#000" d="M960.435-192.56l2.074 10.39-8.1-6.83 6.026-3.56z"/><text text-anchor="middle" x="595.064" y="-338.731" font-family="Helvetica,sans-Serif" font-size="14">No</text></g><g class="edge"><path fill="none" stroke="#000" d="M976.533-145.804l24.489 99.316"/><path stroke="#000" d="M1004.507-46.972l-1.004 10.547-5.792-8.871 6.796-1.676z"/></g></g></svg>