<svg width="2392" height="2746pt" viewBox="0 0 1793.98 2745.6" xmlns="http://www.w3.org/2000/svg"><g class="graph" transform="translate(4 2741.6)"><path fill="#fff" stroke="transparent" d="M-4 4v-2745.6h1793.982V4H-4z"/><g class="node"><path fill="none" stroke="#000" d="M250.115-2733.6H33.977c-6 0-12 6-12 12v12c0 6 6 12 12 12h216.138c6 0 12-6 12-12v-12c0-6-6-12-12-12"/><path fill="none" stroke="#000" d="M254.116-2737.6H29.976c-6 0-12 6-12 12v20c0 6 6 12 12 12h224.14c6 0 12-6 12-12v-20c0-6-6-12-12-12"/><text text-anchor="middle" x="142.046" y="-2711.4" font-family="Helvetica,sans-Serif" font-size="14">I want to share some photos/videos!</text></g><g class="node"><path fill="none" stroke="#000" d="M142.046-2657.4L-.046-2548.8l142.092 108.6 142.093-108.6-142.093-108.6z"/><text text-anchor="middle" x="142.046" y="-2586.6" font-family="Helvetica,sans-Serif" font-size="14">Do you want</text><text text-anchor="middle" x="142.046" y="-2569.8" font-family="Helvetica,sans-Serif" font-size="14">recipients to see</text><text text-anchor="middle" x="142.046" y="-2553" font-family="Helvetica,sans-Serif" font-size="14">any retouching you</text><text text-anchor="middle" x="142.046" y="-2536.2" font-family="Helvetica,sans-Serif" font-size="14">do after the</text><text text-anchor="middle" x="142.046" y="-2519.4" font-family="Helvetica,sans-Serif" font-size="14">photos/videos are</text><text text-anchor="middle" x="142.046" y="-2502.6" font-family="Helvetica,sans-Serif" font-size="14">shared?</text></g><g class="edge"><path fill="none" stroke="#000" d="M142.046-2693.45v25.706"/><path stroke="#000" d="M145.546-2667.54l-3.5 10-3.5-10h7z"/></g><g class="node"><path fill="none" stroke="#000" stroke-width="4" d="M548.046-36h-30c-6 0-12 6-12 12v12c0 6 6 12 12 12h30c6 0 12-6 12-12v-12c0-6-6-12-12-12"/><text text-anchor="middle" x="533.046" y="-13.8" font-family="Helvetica,sans-Serif" font-size="14">SOL</text></g><g class="node"><path fill="none" stroke="#000" stroke-width="4" d="M620.046-36h-30c-6 0-12 6-12 12v12c0 6 6 12 12 12h30c6 0 12-6 12-12v-12c0-6-6-12-12-12"/><text text-anchor="middle" x="605.046" y="-13.8" font-family="Helvetica,sans-Serif" font-size="14">icps</text></g><g class="node"><path fill="none" stroke="#000" stroke-width="4" d="M1350.606-36h-35.12c-6 0-12 6-12 12v12c0 6 6 12 12 12h35.12c6 0 12-6 12-12v-12c0-6-6-12-12-12"/><text text-anchor="middle" x="1333.046" y="-13.8" font-family="Helvetica,sans-Serif" font-size="14">airdrop</text></g><g class="node"><path fill="none" stroke="#000" stroke-width="4" d="M1603.944-36h-51.795c-6 0-12 6-12 12v12c0 6 6 12 12 12h51.795c6 0 12-6 12-12v-12c0-6-6-12-12-12"/><text text-anchor="middle" x="1578.046" y="-13.8" font-family="Helvetica,sans-Serif" font-size="14">imessage</text></g><g class="node"><path fill="none" stroke="#000" stroke-width="4" d="M1017.046-36h-30c-6 0-12 6-12 12v12c0 6 6 12 12 12h30c6 0 12-6 12-12v-12c0-6-6-12-12-12"/><text text-anchor="middle" x="1002.046" y="-13.8" font-family="Helvetica,sans-Serif" font-size="14">email</text></g><g class="edge"><path fill="none" stroke="#000" d="M102.998-2469.94c-8.911 20.979-17.385 43.936-22.952 65.94-35.987 142.259-30 182.06-30 328.8v1540c0 206.243-113.564 313.215 28 463.2 28.543 30.24 314.015 47.107 417.656 52.272"/><path stroke="#000" d="M496.186-23.209l9.817 3.985-10.16 3.007.343-6.992z"/><text text-anchor="middle" x="80.805" y="-2445.554" font-family="Helvetica,sans-Serif" font-size="14">Yes</text></g><g class="node"><path fill="none" stroke="#000" d="M234.046-2404l-145.334 92 145.334 92 145.334-92-145.334-92z"/><text text-anchor="middle" x="234.046" y="-2341.4" font-family="Helvetica,sans-Serif" font-size="14">Do you want the</text><text text-anchor="middle" x="234.046" y="-2324.6" font-family="Helvetica,sans-Serif" font-size="14">photos/videos to be</text><text text-anchor="middle" x="234.046" y="-2307.8" font-family="Helvetica,sans-Serif" font-size="14">fully editable (as</text><text text-anchor="middle" x="234.046" y="-2291" font-family="Helvetica,sans-Serif" font-size="14">if the recipients</text><text text-anchor="middle" x="234.046" y="-2274.2" font-family="Helvetica,sans-Serif" font-size="14">took them)?</text></g><g class="edge"><path fill="none" stroke="#000" d="M174.611-2464.98l27.03 69.572"/><path stroke="#000" d="M204.99-2396.452l.36 10.588-6.885-8.053 6.525-2.535z"/><text text-anchor="middle" x="172.64" y="-2430.845" font-family="Helvetica,sans-Serif" font-size="14">No</text></g><g class="node"><path fill="none" stroke="#000" d="M234.046-2183.8L77.931-2075.2l156.115 108.6 156.115-108.6-156.115-108.6z"/><text text-anchor="middle" x="234.046" y="-2113" font-family="Helvetica,sans-Serif" font-size="14">Do you want to share</text><text text-anchor="middle" x="234.046" y="-2096.2" font-family="Helvetica,sans-Serif" font-size="14">&apos;Portrait&apos;, &apos;Burst&apos;,</text><text text-anchor="middle" x="234.046" y="-2079.4" font-family="Helvetica,sans-Serif" font-size="14">or &apos;Slo-mo&apos;</text><text text-anchor="middle" x="234.046" y="-2062.6" font-family="Helvetica,sans-Serif" font-size="14">photos/videos so that</text><text text-anchor="middle" x="234.046" y="-2045.8" font-family="Helvetica,sans-Serif" font-size="14">the recipients can</text><text text-anchor="middle" x="234.046" y="-2029" font-family="Helvetica,sans-Serif" font-size="14">edit them?</text></g><g class="edge"><path fill="none" stroke="#000" d="M234.046-2219.769v25.576"/><path stroke="#000" d="M237.546-2194.119l-3.5 10-3.5-10h7z"/><text text-anchor="middle" x="221.368" y="-2188.38" font-family="Helvetica,sans-Serif" font-size="14">Yes</text></g><g class="node"><path fill="none" stroke="#000" d="M418.046-1930.6l-94.667 75.4 94.667 75.4 94.667-75.4-94.667-75.4z"/><text text-anchor="middle" x="418.046" y="-1876.2" font-family="Helvetica,sans-Serif" font-size="14">Do you have</text><text text-anchor="middle" x="418.046" y="-1859.4" font-family="Helvetica,sans-Serif" font-size="14">multiple</text><text text-anchor="middle" x="418.046" y="-1842.6" font-family="Helvetica,sans-Serif" font-size="14">photos to</text><text text-anchor="middle" x="418.046" y="-1825.8" font-family="Helvetica,sans-Serif" font-size="14">share?</text></g><g class="edge"><path fill="none" stroke="#000" d="M313.987-2270.172c32.206 21.246 66.151 50.238 85.06 86.172 41.3 78.493 39.525 182.586 31.713 252.434"/><path stroke="#000" d="M434.222-1931.034l-4.654 9.518-2.297-10.342 6.95.824z"/><text text-anchor="middle" x="329.321" y="-2240.187" font-family="Helvetica,sans-Serif" font-size="14">No</text></g><g class="edge"><path fill="none" stroke="#000" d="M188.251-1997.963C145.435-1918.32 88.046-1789.128 88.046-1668.8v1133.6c0 103.336-30.422 388.52 41 463.2 25.192 26.34 271.502 45.259 366.706 51.641"/><path stroke="#000" d="M496.055-23.846l9.747 4.152-10.21 2.832.463-6.984z"/><text text-anchor="middle" x="164.435" y="-1975.522" font-family="Helvetica,sans-Serif" font-size="14">Yes</text></g><g class="edge"><path fill="none" stroke="#000" d="M291.508-2006.496l82.203 98.286"/><path stroke="#000" d="M376.437-1910.406l3.73 9.917-9.1-5.426 5.37-4.49z"/><text text-anchor="middle" x="299.226" y="-1973.305" font-family="Helvetica,sans-Serif" font-size="14">No</text></g><g class="node"><path fill="none" stroke="#000" d="M418.046-1507.2l-151.288 92 151.288 92 151.288-92-151.288-92z"/><text text-anchor="middle" x="418.046" y="-1444.6" font-family="Helvetica,sans-Serif" font-size="14">Do you want to share</text><text text-anchor="middle" x="418.046" y="-1427.8" font-family="Helvetica,sans-Serif" font-size="14">a collection of</text><text text-anchor="middle" x="418.046" y="-1411" font-family="Helvetica,sans-Serif" font-size="14">photos that you (and</text><text text-anchor="middle" x="418.046" y="-1394.2" font-family="Helvetica,sans-Serif" font-size="14">possibly others) can</text><text text-anchor="middle" x="418.046" y="-1377.4" font-family="Helvetica,sans-Serif" font-size="14">add to over time?</text></g><g class="edge"><path fill="none" stroke="#000" d="M418.046-1779.561v262.068"/><path stroke="#000" d="M421.546-1517.382l-3.5 10-3.5-10h7z"/><text text-anchor="middle" x="405.368" y="-1748.172" font-family="Helvetica,sans-Serif" font-size="14">Yes</text></g><g class="node"><path fill="none" stroke="#000" d="M862.046-1744.2l-118.869 75.4 118.87 75.4 118.868-75.4-118.869-75.4z"/><text text-anchor="middle" x="862.046" y="-1689.8" font-family="Helvetica,sans-Serif" font-size="14">Do the</text><text text-anchor="middle" x="862.046" y="-1673" font-family="Helvetica,sans-Serif" font-size="14">recipients have</text><text text-anchor="middle" x="862.046" y="-1656.2" font-family="Helvetica,sans-Serif" font-size="14">iMessage (blue</text><text text-anchor="middle" x="862.046" y="-1639.4" font-family="Helvetica,sans-Serif" font-size="14">bubbles)?</text></g><g class="edge"><path fill="none" stroke="#000" d="M480.25-1829.086l300.822 126.291"/><path stroke="#000" d="M782.477-1706l7.865 7.097-10.575-.643 2.71-6.455z"/><text text-anchor="middle" x="500.412" y="-1802.671" font-family="Helvetica,sans-Serif" font-size="14">No</text></g><g class="node"><path fill="none" stroke="#000" d="M302.046-830.3L139-772l163.047 58.3L465.094-772l-163.048-58.3z"/><text text-anchor="middle" x="302.046" y="-784.6" font-family="Helvetica,sans-Serif" font-size="14">Do you want to</text><text text-anchor="middle" x="302.046" y="-767.8" font-family="Helvetica,sans-Serif" font-size="14">avoid downsampling</text><text text-anchor="middle" x="302.046" y="-751" font-family="Helvetica,sans-Serif" font-size="14">(reducing resolution)?</text></g><g class="edge"><path fill="none" stroke="#000" d="M403.06-1332.101L313.772-837.02"/><path stroke="#000" d="M317.199-836.296l-5.22 9.22-1.67-10.463 6.89 1.243z"/><text text-anchor="middle" x="385.757" y="-1303.394" font-family="Helvetica,sans-Serif" font-size="14">Yes</text></g><g class="node"><path fill="none" stroke="#000" d="M580.046-1220.2l-114.039 75.4 114.04 75.4 114.038-75.4-114.039-75.4z"/><text text-anchor="middle" x="580.046" y="-1165.8" font-family="Helvetica,sans-Serif" font-size="14">Are the</text><text text-anchor="middle" x="580.046" y="-1149" font-family="Helvetica,sans-Serif" font-size="14">recipients in a</text><text text-anchor="middle" x="580.046" y="-1132.2" font-family="Helvetica,sans-Serif" font-size="14">different</text><text text-anchor="middle" x="580.046" y="-1115.4" font-family="Helvetica,sans-Serif" font-size="14">location?</text></g><g class="edge"><path fill="none" stroke="#000" d="M458.508-1347.664l83.688 139.686"/><path stroke="#000" d="M545.294-1209.616l2.137 10.377-8.142-6.78 6.005-3.597z"/><text text-anchor="middle" x="461.605" y="-1313.624" font-family="Helvetica,sans-Serif" font-size="14">No</text></g><g class="node"><path fill="none" stroke="#000" d="M569.046-356.7L346.198-214.4 569.046-72.1l222.849-142.3-222.849-142.3z"/><text text-anchor="middle" x="569.046" y="-269" font-family="Helvetica,sans-Serif" font-size="14">Do you want to avoid type</text><text text-anchor="middle" x="569.046" y="-252.2" font-family="Helvetica,sans-Serif" font-size="14">conversion (e.g. recompression</text><text text-anchor="middle" x="569.046" y="-235.4" font-family="Helvetica,sans-Serif" font-size="14">due to HEIF to JPEG</text><text text-anchor="middle" x="569.046" y="-218.6" font-family="Helvetica,sans-Serif" font-size="14">conversion) as much as</text><text text-anchor="middle" x="569.046" y="-201.8" font-family="Helvetica,sans-Serif" font-size="14">possible? (Photos will always</text><text text-anchor="middle" x="569.046" y="-185" font-family="Helvetica,sans-Serif" font-size="14">send certain items like</text><text text-anchor="middle" x="569.046" y="-168.2" font-family="Helvetica,sans-Serif" font-size="14">editted photos and &apos;Portrait&apos;</text><text text-anchor="middle" x="569.046" y="-151.4" font-family="Helvetica,sans-Serif" font-size="14">photos as JPEG.)</text></g><g class="edge"><path fill="none" stroke="#000" d="M545.688-86.967l-7.47 40.756"/><path stroke="#000" d="M541.605-45.28l-5.246 9.205-1.64-10.468 6.886 1.262z"/><text text-anchor="middle" x="528.315" y="-58.309" font-family="Helvetica,sans-Serif" font-size="14">Yes</text></g><g class="edge"><path fill="none" stroke="#000" d="M592.405-86.967l7.47 40.756"/><path stroke="#000" d="M603.373-46.543l-1.64 10.468-5.246-9.206 6.886-1.262z"/><text text-anchor="middle" x="584.836" y="-53.738" font-family="Helvetica,sans-Serif" font-size="14">No</text></g><g class="node"><path fill="none" stroke="#000" d="M691.046-677.5L468.198-535.2l222.848 142.3 222.849-142.3-222.849-142.3z"/><text text-anchor="middle" x="691.046" y="-589.8" font-family="Helvetica,sans-Serif" font-size="14">Do you want to avoid type</text><text text-anchor="middle" x="691.046" y="-573" font-family="Helvetica,sans-Serif" font-size="14">conversion (e.g. recompression</text><text text-anchor="middle" x="691.046" y="-556.2" font-family="Helvetica,sans-Serif" font-size="14">due to HEIF to JPEG</text><text text-anchor="middle" x="691.046" y="-539.4" font-family="Helvetica,sans-Serif" font-size="14">conversion) as much as</text><text text-anchor="middle" x="691.046" y="-522.6" font-family="Helvetica,sans-Serif" font-size="14">possible? (Photos will always</text><text text-anchor="middle" x="691.046" y="-505.8" font-family="Helvetica,sans-Serif" font-size="14">send certain items like</text><text text-anchor="middle" x="691.046" y="-489" font-family="Helvetica,sans-Serif" font-size="14">editted photos and &apos;Portrait&apos;</text><text text-anchor="middle" x="691.046" y="-472.2" font-family="Helvetica,sans-Serif" font-size="14">photos as JPEG.)</text></g><g class="edge"><path fill="none" stroke="#000" d="M583.657-461.13c-38.158 24.088-82.19 49.45-124.61 68.33-51.65 22.986-88.152-9.28-122 36-37.895 50.69-38.352 234.454 0 284.8 19.158 25.151 107.495 41.547 158.8 49.123"/><path stroke="#000" d="M496.488-26.321l9.401 4.884-10.395 2.045.994-6.929z"/><text text-anchor="middle" x="553.881" y="-453.277" font-family="Helvetica,sans-Serif" font-size="14">Yes</text></g><g class="node"><path fill="none" stroke="#000" d="M1002.046-272.7l-115.594 58.3 115.594 58.3 115.594-58.3-115.594-58.3z"/><text text-anchor="middle" x="1002.046" y="-227" font-family="Helvetica,sans-Serif" font-size="14">Are you</text><text text-anchor="middle" x="1002.046" y="-210.2" font-family="Helvetica,sans-Serif" font-size="14">sharing any</text><text text-anchor="middle" x="1002.046" y="-193.4" font-family="Helvetica,sans-Serif" font-size="14">&apos;Live Photos&apos;?</text></g><g class="edge"><path fill="none" stroke="#000" d="M776.44-447.116L956.85-261.02"/><path stroke="#000" d="M959.432-263.386l4.447 9.616-9.473-4.743 5.026-4.873z"/><text text-anchor="middle" x="786.262" y="-414.569" font-family="Helvetica,sans-Serif" font-size="14">No</text></g><g class="node"><path fill="none" stroke="#000" d="M1132.046-1557.5l-222.848 142.3 222.848 142.3 222.849-142.3-222.849-142.3z"/><text text-anchor="middle" x="1132.046" y="-1469.8" font-family="Helvetica,sans-Serif" font-size="14">Do you want to avoid type</text><text text-anchor="middle" x="1132.046" y="-1453" font-family="Helvetica,sans-Serif" font-size="14">conversion (e.g. recompression</text><text text-anchor="middle" x="1132.046" y="-1436.2" font-family="Helvetica,sans-Serif" font-size="14">due to HEIF to JPEG</text><text text-anchor="middle" x="1132.046" y="-1419.4" font-family="Helvetica,sans-Serif" font-size="14">conversion) as much as</text><text text-anchor="middle" x="1132.046" y="-1402.6" font-family="Helvetica,sans-Serif" font-size="14">possible? (Photos will always</text><text text-anchor="middle" x="1132.046" y="-1385.8" font-family="Helvetica,sans-Serif" font-size="14">send certain items like</text><text text-anchor="middle" x="1132.046" y="-1369" font-family="Helvetica,sans-Serif" font-size="14">editted photos and &apos;Portrait&apos;</text><text text-anchor="middle" x="1132.046" y="-1352.2" font-family="Helvetica,sans-Serif" font-size="14">photos as JPEG.)</text></g><g class="node"><path fill="none" stroke="#000" d="M1140.046-1017l-114.039 75.4 114.04 75.4 114.038-75.4-114.039-75.4z"/><text text-anchor="middle" x="1140.046" y="-962.6" font-family="Helvetica,sans-Serif" font-size="14">Are the</text><text text-anchor="middle" x="1140.046" y="-945.8" font-family="Helvetica,sans-Serif" font-size="14">recipients in a</text><text text-anchor="middle" x="1140.046" y="-929" font-family="Helvetica,sans-Serif" font-size="14">different</text><text text-anchor="middle" x="1140.046" y="-912.2" font-family="Helvetica,sans-Serif" font-size="14">location?</text></g><g class="edge"><path fill="none" stroke="#000" d="M1134.425-1274.387l4.184 247.706"/><path stroke="#000" d="M1142.114-1026.38l-3.33 10.058-3.668-9.94 6.998-.118z"/><text text-anchor="middle" x="1122.207" y="-1242.787" font-family="Helvetica,sans-Serif" font-size="14">Yes</text></g><g class="node"><path fill="none" stroke="#000" d="M1314.046-1236.8l-154.445 92 154.445 92 154.445-92-154.445-92z"/><text text-anchor="middle" x="1314.046" y="-1174.2" font-family="Helvetica,sans-Serif" font-size="14">Do you want to avoid</text><text text-anchor="middle" x="1314.046" y="-1157.4" font-family="Helvetica,sans-Serif" font-size="14">coverting lossless</text><text text-anchor="middle" x="1314.046" y="-1140.6" font-family="Helvetica,sans-Serif" font-size="14">images to lossy</text><text text-anchor="middle" x="1314.046" y="-1123.8" font-family="Helvetica,sans-Serif" font-size="14">images (e.g. PNG to</text><text text-anchor="middle" x="1314.046" y="-1107" font-family="Helvetica,sans-Serif" font-size="14">JPEG)?</text></g><g class="edge"><path fill="none" stroke="#000" d="M1199.04-1315.665l64.716 96.149"/><path stroke="#000" d="M1266.898-1221.116l2.68 10.25-8.487-6.342 5.807-3.908z"/><text text-anchor="middle" x="1203.705" y="-1281.83" font-family="Helvetica,sans-Serif" font-size="14">No</text></g><g class="node"><path fill="none" stroke="#000" d="M302.046-627.2L154-535.2l148.047 92 148.047-92-148.047-92z"/><text text-anchor="middle" x="302.046" y="-564.6" font-family="Helvetica,sans-Serif" font-size="14">Do you want to be</text><text text-anchor="middle" x="302.046" y="-547.8" font-family="Helvetica,sans-Serif" font-size="14">able to reorder the</text><text text-anchor="middle" x="302.046" y="-531" font-family="Helvetica,sans-Serif" font-size="14">photos/videos in the</text><text text-anchor="middle" x="302.046" y="-514.2" font-family="Helvetica,sans-Serif" font-size="14">shared collection</text><text text-anchor="middle" x="302.046" y="-497.4" font-family="Helvetica,sans-Serif" font-size="14">after sharing them?</text></g><g class="edge"><path fill="none" stroke="#000" d="M276.337-458.94C247.775-358.664 216.335-182.31 304.047-72c23.562 29.633 133.071 44.665 191.704 50.704"/><path stroke="#000" d="M496.128-24.776l9.605 4.471-10.297 2.495.692-6.966z"/><text text-anchor="middle" x="257.121" y="-431.703" font-family="Helvetica,sans-Serif" font-size="14">Yes</text></g><g class="edge"><path fill="none" stroke="#000" d="M352.58-474.483L485.03-315.347"/><path stroke="#000" d="M487.951-317.307l3.707 9.925-9.087-5.447 5.38-4.478z"/><text text-anchor="middle" x="360.229" y="-441.274" font-family="Helvetica,sans-Serif" font-size="14">No</text></g><g class="edge"><path fill="none" stroke="#000" d="M220.188-742.765c-29.056 14.792-58.623 35.959-75.142 65.165-67.096 118.634-4.532 514.677 97 605.6 36.956 33.094 183.712 46.986 253.61 51.815"/><path stroke="#000" d="M496.042-23.667l9.746 4.156-10.21 2.828.464-6.984z"/><text text-anchor="middle" x="190.228" y="-737.009" font-family="Helvetica,sans-Serif" font-size="14">Yes</text></g><g class="edge"><path fill="none" stroke="#000" d="M302.046-713.465v75.61"/><path stroke="#000" d="M305.546-637.62l-3.5 10-3.5-10h7z"/><text text-anchor="middle" x="289.368" y="-682.076" font-family="Helvetica,sans-Serif" font-size="14">No</text></g><g class="node"><path fill="none" stroke="#000" d="M721.046-830.3L558-772l163.047 58.3L884.094-772l-163.048-58.3z"/><text text-anchor="middle" x="721.046" y="-784.6" font-family="Helvetica,sans-Serif" font-size="14">Do you want to</text><text text-anchor="middle" x="721.046" y="-767.8" font-family="Helvetica,sans-Serif" font-size="14">avoid downsampling</text><text text-anchor="middle" x="721.046" y="-751" font-family="Helvetica,sans-Serif" font-size="14">(reducing resolution)?</text></g><g class="edge"><path fill="none" stroke="#000" d="M821.694-749.674c38.53 13.978 78.644 36.397 101.352 72.074 33.983 53.392 37.6 233.891 0 284.8-32.322 43.764-67.317 13.827-117 36-40.277 17.975-82.172 41.392-119.336 64.028"/><path stroke="#000" d="M688.22-289.593l-10.354 2.247 6.693-8.213 3.661 5.966z"/><text text-anchor="middle" x="842.528" y="-723.888" font-family="Helvetica,sans-Serif" font-size="14">No</text></g><g class="edge"><path fill="none" stroke="#000" d="M713.975-716.182l-4.966 39.198"/><path stroke="#000" d="M712.46-676.374l-4.73 9.48-2.215-10.36 6.945.88z"/><text text-anchor="middle" x="697.979" y="-686.601" font-family="Helvetica,sans-Serif" font-size="14">Yes</text></g><g class="node"><path fill="none" stroke="#000" d="M1578.046-593.5L1415-535.2l163.047 58.3 163.048-58.3-163.048-58.3z"/><text text-anchor="middle" x="1578.046" y="-547.8" font-family="Helvetica,sans-Serif" font-size="14">Do you want to</text><text text-anchor="middle" x="1578.046" y="-531" font-family="Helvetica,sans-Serif" font-size="14">avoid downsampling</text><text text-anchor="middle" x="1578.046" y="-514.2" font-family="Helvetica,sans-Serif" font-size="14">(reducing resolution)?</text></g><g class="edge"><path fill="none" stroke="#000" d="M1578.046-476.876v430.58"/><path stroke="#000" d="M1581.546-46.252l-3.5 10-3.5-10h7z"/><text text-anchor="middle" x="1565.368" y="-445.487" font-family="Helvetica,sans-Serif" font-size="14">No</text></g><g class="edge"><path fill="none" stroke="#000" d="M1522.394-496.648c-49.593 32.547-125.27 77.88-197.348 103.848-84.559 30.466-120.852-8.4-199 36-37.386 21.24-69.014 58.099-90.97 88.995"/><path stroke="#000" d="M1037.724-265.482l-8.581 6.215 2.832-10.21 5.749 3.995z"/><text text-anchor="middle" x="1492.679" y="-488.32" font-family="Helvetica,sans-Serif" font-size="14">Yes</text></g><g class="edge"><path fill="none" stroke="#000" d="M910.006-1623.754l124.143 116.603"/><path stroke="#000" d="M1036.806-1509.457l4.893 9.398-9.685-4.295 4.792-5.103z"/><text text-anchor="middle" x="921.144" y="-1591.698" font-family="Helvetica,sans-Serif" font-size="14">Yes</text></g><g class="edge"><path fill="none" stroke="#000" d="M868.07-1597.05c13.245 172.243 38.891 604.188-25.024 730.65-10.781 21.332-28.874 39.264-47.869 53.573"/><path stroke="#000" d="M797.155-809.937L787-806.917l6.054-8.694 4.1 5.674z"/><text text-anchor="middle" x="857.378" y="-1564.82" font-family="Helvetica,sans-Serif" font-size="14">No</text></g><g class="node"><path fill="none" stroke="#000" d="M1578.046-830.3l-84.448 58.3 84.448 58.3 84.448-58.3-84.448-58.3z"/><text text-anchor="middle" x="1578.046" y="-784.6" font-family="Helvetica,sans-Serif" font-size="14">Are you</text><text text-anchor="middle" x="1578.046" y="-767.8" font-family="Helvetica,sans-Serif" font-size="14">sending a</text><text text-anchor="middle" x="1578.046" y="-751" font-family="Helvetica,sans-Serif" font-size="14">video?</text></g><g class="edge"><path fill="none" stroke="#000" d="M1639.583-755.803c39.106 13.832 86.694 38.044 110.463 78.203 64.472 108.928 27.02 161.14 0 284.8-30.391 139.091-117.355 288.252-154.661 347.908"/><path stroke="#000" d="M1598.135-42.692l-8.295 6.59 2.375-10.325 5.92 3.735z"/><text text-anchor="middle" x="1660.615" y="-730.21" font-family="Helvetica,sans-Serif" font-size="14">No</text></g><g class="edge"><path fill="none" stroke="#000" d="M1578.046-713.465v109.523"/><path stroke="#000" d="M1581.546-603.882l-3.5 10-3.5-10h7z"/><text text-anchor="middle" x="1565.368" y="-682.076" font-family="Helvetica,sans-Serif" font-size="14">Yes</text></g><g class="edge"><path fill="none" stroke="#000" d="M569.713-1076.165c-5.532 59.116-5.278 144.906 29.333 209.765 11.253 21.087 29.488 38.945 48.47 53.262"/><path stroke="#000" d="M649.636-815.924l6.042 8.704-10.15-3.037 4.108-5.667z"/><text text-anchor="middle" x="554.937" y="-1045.857" font-family="Helvetica,sans-Serif" font-size="14">Yes</text></g><g class="node"><path fill="none" stroke="#000" d="M721.046-1017l-113.033 75.4 113.033 75.4 113.034-75.4-113.034-75.4z"/><text text-anchor="middle" x="721.046" y="-962.6" font-family="Helvetica,sans-Serif" font-size="14">Do the</text><text text-anchor="middle" x="721.046" y="-945.8" font-family="Helvetica,sans-Serif" font-size="14">recipients</text><text text-anchor="middle" x="721.046" y="-929" font-family="Helvetica,sans-Serif" font-size="14">have an Apple</text><text text-anchor="middle" x="721.046" y="-912.2" font-family="Helvetica,sans-Serif" font-size="14">device?</text></g><g class="edge"><path fill="none" stroke="#000" d="M615.991-1092.998l63.335 91.273"/><path stroke="#000" d="M682.341-1003.518l2.826 10.21-8.577-6.22 5.751-3.99z"/><text text-anchor="middle" x="621.075" y="-1059.232" font-family="Helvetica,sans-Serif" font-size="14">No</text></g><g class="edge"><path fill="none" stroke="#000" d="M1089.497-899.563c-20.033 19.158-41.558 43.322-55.45 69.163-32.993 61.363-21.311 84.488-35 152.8-25.238 125.934 35.701 188.25-49 284.8-35.6 40.579-81.53-5.543-116 36-81.368 98.063 55.347 192.976-33 284.8-34.266 35.614-167.19 21.832-230.887 36.591"/><path stroke="#000" d="M570.765-31.945l-10.57-.72 8.712-6.03 1.858 6.75z"/><text text-anchor="middle" x="1061.178" y="-885.461" font-family="Helvetica,sans-Serif" font-size="14">Yes</text></g><g class="node"><path fill="none" stroke="#000" d="M1147.046-830.3L1043.214-772l103.832 58.3 103.832-58.3-103.832-58.3z"/><text text-anchor="middle" x="1147.046" y="-784.6" font-family="Helvetica,sans-Serif" font-size="14">Are you</text><text text-anchor="middle" x="1147.046" y="-767.8" font-family="Helvetica,sans-Serif" font-size="14">using an iOS</text><text text-anchor="middle" x="1147.046" y="-751" font-family="Helvetica,sans-Serif" font-size="14">device?</text></g><g class="edge"><path fill="none" stroke="#000" d="M1143.076-868.197l1.192 28.887"/><path stroke="#000" d="M1147.772-839.29l-3.085 10.135-3.91-9.847 6.995-.288z"/><text text-anchor="middle" x="1131.529" y="-836.308" font-family="Helvetica,sans-Serif" font-size="14">No</text></g><g class="edge"><path fill="none" stroke="#000" d="M721.046-866.223v25.696"/><path stroke="#000" d="M724.546-840.344l-3.5 10-3.5-10h7z"/><text text-anchor="middle" x="708.368" y="-834.834" font-family="Helvetica,sans-Serif" font-size="14">No</text></g><g class="edge"><path fill="none" stroke="#000" d="M791.87-913.404l284.84 113.402"/><path stroke="#000" d="M1078.079-803.225l7.996 6.951-10.586-.447 2.59-6.504z"/><text text-anchor="middle" x="812.441" y="-887.367" font-family="Helvetica,sans-Serif" font-size="14">Yes</text></g><g class="edge"><path fill="none" stroke="#000" d="M974.27-169.81C951.193-136.919 915.22-94.18 872.046-72c-117.8 60.517-170.59.068-302.265 36.438"/><path stroke="#000" d="M570.74-32.196l-10.578-.577 8.63-6.146 1.949 6.723z"/><text text-anchor="middle" x="948.086" y="-150.969" font-family="Helvetica,sans-Serif" font-size="14">Yes</text></g><g class="edge"><path fill="none" stroke="#000" d="M1002.046-156.005v109.87"/><path stroke="#000" d="M1005.546-46.055l-3.5 10-3.5-10h7z"/><text text-anchor="middle" x="989.368" y="-124.616" font-family="Helvetica,sans-Serif" font-size="14">No</text></g><g class="edge"><path fill="none" stroke="#000" d="M1215.508-751.875c37.896 14.62 82.64 38.263 109.538 74.275 87.057 116.55 50.483 176.051 65 320.8 12.631 125.946 50.015 168.523 0 284.8-4.749 11.041-12.988 20.882-21.75 29.04"/><path stroke="#000" d="M1370.385-40.139l-9.85 3.904 5.266-9.194 4.584 5.29z"/><text text-anchor="middle" x="1235.978" y="-725.744" font-family="Helvetica,sans-Serif" font-size="14">Yes</text></g><g class="node"><path fill="none" stroke="#000" d="M1162.046-627.2l-154.445 92 154.445 92 154.445-92-154.445-92z"/><text text-anchor="middle" x="1162.046" y="-564.6" font-family="Helvetica,sans-Serif" font-size="14">Do you want to avoid</text><text text-anchor="middle" x="1162.046" y="-547.8" font-family="Helvetica,sans-Serif" font-size="14">coverting lossless</text><text text-anchor="middle" x="1162.046" y="-531" font-family="Helvetica,sans-Serif" font-size="14">images to lossy</text><text text-anchor="middle" x="1162.046" y="-514.2" font-family="Helvetica,sans-Serif" font-size="14">images (e.g. PNG to</text><text text-anchor="middle" x="1162.046" y="-497.4" font-family="Helvetica,sans-Serif" font-size="14">JPEG)?</text></g><g class="edge"><path fill="none" stroke="#000" d="M1150.62-715.581l5.156 81.391"/><path stroke="#000" d="M1159.28-634.235l-2.86 10.202-4.126-9.76 6.986-.442z"/><text text-anchor="middle" x="1139.686" y="-683.445" font-family="Helvetica,sans-Serif" font-size="14">No</text></g><g class="edge"><path fill="none" stroke="#000" d="M1105.02-476.697c-30.64 28.657-70.391 61.684-110.974 83.897-47.725 26.122-81.492-5.221-117 36-83.547 96.99 48.187 194.955-43 284.8-40.349 39.755-192.933 20.51-263.998 36.631"/><path stroke="#000" d="M570.742-31.931l-10.565-.791 8.752-5.97 1.813 6.76z"/><text text-anchor="middle" x="1076.432" y="-463.398" font-family="Helvetica,sans-Serif" font-size="14">Yes</text></g><g class="node"><path fill="none" stroke="#000" d="M1258.046-289.8l-122.706 75.4 122.706 75.4 122.706-75.4-122.706-75.4z"/><text text-anchor="middle" x="1258.046" y="-235.4" font-family="Helvetica,sans-Serif" font-size="14">Are you sharing</text><text text-anchor="middle" x="1258.046" y="-218.6" font-family="Helvetica,sans-Serif" font-size="14">both videos and</text><text text-anchor="middle" x="1258.046" y="-201.8" font-family="Helvetica,sans-Serif" font-size="14">&apos;Live Photos&apos;</text><text text-anchor="middle" x="1258.046" y="-185" font-family="Helvetica,sans-Serif" font-size="14">the same time?</text></g><g class="edge"><path fill="none" stroke="#000" d="M1185.53-456.724l50.433 168.528"/><path stroke="#000" d="M1239.398-288.923l-.486 10.583-6.22-8.576 6.706-2.007z"/><text text-anchor="middle" x="1181.179" y="-422.841" font-family="Helvetica,sans-Serif" font-size="14">No</text></g><g class="edge"><path fill="none" stroke="#000" d="M1360.032-1079.863l184.38 260.368"/><path stroke="#000" d="M1547.28-821.501l2.923 10.183-8.635-6.138 5.712-4.045z"/><text text-anchor="middle" x="1365.398" y="-1046.147" font-family="Helvetica,sans-Serif" font-size="14">No</text></g><g class="edge"><path fill="none" stroke="#000" d="M1261.84-1083.833l-73.757 86.135"/><path stroke="#000" d="M1190.605-995.262l-9.163 5.32 3.846-9.873 5.317 4.553z"/><text text-anchor="middle" x="1234.526" y="-1067.227" font-family="Helvetica,sans-Serif" font-size="14">Yes</text></g><g class="edge"><path fill="none" stroke="#000" d="M1223.776-159.992c-23.142 31.612-56.72 68.875-96.73 87.992-109.379 52.264-422.261 5.95-557.145 36.614"/><path stroke="#000" d="M570.666-31.97l-10.551-.967 8.85-5.823 1.7 6.79z"/><text text-anchor="middle" x="1197.292" y="-141.7" font-family="Helvetica,sans-Serif" font-size="14">Yes</text></g><g class="edge"><path fill="none" stroke="#000" d="M1281.468-153.066l40.946 107.223"/><path stroke="#000" d="M1325.733-46.962l.298 10.59-6.838-8.093 6.54-2.497z"/><text text-anchor="middle" x="1279.323" y="-118.942" font-family="Helvetica,sans-Serif" font-size="14">No</text></g></g></svg>