<svg width="2064" height="2999pt" viewBox="0 0 1547.86 2999.2" xmlns="http://www.w3.org/2000/svg"><g class="graph" transform="translate(4 2995.2)"><path fill="#fff" stroke="transparent" d="M-4 4v-2999.2h1547.855V4H-4z"/><g class="node"><path fill="none" stroke="#000" d="M250.115-2987.2H33.977c-6 0-12 6-12 12v12c0 6 6 12 12 12h216.138c6 0 12-6 12-12v-12c0-6-6-12-12-12"/><path fill="none" stroke="#000" d="M254.116-2991.2H29.976c-6 0-12 6-12 12v20c0 6 6 12 12 12h224.14c6 0 12-6 12-12v-20c0-6-6-12-12-12"/><text text-anchor="middle" x="142.046" y="-2965" font-family="Helvetica,sans-Serif" font-size="14">I want to share some photos/videos!</text></g><g class="node"><path fill="none" stroke="#000" d="M142.046-2911L-.046-2802.4l142.092 108.6 142.093-108.6L142.046-2911z"/><text text-anchor="middle" x="142.046" y="-2840.2" font-family="Helvetica,sans-Serif" font-size="14">Do you want</text><text text-anchor="middle" x="142.046" y="-2823.4" font-family="Helvetica,sans-Serif" font-size="14">recipients to see</text><text text-anchor="middle" x="142.046" y="-2806.6" font-family="Helvetica,sans-Serif" font-size="14">any retouching you</text><text text-anchor="middle" x="142.046" y="-2789.8" font-family="Helvetica,sans-Serif" font-size="14">do after the</text><text text-anchor="middle" x="142.046" y="-2773" font-family="Helvetica,sans-Serif" font-size="14">photos/videos are</text><text text-anchor="middle" x="142.046" y="-2756.2" font-family="Helvetica,sans-Serif" font-size="14">shared?</text></g><g class="edge"><path fill="none" stroke="#000" d="M142.046-2947.05v25.706"/><path stroke="#000" d="M145.546-2921.14l-3.5 10-3.5-10h7z"/></g><g class="node"><path fill="none" stroke="#000" stroke-width="4" d="M357.046-36h-30c-6 0-12 6-12 12v12c0 6 6 12 12 12h30c6 0 12-6 12-12v-12c0-6-6-12-12-12"/><text text-anchor="middle" x="342.046" y="-13.8" font-family="Helvetica,sans-Serif" font-size="14">SOL</text></g><g class="node"><path fill="none" stroke="#000" stroke-width="4" d="M518.046-36h-30c-6 0-12 6-12 12v12c0 6 6 12 12 12h30c6 0 12-6 12-12v-12c0-6-6-12-12-12"/><text text-anchor="middle" x="503.046" y="-13.8" font-family="Helvetica,sans-Serif" font-size="14">icps</text></g><g class="node"><path fill="none" stroke="#000" stroke-width="4" d="M1379.606-36h-35.12c-6 0-12 6-12 12v12c0 6 6 12 12 12h35.12c6 0 12-6 12-12v-12c0-6-6-12-12-12"/><text text-anchor="middle" x="1362.046" y="-13.8" font-family="Helvetica,sans-Serif" font-size="14">airdrop</text></g><g class="node"><path fill="none" stroke="#000" stroke-width="4" d="M1521.944-36h-51.795c-6 0-12 6-12 12v12c0 6 6 12 12 12h51.795c6 0 12-6 12-12v-12c0-6-6-12-12-12"/><text text-anchor="middle" x="1496.046" y="-13.8" font-family="Helvetica,sans-Serif" font-size="14">imessage</text></g><g class="node"><path fill="none" stroke="#000" stroke-width="4" d="M1277.046-36h-30c-6 0-12 6-12 12v12c0 6 6 12 12 12h30c6 0 12-6 12-12v-12c0-6-6-12-12-12"/><text text-anchor="middle" x="1262.046" y="-13.8" font-family="Helvetica,sans-Serif" font-size="14">email</text></g><g class="edge"><path fill="none" stroke="#000" d="M102.998-2723.54c-8.911 20.979-17.385 43.936-22.952 65.94-35.987 142.259-30 182.06-30 328.8v1844c0 183.83-94.759 274.197 26 412.8 29.53 33.894 162.793 47.26 228.766 51.871"/><path stroke="#000" d="M305.051-23.62l9.745 4.158-10.211 2.826.466-6.985z"/><text text-anchor="middle" x="80.805" y="-2699.154" font-family="Helvetica,sans-Serif" font-size="14">Yes</text></g><g class="node"><path fill="none" stroke="#000" d="M234.046-2657.6l-145.334 92 145.334 92 145.334-92-145.334-92z"/><text text-anchor="middle" x="234.046" y="-2595" font-family="Helvetica,sans-Serif" font-size="14">Do you want the</text><text text-anchor="middle" x="234.046" y="-2578.2" font-family="Helvetica,sans-Serif" font-size="14">photos/videos to be</text><text text-anchor="middle" x="234.046" y="-2561.4" font-family="Helvetica,sans-Serif" font-size="14">fully editable (as</text><text text-anchor="middle" x="234.046" y="-2544.6" font-family="Helvetica,sans-Serif" font-size="14">if the recipients</text><text text-anchor="middle" x="234.046" y="-2527.8" font-family="Helvetica,sans-Serif" font-size="14">took them)?</text></g><g class="edge"><path fill="none" stroke="#000" d="M174.611-2718.58l27.03 69.572"/><path stroke="#000" d="M204.99-2650.052l.36 10.588-6.885-8.053 6.525-2.535z"/><text text-anchor="middle" x="172.64" y="-2684.445" font-family="Helvetica,sans-Serif" font-size="14">No</text></g><g class="node"><path fill="none" stroke="#000" d="M234.046-2437.4L77.931-2328.8l156.115 108.6 156.115-108.6-156.115-108.6z"/><text text-anchor="middle" x="234.046" y="-2366.6" font-family="Helvetica,sans-Serif" font-size="14">Do you want to share</text><text text-anchor="middle" x="234.046" y="-2349.8" font-family="Helvetica,sans-Serif" font-size="14">&apos;Portrait&apos;, &apos;Burst&apos;,</text><text text-anchor="middle" x="234.046" y="-2333" font-family="Helvetica,sans-Serif" font-size="14">or &apos;Slo-mo&apos;</text><text text-anchor="middle" x="234.046" y="-2316.2" font-family="Helvetica,sans-Serif" font-size="14">photos/videos so that</text><text text-anchor="middle" x="234.046" y="-2299.4" font-family="Helvetica,sans-Serif" font-size="14">the recipients can</text><text text-anchor="middle" x="234.046" y="-2282.6" font-family="Helvetica,sans-Serif" font-size="14">edit them?</text></g><g class="edge"><path fill="none" stroke="#000" d="M234.046-2473.369v25.576"/><path stroke="#000" d="M237.546-2447.719l-3.5 10-3.5-10h7z"/><text text-anchor="middle" x="221.368" y="-2441.98" font-family="Helvetica,sans-Serif" font-size="14">Yes</text></g><g class="node"><path fill="none" stroke="#000" d="M417.046-2184.2l-94.667 75.4 94.667 75.4 94.667-75.4-94.667-75.4z"/><text text-anchor="middle" x="417.046" y="-2129.8" font-family="Helvetica,sans-Serif" font-size="14">Do you have</text><text text-anchor="middle" x="417.046" y="-2113" font-family="Helvetica,sans-Serif" font-size="14">multiple</text><text text-anchor="middle" x="417.046" y="-2096.2" font-family="Helvetica,sans-Serif" font-size="14">photos to</text><text text-anchor="middle" x="417.046" y="-2079.4" font-family="Helvetica,sans-Serif" font-size="14">share?</text></g><g class="edge"><path fill="none" stroke="#000" d="M314.038-2523.8c32.216 21.242 66.155 50.237 85.008 86.2 41.175 78.542 39.06 182.624 31 252.457"/><path stroke="#000" d="M433.505-2184.597l-4.688 9.502-2.26-10.351 6.947.85z"/><text text-anchor="middle" x="329.377" y="-2493.817" font-family="Helvetica,sans-Serif" font-size="14">No</text></g><g class="edge"><path fill="none" stroke="#000" d="M189.647-2250.838c-42.954 82.883-101.6 219.135-101.6 345.238v1420.8c0 91.93-32.313 342.565 27 412.8 24.112 28.554 131.392 44 189.425 50.4"/><path stroke="#000" d="M305.131-25.05l9.573 4.54-10.315 2.42.742-6.96z"/><text text-anchor="middle" x="166.101" y="-2228.047" font-family="Helvetica,sans-Serif" font-size="14">Yes</text></g><g class="edge"><path fill="none" stroke="#000" d="M291.446-2259.794l81.356 97.804"/><path stroke="#000" d="M375.495-2164.226l3.704 9.926-9.086-5.45 5.382-4.476z"/><text text-anchor="middle" x="299.087" y="-2226.583" font-family="Helvetica,sans-Serif" font-size="14">No</text></g><g class="node"><path fill="none" stroke="#000" d="M417.046-1997.6l-151.288 92 151.288 92 151.288-92-151.288-92z"/><text text-anchor="middle" x="417.046" y="-1935" font-family="Helvetica,sans-Serif" font-size="14">Do you want to share</text><text text-anchor="middle" x="417.046" y="-1918.2" font-family="Helvetica,sans-Serif" font-size="14">a collection of</text><text text-anchor="middle" x="417.046" y="-1901.4" font-family="Helvetica,sans-Serif" font-size="14">photos that you (and</text><text text-anchor="middle" x="417.046" y="-1884.6" font-family="Helvetica,sans-Serif" font-size="14">possibly others) can</text><text text-anchor="middle" x="417.046" y="-1867.8" font-family="Helvetica,sans-Serif" font-size="14">add to over time?</text></g><g class="edge"><path fill="none" stroke="#000" d="M417.046-2033.425v25.6"/><path stroke="#000" d="M420.546-2007.716l-3.5 10-3.5-10h7z"/><text text-anchor="middle" x="404.368" y="-2002.035" font-family="Helvetica,sans-Serif" font-size="14">Yes</text></g><g class="node"><path fill="none" stroke="#000" d="M705.046-1981l-118.869 75.4 118.87 75.4 118.868-75.4-118.869-75.4z"/><text text-anchor="middle" x="705.046" y="-1926.6" font-family="Helvetica,sans-Serif" font-size="14">Do the</text><text text-anchor="middle" x="705.046" y="-1909.8" font-family="Helvetica,sans-Serif" font-size="14">recipients have</text><text text-anchor="middle" x="705.046" y="-1893" font-family="Helvetica,sans-Serif" font-size="14">iMessage (blue</text><text text-anchor="middle" x="705.046" y="-1876.2" font-family="Helvetica,sans-Serif" font-size="14">bubbles)?</text></g><g class="edge"><path fill="none" stroke="#000" d="M467.991-2073.698c31.506 21.784 72.73 50.423 109.055 76.098 20.919 14.785 43.652 31.058 64.077 45.754"/><path stroke="#000" d="M643.354-1954.553l6.07 8.684-10.16-3.004 4.09-5.68z"/><text text-anchor="middle" x="483.137" y="-2043.602" font-family="Helvetica,sans-Serif" font-size="14">No</text></g><g class="node"><path fill="none" stroke="#000" d="M279.046-729.5L116-671.2l163.047 58.3 163.048-58.3-163.048-58.3z"/><text text-anchor="middle" x="279.046" y="-683.8" font-family="Helvetica,sans-Serif" font-size="14">Do you want to</text><text text-anchor="middle" x="279.046" y="-667" font-family="Helvetica,sans-Serif" font-size="14">avoid downsampling</text><text text-anchor="middle" x="279.046" y="-650.2" font-family="Helvetica,sans-Serif" font-size="14">(reducing resolution)?</text></g><g class="edge"><path fill="none" stroke="#000" d="M352.892-1852.196c-20.646 20.951-41.183 46.676-52.846 74.596-70.806 169.51-21 229.096-21 412.8v625.064"/><path stroke="#000" d="M282.546-739.703l-3.5 10-3.5-10h7z"/><text text-anchor="middle" x="324.906" y="-1837.192" font-family="Helvetica,sans-Serif" font-size="14">Yes</text></g><g class="node"><path fill="none" stroke="#000" d="M423.046-1710.6l-114.039 75.4 114.04 75.4 114.038-75.4-114.039-75.4z"/><text text-anchor="middle" x="423.046" y="-1656.2" font-family="Helvetica,sans-Serif" font-size="14">Are the</text><text text-anchor="middle" x="423.046" y="-1639.4" font-family="Helvetica,sans-Serif" font-size="14">recipients in a</text><text text-anchor="middle" x="423.046" y="-1622.6" font-family="Helvetica,sans-Serif" font-size="14">different</text><text text-anchor="middle" x="423.046" y="-1605.8" font-family="Helvetica,sans-Serif" font-size="14">location?</text></g><g class="edge"><path fill="none" stroke="#000" d="M419.06-1814.809l2.112 95.15"/><path stroke="#000" d="M424.673-1719.645l-3.277 10.075-3.721-9.92 6.998-.155z"/><text text-anchor="middle" x="406.988" y="-1783.145" font-family="Helvetica,sans-Serif" font-size="14">No</text></g><g class="node"><path fill="none" stroke="#000" d="M503.046-356.7L280.198-214.4 503.046-72.1l222.849-142.3-222.849-142.3z"/><text text-anchor="middle" x="503.046" y="-269" font-family="Helvetica,sans-Serif" font-size="14">Do you want to avoid type</text><text text-anchor="middle" x="503.046" y="-252.2" font-family="Helvetica,sans-Serif" font-size="14">conversion (e.g. recompression</text><text text-anchor="middle" x="503.046" y="-235.4" font-family="Helvetica,sans-Serif" font-size="14">due to HEIF to JPEG</text><text text-anchor="middle" x="503.046" y="-218.6" font-family="Helvetica,sans-Serif" font-size="14">conversion) as much as</text><text text-anchor="middle" x="503.046" y="-201.8" font-family="Helvetica,sans-Serif" font-size="14">possible? (Photos will always</text><text text-anchor="middle" x="503.046" y="-185" font-family="Helvetica,sans-Serif" font-size="14">send certain items like</text><text text-anchor="middle" x="503.046" y="-168.2" font-family="Helvetica,sans-Serif" font-size="14">editted photos and &apos;Portrait&apos;</text><text text-anchor="middle" x="503.046" y="-151.4" font-family="Helvetica,sans-Serif" font-size="14">photos as JPEG.)</text></g><g class="edge"><path fill="none" stroke="#000" d="M426.318-120.802l-62.92 76.755"/><path stroke="#000" d="M365.924-41.607l-9.047 5.515 3.633-9.953 5.414 4.438z"/><text text-anchor="middle" x="399.276" y="-103.612" font-family="Helvetica,sans-Serif" font-size="14">Yes</text></g><g class="edge"><path fill="none" stroke="#000" d="M503.046-71.927v25.467"/><path stroke="#000" d="M506.546-46.309l-3.5 10-3.5-10h7z"/><text text-anchor="middle" x="490.368" y="-40.538" font-family="Helvetica,sans-Serif" font-size="14">No</text></g><g class="node"><path fill="none" stroke="#000" d="M569.046-1050.3L346.198-908l222.848 142.3L791.895-908l-222.849-142.3z"/><text text-anchor="middle" x="569.046" y="-962.6" font-family="Helvetica,sans-Serif" font-size="14">Do you want to avoid type</text><text text-anchor="middle" x="569.046" y="-945.8" font-family="Helvetica,sans-Serif" font-size="14">conversion (e.g. recompression</text><text text-anchor="middle" x="569.046" y="-929" font-family="Helvetica,sans-Serif" font-size="14">due to HEIF to JPEG</text><text text-anchor="middle" x="569.046" y="-912.2" font-family="Helvetica,sans-Serif" font-size="14">conversion) as much as</text><text text-anchor="middle" x="569.046" y="-895.4" font-family="Helvetica,sans-Serif" font-size="14">possible? (Photos will always</text><text text-anchor="middle" x="569.046" y="-878.6" font-family="Helvetica,sans-Serif" font-size="14">send certain items like</text><text text-anchor="middle" x="569.046" y="-861.8" font-family="Helvetica,sans-Serif" font-size="14">editted photos and &apos;Portrait&apos;</text><text text-anchor="middle" x="569.046" y="-845" font-family="Helvetica,sans-Serif" font-size="14">photos as JPEG.)</text></g><g class="edge"><path fill="none" stroke="#000" d="M548.029-778.931c-16.417 59.52-45.52 125.767-96.983 166.131-90.406 70.909-180.23-50.374-256 36-22.006 25.086-25.545 471.224-2 504.8 13.152 18.755 72.228 35.957 111.925 45.692"/><path stroke="#000" d="M305.946-29.674l8.908 5.735-10.54 1.073 1.632-6.808z"/><text text-anchor="middle" x="528.177" y="-752.238" font-family="Helvetica,sans-Serif" font-size="14">Yes</text></g><g class="node"><path fill="none" stroke="#000" d="M780.046-729.5l-115.594 58.3 115.594 58.3 115.594-58.3-115.594-58.3z"/><text text-anchor="middle" x="780.046" y="-683.8" font-family="Helvetica,sans-Serif" font-size="14">Are you</text><text text-anchor="middle" x="780.046" y="-667" font-family="Helvetica,sans-Serif" font-size="14">sharing any</text><text text-anchor="middle" x="780.046" y="-650.2" font-family="Helvetica,sans-Serif" font-size="14">&apos;Live Photos&apos;?</text></g><g class="edge"><path fill="none" stroke="#000" d="M650.02-817.124l87.309 97.983"/><path stroke="#000" d="M740.154-721.231l4.04 9.794-9.267-5.138 5.227-4.656z"/><text text-anchor="middle" x="658.643" y="-784.19" font-family="Helvetica,sans-Serif" font-size="14">No</text></g><g class="node"><path fill="none" stroke="#000" d="M956.046-1777.5l-222.848 142.3 222.848 142.3 222.849-142.3-222.849-142.3z"/><text text-anchor="middle" x="956.046" y="-1689.8" font-family="Helvetica,sans-Serif" font-size="14">Do you want to avoid type</text><text text-anchor="middle" x="956.046" y="-1673" font-family="Helvetica,sans-Serif" font-size="14">conversion (e.g. recompression</text><text text-anchor="middle" x="956.046" y="-1656.2" font-family="Helvetica,sans-Serif" font-size="14">due to HEIF to JPEG</text><text text-anchor="middle" x="956.046" y="-1639.4" font-family="Helvetica,sans-Serif" font-size="14">conversion) as much as</text><text text-anchor="middle" x="956.046" y="-1622.6" font-family="Helvetica,sans-Serif" font-size="14">possible? (Photos will always</text><text text-anchor="middle" x="956.046" y="-1605.8" font-family="Helvetica,sans-Serif" font-size="14">send certain items like</text><text text-anchor="middle" x="956.046" y="-1589" font-family="Helvetica,sans-Serif" font-size="14">editted photos and &apos;Portrait&apos;</text><text text-anchor="middle" x="956.046" y="-1572.2" font-family="Helvetica,sans-Serif" font-size="14">photos as JPEG.)</text></g><g class="node"><path fill="none" stroke="#000" d="M956.046-1237l-114.039 75.4 114.04 75.4 114.038-75.4-114.039-75.4z"/><text text-anchor="middle" x="956.046" y="-1182.6" font-family="Helvetica,sans-Serif" font-size="14">Are the</text><text text-anchor="middle" x="956.046" y="-1165.8" font-family="Helvetica,sans-Serif" font-size="14">recipients in a</text><text text-anchor="middle" x="956.046" y="-1149" font-family="Helvetica,sans-Serif" font-size="14">different</text><text text-anchor="middle" x="956.046" y="-1132.2" font-family="Helvetica,sans-Serif" font-size="14">location?</text></g><g class="edge"><path fill="none" stroke="#000" d="M956.046-1492.783v245.687"/><path stroke="#000" d="M959.546-1246.805l-3.5 10-3.5-10h7z"/><text text-anchor="middle" x="943.368" y="-1461.394" font-family="Helvetica,sans-Serif" font-size="14">Yes</text></g><g class="node"><path fill="none" stroke="#000" d="M1138.046-1456.8l-154.445 92 154.445 92 154.445-92-154.445-92z"/><text text-anchor="middle" x="1138.046" y="-1394.2" font-family="Helvetica,sans-Serif" font-size="14">Do you want to avoid</text><text text-anchor="middle" x="1138.046" y="-1377.4" font-family="Helvetica,sans-Serif" font-size="14">coverting lossless</text><text text-anchor="middle" x="1138.046" y="-1360.6" font-family="Helvetica,sans-Serif" font-size="14">images to lossy</text><text text-anchor="middle" x="1138.046" y="-1343.8" font-family="Helvetica,sans-Serif" font-size="14">images (e.g. PNG to</text><text text-anchor="middle" x="1138.046" y="-1327" font-family="Helvetica,sans-Serif" font-size="14">JPEG)?</text></g><g class="edge"><path fill="none" stroke="#000" d="M1023.04-1535.665l64.716 96.149"/><path stroke="#000" d="M1090.898-1441.116l2.68 10.25-8.487-6.342 5.807-3.908z"/><text text-anchor="middle" x="1027.705" y="-1501.83" font-family="Helvetica,sans-Serif" font-size="14">No</text></g><g class="node"><path fill="none" stroke="#000" d="M352.046-576.8L204-484.8l148.047 92 148.047-92-148.047-92z"/><text text-anchor="middle" x="352.046" y="-514.2" font-family="Helvetica,sans-Serif" font-size="14">Do you want to be</text><text text-anchor="middle" x="352.046" y="-497.4" font-family="Helvetica,sans-Serif" font-size="14">able to reorder the</text><text text-anchor="middle" x="352.046" y="-480.6" font-family="Helvetica,sans-Serif" font-size="14">photos/videos in the</text><text text-anchor="middle" x="352.046" y="-463.8" font-family="Helvetica,sans-Serif" font-size="14">shared collection</text><text text-anchor="middle" x="352.046" y="-447" font-family="Helvetica,sans-Serif" font-size="14">after sharing them?</text></g><g class="edge"><path fill="none" stroke="#000" d="M289.04-431.741c-20.298 21.004-40.299 46.853-50.994 74.941-45.04 118.293-65.722 176.622 0 284.8 14.512 23.886 43.397 37.686 67.05 45.347"/><path stroke="#000" d="M306.279-29.953l8.577 6.219-10.583.488 2.005-6.707z"/><text text-anchor="middle" x="261.167" y="-416.447" font-family="Helvetica,sans-Serif" font-size="14">Yes</text></g><g class="edge"><path fill="none" stroke="#000" d="M390.345-416.217l49.098 87.92"/><path stroke="#000" d="M442.54-329.928l1.82 10.437-7.931-7.024 6.111-3.413z"/><text text-anchor="middle" x="392.532" y="-382.097" font-family="Helvetica,sans-Serif" font-size="14">No</text></g><g class="edge"><path fill="none" stroke="#000" d="M215.124-635.667c-20.894 15.179-41.652 34.967-53.078 58.867-48.384 101.207-66.962 414.8 0 504.8 17.101 22.984 95.445 39.846 142.96 48.17"/><path stroke="#000" d="M305.663-27.27l9.269 5.133-10.447 1.768 1.178-6.9z"/><text text-anchor="middle" x="185.766" y="-625.295" font-family="Helvetica,sans-Serif" font-size="14">Yes</text></g><g class="edge"><path fill="none" stroke="#000" d="M299.187-619.772l20.002 51.074"/><path stroke="#000" d="M322.565-569.675l.388 10.587-6.906-8.034 6.518-2.553z"/><text text-anchor="middle" x="297.296" y="-585.632" font-family="Helvetica,sans-Serif" font-size="14">No</text></g><g class="node"><path fill="none" stroke="#000" d="M564.046-1219.9L401-1161.6l163.047 58.3 163.048-58.3-163.048-58.3z"/><text text-anchor="middle" x="564.046" y="-1174.2" font-family="Helvetica,sans-Serif" font-size="14">Do you want to</text><text text-anchor="middle" x="564.046" y="-1157.4" font-family="Helvetica,sans-Serif" font-size="14">avoid downsampling</text><text text-anchor="middle" x="564.046" y="-1140.6" font-family="Helvetica,sans-Serif" font-size="14">(reducing resolution)?</text></g><g class="edge"><path fill="none" stroke="#000" d="M464.395-1138.931c-47.215 16.282-99.307 43.569-127.349 88.531-33.491 53.7-37.412 233.753 0 284.8 31.409 42.856 75.376-.487 114 36 52.804 49.882 44.896 81.353 58 152.8 13.092 71.38 13.17 151.998 9.303 219.042"/><path stroke="#000" d="M521.828-357.31l-4.104 9.767-2.883-10.196 6.987.428z"/><text text-anchor="middle" x="434.505" y="-1137.303" font-family="Helvetica,sans-Serif" font-size="14">No</text></g><g class="edge"><path fill="none" stroke="#000" d="M565.193-1103.419l.875 44.377"/><path stroke="#000" d="M569.574-1058.77l-3.302 10.066-3.697-9.929 7-.138z"/><text text-anchor="middle" x="553.053" y="-1071.785" font-family="Helvetica,sans-Serif" font-size="14">Yes</text></g><g class="node"><path fill="none" stroke="#000" d="M1288.046-966.3L1125-908l163.047 58.3 163.048-58.3-163.048-58.3z"/><text text-anchor="middle" x="1288.046" y="-920.6" font-family="Helvetica,sans-Serif" font-size="14">Do you want to</text><text text-anchor="middle" x="1288.046" y="-903.8" font-family="Helvetica,sans-Serif" font-size="14">avoid downsampling</text><text text-anchor="middle" x="1288.046" y="-887" font-family="Helvetica,sans-Serif" font-size="14">(reducing resolution)?</text></g><g class="edge"><path fill="none" stroke="#000" d="M1346.185-870.386c43.389 31.724 99.534 81.399 125.861 140.786 55.508 125.21 32.9 566.863 25.823 683.291"/><path stroke="#000" d="M1501.347-45.843l-4.111 9.764-2.875-10.197 6.986.433z"/><text text-anchor="middle" x="1360.292" y="-839.709" font-family="Helvetica,sans-Serif" font-size="14">No</text></g><g class="edge"><path fill="none" stroke="#000" d="M1236.562-868.052c-42.12 31.206-104.207 73.924-163.516 102.452-66.037 31.764-145.39 56.583-204.849 72.785"/><path stroke="#000" d="M869.024-689.413l-10.566-.777 8.744-5.982 1.822 6.759z"/><text text-anchor="middle" x="1207.137" y="-858.008" font-family="Helvetica,sans-Serif" font-size="14">Yes</text></g><g class="edge"><path fill="none" stroke="#000" d="M749.342-1857.88l116.725 125.746"/><path stroke="#000" d="M868.656-1734.49l4.238 9.71-9.369-4.947 5.13-4.763z"/><text text-anchor="middle" x="758.548" y="-1825.128" font-family="Helvetica,sans-Serif" font-size="14">Yes</text></g><g class="edge"><path fill="none" stroke="#000" d="M709.85-1833.188c8.453 144.39 21.124 462.644-23.804 560.388-12.099 26.322-33.665 49.195-55.335 67.239"/><path stroke="#000" d="M632.721-1202.686l-9.982 3.552 5.589-9.002 4.393 5.45z"/><text text-anchor="middle" x="698.657" y="-1801.154" font-family="Helvetica,sans-Serif" font-size="14">No</text></g><g class="node"><path fill="none" stroke="#000" d="M1288.046-1219.9l-84.448 58.3 84.448 58.3 84.448-58.3-84.448-58.3z"/><text text-anchor="middle" x="1288.046" y="-1174.2" font-family="Helvetica,sans-Serif" font-size="14">Are you</text><text text-anchor="middle" x="1288.046" y="-1157.4" font-family="Helvetica,sans-Serif" font-size="14">sending a</text><text text-anchor="middle" x="1288.046" y="-1140.6" font-family="Helvetica,sans-Serif" font-size="14">video?</text></g><g class="edge"><path fill="none" stroke="#000" d="M1342.344-1140.346c38.88 18.068 89.21 47.83 117.702 89.946 96.218 142.223 74 207.488 74 379.2v186.4c0 183.622 20.564 233.061-17 412.8-1.863 8.917-5.037 18.283-8.36 26.664"/><path stroke="#000" d="M1511.881-43.904l-7.095 7.869.64-10.576 6.455 2.707z"/><text text-anchor="middle" x="1361.331" y="-1112.919" font-family="Helvetica,sans-Serif" font-size="14">No</text></g><g class="edge"><path fill="none" stroke="#000" d="M1288.046-1103.1v126.363"/><path stroke="#000" d="M1291.546-976.644l-3.5 10-3.5-10h7z"/><text text-anchor="middle" x="1275.368" y="-1071.711" font-family="Helvetica,sans-Serif" font-size="14">Yes</text></g><g class="edge"><path fill="none" stroke="#000" d="M411.81-1567.03c-9.226 75.757-14.435 199.84 30.236 294.23 12.393 26.186 34.02 49.03 55.658 67.089"/><path stroke="#000" d="M500.085-1208.287l5.574 9.01-9.976-3.568 4.402-5.442z"/><text text-anchor="middle" x="396.286" y="-1537.158" font-family="Helvetica,sans-Serif" font-size="14">Yes</text></g><g class="node"><path fill="none" stroke="#000" d="M564.046-1440.2l-113.033 75.4 113.033 75.4 113.034-75.4-113.034-75.4z"/><text text-anchor="middle" x="564.046" y="-1385.8" font-family="Helvetica,sans-Serif" font-size="14">Do the</text><text text-anchor="middle" x="564.046" y="-1369" font-family="Helvetica,sans-Serif" font-size="14">recipients</text><text text-anchor="middle" x="564.046" y="-1352.2" font-family="Helvetica,sans-Serif" font-size="14">have an Apple</text><text text-anchor="middle" x="564.046" y="-1335.4" font-family="Helvetica,sans-Serif" font-size="14">device?</text></g><g class="edge"><path fill="none" stroke="#000" d="M452.433-1578.844l77.63 148.875"/><path stroke="#000" d="M533.177-1431.568l1.52 10.485-7.727-7.249 6.207-3.236z"/><text text-anchor="middle" x="453.762" y="-1544.674" font-family="Helvetica,sans-Serif" font-size="14">No</text></g><g class="edge"><path fill="none" stroke="#000" d="M900.78-1122.676c-22.861 19.096-47.344 44.068-61.734 72.276-58.03 113.753 47.24 189.713-38 284.8-44.61 49.764-94.96-7.144-146 36-124.598 105.322-16.709 237.295-146 336.8-84.78 65.248-168.239-45.107-238 36-41.27 47.982-28.113 228.098 0 284.8 7.505 15.138 21.51 27.18 35.11 36.017"/><path stroke="#000" d="M308.228-38.819l6.733 8.18-10.364-2.196 3.631-5.984z"/><text text-anchor="middle" x="871.88" y="-1110.427" font-family="Helvetica,sans-Serif" font-size="14">Yes</text></g><g class="node"><path fill="none" stroke="#000" d="M956.046-966.3L848.433-908l107.613 58.3L1063.66-908l-107.613-58.3z"/><text text-anchor="middle" x="956.046" y="-920.6" font-family="Helvetica,sans-Serif" font-size="14">Are you</text><text text-anchor="middle" x="956.046" y="-903.8" font-family="Helvetica,sans-Serif" font-size="14">using an iOS</text><text text-anchor="middle" x="956.046" y="-887" font-family="Helvetica,sans-Serif" font-size="14">device?</text></g><g class="edge"><path fill="none" stroke="#000" d="M956.046-1086.198v109.333"/><path stroke="#000" d="M959.546-976.606l-3.5 10-3.5-10h7z"/><text text-anchor="middle" x="943.368" y="-1054.809" font-family="Helvetica,sans-Serif" font-size="14">No</text></g><g class="edge"><path fill="none" stroke="#000" d="M564.046-1289.425v59.31"/><path stroke="#000" d="M567.546-1230.023l-3.5 10-3.5-10h7z"/><text text-anchor="middle" x="551.368" y="-1258.035" font-family="Helvetica,sans-Serif" font-size="14">No</text></g><g class="edge"><path fill="none" stroke="#000" d="M623.2-1328.523c35.281 23.426 79.54 56.109 112.846 91.723 54.33 58.095 52.865 84.227 97 150.4 28.988 43.462 62.72 92.267 87.52 127.829"/><path stroke="#000" d="M923.497-960.486l2.854 10.203-8.594-6.197 5.74-4.006z"/><text text-anchor="middle" x="638.665" y="-1298.616" font-family="Helvetica,sans-Serif" font-size="14">Yes</text></g><g class="edge"><path fill="none" stroke="#000" d="M777.688-614.058C771.405-468.086 753.487-91.555 735.045-72c-41.228 43.716-208.483 27.718-268 36-29.452 4.099-62.782 8.907-87.614 12.522"/><path stroke="#000" d="M379.747-19.987l-10.4-2.02 9.39-4.907 1.01 6.927z"/><text text-anchor="middle" x="763.817" y="-583.257" font-family="Helvetica,sans-Serif" font-size="14">Yes</text></g><g class="node"><path fill="none" stroke="#000" d="M1238.046-543.1l-107.613 58.3 107.613 58.3 107.613-58.3-107.613-58.3z"/><text text-anchor="middle" x="1238.046" y="-497.4" font-family="Helvetica,sans-Serif" font-size="14">Are you</text><text text-anchor="middle" x="1238.046" y="-480.6" font-family="Helvetica,sans-Serif" font-size="14">using an iOS</text><text text-anchor="middle" x="1238.046" y="-463.8" font-family="Helvetica,sans-Serif" font-size="14">device?</text></g><g class="edge"><path fill="none" stroke="#000" d="M863.475-654.95c67.534 14.995 164.002 40.654 242.571 78.15 28.414 13.56 57.396 33.014 80.937 50.542"/><path stroke="#000" d="M1189.2-528.969l5.873 8.819-10.09-3.232 4.217-5.587z"/><text text-anchor="middle" x="887.154" y="-632.332" font-family="Helvetica,sans-Serif" font-size="14">No</text></g><g class="edge"><path fill="none" stroke="#000" d="M996.242-871.045c32.016 29.145 78.207 70.556 119.804 105.445 103.715 86.99 161.765 77.63 239 188.8 129.27 186.066 166.47 299.333 71 504.8-5.711 12.292-15.752 22.793-26.21 31.178"/><path stroke="#000" d="M1401.926-38.015l-10.104 3.186 5.912-8.792 4.192 5.606z"/><text text-anchor="middle" x="1007.845" y="-839.179" font-family="Helvetica,sans-Serif" font-size="14">Yes</text></g><g class="node"><path fill="none" stroke="#000" d="M943.046-576.8l-154.445 92 154.445 92 154.445-92-154.445-92z"/><text text-anchor="middle" x="943.046" y="-514.2" font-family="Helvetica,sans-Serif" font-size="14">Do you want to avoid</text><text text-anchor="middle" x="943.046" y="-497.4" font-family="Helvetica,sans-Serif" font-size="14">coverting lossless</text><text text-anchor="middle" x="943.046" y="-480.6" font-family="Helvetica,sans-Serif" font-size="14">images to lossy</text><text text-anchor="middle" x="943.046" y="-463.8" font-family="Helvetica,sans-Serif" font-size="14">images (e.g. PNG to</text><text text-anchor="middle" x="943.046" y="-447" font-family="Helvetica,sans-Serif" font-size="14">JPEG)?</text></g><g class="edge"><path fill="none" stroke="#000" d="M954.28-850.485l-8.134 264.776"/><path stroke="#000" d="M949.639-585.415l-3.806 9.888-3.191-10.103 6.997.215z"/><text text-anchor="middle" x="940.772" y="-819.498" font-family="Helvetica,sans-Serif" font-size="14">No</text></g><g class="edge"><path fill="none" stroke="#000" d="M1295.362-457.215c37.64 21.565 83.815 55.436 105.684 100.415 27.674 56.918 35.742 232.57 0 284.8-6.099 8.913-63.3 29.148-102.395 42.16"/><path stroke="#000" d="M1299.737-26.513l-10.593-.186 8.397-6.46 2.196 6.646z"/><text text-anchor="middle" x="1312.268" y="-428.232" font-family="Helvetica,sans-Serif" font-size="14">Yes</text></g><g class="node"><path fill="none" stroke="#000" d="M1238.046-306.4l-154.445 92 154.445 92 154.445-92-154.445-92z"/><text text-anchor="middle" x="1238.046" y="-243.8" font-family="Helvetica,sans-Serif" font-size="14">Do you want to avoid</text><text text-anchor="middle" x="1238.046" y="-227" font-family="Helvetica,sans-Serif" font-size="14">coverting lossless</text><text text-anchor="middle" x="1238.046" y="-210.2" font-family="Helvetica,sans-Serif" font-size="14">images to lossy</text><text text-anchor="middle" x="1238.046" y="-193.4" font-family="Helvetica,sans-Serif" font-size="14">images (e.g. PNG to</text><text text-anchor="middle" x="1238.046" y="-176.6" font-family="Helvetica,sans-Serif" font-size="14">JPEG)?</text></g><g class="edge"><path fill="none" stroke="#000" d="M1238.046-426.46v109.698"/><path stroke="#000" d="M1241.546-316.402l-3.5 10-3.5-10h7z"/><text text-anchor="middle" x="1225.368" y="-395.071" font-family="Helvetica,sans-Serif" font-size="14">No</text></g><g class="edge"><path fill="none" stroke="#000" d="M874.08-433.616c-23.68 21.15-47.988 47.581-63.034 76.816-58.58 113.822 48.902 195.687-43 284.8-48.363 46.895-234.212 27.199-301 36-29.481 3.885-62.809 8.706-87.633 12.38"/><path stroke="#000" d="M379.737-20.13L369.33-22.12l9.376-4.932 1.03 6.924z"/><text text-anchor="middle" x="845.456" y="-420.431" font-family="Helvetica,sans-Serif" font-size="14">Yes</text></g><g class="node"><path fill="none" stroke="#000" d="M943.046-289.8L820.34-214.4 943.046-139l122.706-75.4-122.706-75.4z"/><text text-anchor="middle" x="943.046" y="-235.4" font-family="Helvetica,sans-Serif" font-size="14">Are you sharing</text><text text-anchor="middle" x="943.046" y="-218.6" font-family="Helvetica,sans-Serif" font-size="14">both videos and</text><text text-anchor="middle" x="943.046" y="-201.8" font-family="Helvetica,sans-Serif" font-size="14">&apos;Live Photos&apos;</text><text text-anchor="middle" x="943.046" y="-185" font-family="Helvetica,sans-Serif" font-size="14">the same time?</text></g><g class="edge"><path fill="none" stroke="#000" d="M943.046-392.5v92.54"/><path stroke="#000" d="M946.546-299.703l-3.5 10-3.5-10h7z"/><text text-anchor="middle" x="930.368" y="-361.111" font-family="Helvetica,sans-Serif" font-size="14">No</text></g><g class="edge"><path fill="none" stroke="#000" d="M1185.301-1300.785c22.024 29.835 47.764 64.705 67.972 92.078"/><path stroke="#000" d="M1256.233-1210.59l3.123 10.124-8.755-5.967 5.632-4.157z"/><text text-anchor="middle" x="1191.249" y="-1267.181" font-family="Helvetica,sans-Serif" font-size="14">No</text></g><g class="edge"><path fill="none" stroke="#000" d="M1084.179-1304.658l-78.93 88.123"/><path stroke="#000" d="M1007.79-1214.125l-9.279 5.114 4.065-9.785 5.214 4.67z"/><text text-anchor="middle" x="1056.595" y="-1288.664" font-family="Helvetica,sans-Serif" font-size="14">Yes</text></g><g class="edge"><path fill="none" stroke="#000" d="M1186.05-152.843C1156.8-122.797 1117.647-89.44 1075.047-72c-125.256 51.282-473.343 22.342-608 36-29.584 3-62.906 7.874-87.701 11.794"/><path stroke="#000" d="M379.704-20.72l-10.428-1.873 9.32-5.038 1.108 6.912z"/><text text-anchor="middle" x="1157.876" y="-138.339" font-family="Helvetica,sans-Serif" font-size="14">Yes</text></g><g class="edge"><path fill="none" stroke="#000" d="M1248.538-128.542l10.037 82.136"/><path stroke="#000" d="M1262.072-46.642l-2.261 10.35-4.687-9.501 6.948-.85z"/><text text-anchor="middle" x="1239.251" y="-95.816" font-family="Helvetica,sans-Serif" font-size="14">No</text></g><g class="edge"><path fill="none" stroke="#000" d="M906.661-160.908C882.137-129.43 846.871-91.987 806.046-72c-68.04 33.31-263.828 26.6-339 36-29.506 3.69-62.832 8.522-87.65 12.25"/><path stroke="#000" d="M379.728-20.26l-10.41-1.965 9.364-4.956 1.046 6.921z"/><text text-anchor="middle" x="879.78" y="-143.389" font-family="Helvetica,sans-Serif" font-size="14">Yes</text></g><g class="edge"><path fill="none" stroke="#000" d="M978.882-160.614c23.582 30.966 57.235 67.766 96.164 88.614 88.503 47.396 124.963 14.374 223 36 7.925 1.748 16.325 3.894 24.34 6.087"/><path stroke="#000" d="M1323.59-33.21l8.68 6.074-10.574.664 1.894-6.739z"/><text text-anchor="middle" x="985.619" y="-127.18" font-family="Helvetica,sans-Serif" font-size="14">No</text></g></g></svg>