<svg width="5074pt" height="4044" viewBox="0 0 5074.33 3032.8" xmlns="http://www.w3.org/2000/svg"><g class="graph" transform="translate(4 3028.8)"><path fill="#fff" stroke="transparent" d="M-4 4v-3032.8h5074.333V4H-4z"/><g class="node"><path fill="none" stroke="#000" d="M2475.45-3013.6h-216.138c-6 0-12 6-12 12v12c0 6 6 12 12 12h216.138c6 0 12-6 12-12v-12c0-6-6-12-12-12"/><path fill="none" stroke="#000" d="M2479.45-3017.6h-224.14c-6 0-12 6-12 12v20c0 6 6 12 12 12h224.14c6 0 12-6 12-12v-20c0-6-6-12-12-12"/><text text-anchor="middle" x="2367.381" y="-2991.4" font-family="Helvetica,sans-Serif" font-size="14">I want to share some photos/videos!</text></g><g class="node"><path fill="none" stroke="#000" d="M2367.38-2930.2l-142.092 108.6 142.093 108.6 142.092-108.6-142.092-108.6z"/><text text-anchor="middle" x="2367.381" y="-2859.4" font-family="Helvetica,sans-Serif" font-size="14">Do you want</text><text text-anchor="middle" x="2367.381" y="-2842.6" font-family="Helvetica,sans-Serif" font-size="14">recipients to see</text><text text-anchor="middle" x="2367.381" y="-2825.8" font-family="Helvetica,sans-Serif" font-size="14">any retouching you</text><text text-anchor="middle" x="2367.381" y="-2809" font-family="Helvetica,sans-Serif" font-size="14">do after the</text><text text-anchor="middle" x="2367.381" y="-2792.2" font-family="Helvetica,sans-Serif" font-size="14">photos/videos are</text><text text-anchor="middle" x="2367.381" y="-2775.4" font-family="Helvetica,sans-Serif" font-size="14">shared?</text></g><g class="edge"><path fill="none" stroke="#000" d="M2367.38-2973.563v32.97"/><path stroke="#000" d="M2370.88-2940.451l-3.5 10-3.5-10h7z"/></g><g class="node"><path fill="none" stroke="#000" d="M4471.703-3025.001H2521.058c-6 0-12 6-12 12v34.802c0 6 6 12 12 12h1950.645c6 0 12-6 12-12V-3013c0-6-6-12-12-12"/><text x="2517.219" y="-3008.2" font-family="Helvetica,sans-Serif" font-size="14">Additional Notes:</text><text x="2517.219" y="-2991.4" font-family="Helvetica,sans-Serif" font-size="14">• If you are sharing from macOS Photos and want to share location data be sure to enable &quot;Include location information for published items&quot; in Preferences. (iOS always shares location information.)</text><text text-anchor="middle" x="3496.381" y="-2974.6" font-family="Helvetica,sans-Serif" font-size="14">• If you want to avoid avoid type conversion (e.g. recompression due to HEIF to JPEG conversion) as much as possible in &quot;Transfer to Mac or PC&quot; in Settings &gt; Photos. (There is no option for this in macOS Photos.) Note too that Photos will always send certain items like edited photos and &apos;Portrait&apos; photos as JPEG.</text></g><g class="node"><path fill="none" stroke="#000" stroke-width="4" d="M2322.558-2554.977v-59.646l-43.452-42.177h-61.45l-43.453 42.177v59.646l43.452 42.177h61.451l43.452-42.177z"/><text text-anchor="middle" x="2248.381" y="-2605.8" font-family="Helvetica,sans-Serif" font-size="14">There is no</text><text text-anchor="middle" x="2248.381" y="-2589" font-family="Helvetica,sans-Serif" font-size="14">way to do this</text><text text-anchor="middle" x="2248.381" y="-2572.2" font-family="Helvetica,sans-Serif" font-size="14">from Apple</text><text text-anchor="middle" x="2248.381" y="-2555.4" font-family="Helvetica,sans-Serif" font-size="14">Photos.</text></g><g class="node"><path fill="none" stroke="#000" stroke-width="4" d="M2465.558-2098.177v-59.646L2422.106-2200h-61.45l-43.453 42.177v59.646l43.452 42.177h61.451l43.452-42.177z"/><text text-anchor="middle" x="2391.381" y="-2149" font-family="Helvetica,sans-Serif" font-size="14">There is no</text><text text-anchor="middle" x="2391.381" y="-2132.2" font-family="Helvetica,sans-Serif" font-size="14">way to do this</text><text text-anchor="middle" x="2391.381" y="-2115.4" font-family="Helvetica,sans-Serif" font-size="14">from Apple</text><text text-anchor="middle" x="2391.381" y="-2098.6" font-family="Helvetica,sans-Serif" font-size="14">Photos.</text></g><g class="node"><path fill="none" stroke="#000" stroke-width="4" d="M2464.558-1268.577v-59.646l-43.452-42.177h-61.45l-43.453 42.177v59.646l43.452 42.177h61.451l43.452-42.177z"/><text text-anchor="middle" x="2390.381" y="-1319.4" font-family="Helvetica,sans-Serif" font-size="14">There is no</text><text text-anchor="middle" x="2390.381" y="-1302.6" font-family="Helvetica,sans-Serif" font-size="14">way to do this</text><text text-anchor="middle" x="2390.381" y="-1285.8" font-family="Helvetica,sans-Serif" font-size="14">from Apple</text><text text-anchor="middle" x="2390.381" y="-1269" font-family="Helvetica,sans-Serif" font-size="14">Photos.</text></g><g class="node"><path fill="none" stroke="#000" stroke-width="4" d="M2180.558-1068.577v-59.646l-43.452-42.177h-61.45l-43.453 42.177v59.646l43.452 42.177h61.451l43.452-42.177z"/><text text-anchor="middle" x="2106.381" y="-1119.4" font-family="Helvetica,sans-Serif" font-size="14">There is no</text><text text-anchor="middle" x="2106.381" y="-1102.6" font-family="Helvetica,sans-Serif" font-size="14">way to do this</text><text text-anchor="middle" x="2106.381" y="-1085.8" font-family="Helvetica,sans-Serif" font-size="14">from Apple</text><text text-anchor="middle" x="2106.381" y="-1069" font-family="Helvetica,sans-Serif" font-size="14">Photos.</text></g><g class="node"><path fill="none" stroke="#000" stroke-width="4" d="M3434.558-1068.577v-59.646l-43.452-42.177h-61.45l-43.453 42.177v59.646l43.452 42.177h61.451l43.452-42.177z"/><text text-anchor="middle" x="3360.381" y="-1119.4" font-family="Helvetica,sans-Serif" font-size="14">There is no</text><text text-anchor="middle" x="3360.381" y="-1102.6" font-family="Helvetica,sans-Serif" font-size="14">way to do this</text><text text-anchor="middle" x="3360.381" y="-1085.8" font-family="Helvetica,sans-Serif" font-size="14">from Apple</text><text text-anchor="middle" x="3360.381" y="-1069" font-family="Helvetica,sans-Serif" font-size="14">Photos.</text></g><g class="node"><path fill="none" stroke="#000" stroke-width="4" d="M4382.558-648.577v-59.646l-43.452-42.177h-61.45l-43.453 42.177v59.646l43.452 42.177h61.451l43.452-42.177z"/><text text-anchor="middle" x="4308.381" y="-699.4" font-family="Helvetica,sans-Serif" font-size="14">There is no</text><text text-anchor="middle" x="4308.381" y="-682.6" font-family="Helvetica,sans-Serif" font-size="14">way to do this</text><text text-anchor="middle" x="4308.381" y="-665.8" font-family="Helvetica,sans-Serif" font-size="14">from Apple</text><text text-anchor="middle" x="4308.381" y="-649" font-family="Helvetica,sans-Serif" font-size="14">Photos.</text></g><g class="node"><path fill="none" stroke="#000" stroke-width="4" d="M2282.558-648.577v-59.646l-43.452-42.177h-61.45l-43.453 42.177v59.646l43.452 42.177h61.451l43.452-42.177z"/><text text-anchor="middle" x="2208.381" y="-699.4" font-family="Helvetica,sans-Serif" font-size="14">There is no</text><text text-anchor="middle" x="2208.381" y="-682.6" font-family="Helvetica,sans-Serif" font-size="14">way to do this</text><text text-anchor="middle" x="2208.381" y="-665.8" font-family="Helvetica,sans-Serif" font-size="14">from Apple</text><text text-anchor="middle" x="2208.381" y="-649" font-family="Helvetica,sans-Serif" font-size="14">Photos.</text></g><g class="node"><path fill="none" stroke="#000" stroke-width="4" d="M2513.558-648.577v-59.646l-43.452-42.177h-61.45l-43.453 42.177v59.646l43.452 42.177h61.451l43.452-42.177z"/><text text-anchor="middle" x="2439.381" y="-699.4" font-family="Helvetica,sans-Serif" font-size="14">There is no</text><text text-anchor="middle" x="2439.381" y="-682.6" font-family="Helvetica,sans-Serif" font-size="14">way to do this</text><text text-anchor="middle" x="2439.381" y="-665.8" font-family="Helvetica,sans-Serif" font-size="14">from Apple</text><text text-anchor="middle" x="2439.381" y="-649" font-family="Helvetica,sans-Serif" font-size="14">Photos.</text></g><g class="node"><path fill="none" stroke="#000" stroke-width="4" d="M2721.558-445.377v-59.646l-43.452-42.177h-61.45l-43.453 42.177v59.646l43.452 42.177h61.451l43.452-42.177z"/><text text-anchor="middle" x="2647.381" y="-496.2" font-family="Helvetica,sans-Serif" font-size="14">There is no</text><text text-anchor="middle" x="2647.381" y="-479.4" font-family="Helvetica,sans-Serif" font-size="14">way to do this</text><text text-anchor="middle" x="2647.381" y="-462.6" font-family="Helvetica,sans-Serif" font-size="14">from Apple</text><text text-anchor="middle" x="2647.381" y="-445.8" font-family="Helvetica,sans-Serif" font-size="14">Photos.</text></g><g class="node"><path fill="none" stroke="#000" stroke-width="4" d="M2223.558-42.177v-59.646L2180.106-144h-61.45l-43.453 42.177v59.646L2118.655 0h61.451l43.452-42.177z"/><text text-anchor="middle" x="2149.381" y="-93" font-family="Helvetica,sans-Serif" font-size="14">There is no</text><text text-anchor="middle" x="2149.381" y="-76.2" font-family="Helvetica,sans-Serif" font-size="14">way to do this</text><text text-anchor="middle" x="2149.381" y="-59.4" font-family="Helvetica,sans-Serif" font-size="14">from Apple</text><text text-anchor="middle" x="2149.381" y="-42.6" font-family="Helvetica,sans-Serif" font-size="14">Photos.</text></g><g class="node"><path fill="none" stroke="#000" stroke-width="4" d="M1448.558-445.377v-59.646l-43.452-42.177h-61.45l-43.453 42.177v59.646l43.452 42.177h61.451l43.452-42.177z"/><text text-anchor="middle" x="1374.381" y="-496.2" font-family="Helvetica,sans-Serif" font-size="14">There is no</text><text text-anchor="middle" x="1374.381" y="-479.4" font-family="Helvetica,sans-Serif" font-size="14">way to do this</text><text text-anchor="middle" x="1374.381" y="-462.6" font-family="Helvetica,sans-Serif" font-size="14">from Apple</text><text text-anchor="middle" x="1374.381" y="-445.8" font-family="Helvetica,sans-Serif" font-size="14">Photos.</text></g><g class="node"><path fill="none" stroke="#000" stroke-width="4" d="M985.558-42.177v-59.646L942.106-144h-61.45l-43.453 42.177v59.646L880.655 0h61.451l43.452-42.177z"/><text text-anchor="middle" x="911.381" y="-93" font-family="Helvetica,sans-Serif" font-size="14">There is no</text><text text-anchor="middle" x="911.381" y="-76.2" font-family="Helvetica,sans-Serif" font-size="14">way to do this</text><text text-anchor="middle" x="911.381" y="-59.4" font-family="Helvetica,sans-Serif" font-size="14">from Apple</text><text text-anchor="middle" x="911.381" y="-42.6" font-family="Helvetica,sans-Serif" font-size="14">Photos.</text></g><g class="node"><path fill="none" stroke="#000" stroke-width="4" d="M2044.812-126.3H1015.95c-6 0-12 6-12 12v84.6c0 6 6 12 12 12h1028.862c6 0 12-6 12-12v-84.6c0-6-6-12-12-12"/><text text-anchor="middle" x="1530.381" y="-109.8" font-family="Helvetica,sans-Serif" font-size="14">Use Email</text><text x="1011.915" y="-93" font-family="Helvetica,sans-Serif" font-size="14">Notes:</text><text x="1011.915" y="-76.2" font-family="Helvetica,sans-Serif" font-size="14">• When sharing from iOS, &apos;Slo-mo&apos; videos will lose their type tagging.</text><text x="1011.915" y="-59.4" font-family="Helvetica,sans-Serif" font-size="14">• When sharing from macOS, screenshots will will lose their type tagging, and &apos;Slo-mo&apos; videos will lose their type tagging and most other metadata (including location).</text><text x="1011.915" y="-42.6" font-family="Helvetica,sans-Serif" font-size="14">• When given the option be sure to choose &quot;Actual Size&quot; to preserve the highest possible quality.</text><text text-anchor="middle" x="1530.381" y="-25.8" font-family="Helvetica,sans-Serif" font-size="14">• Enabling Mail Drop is recommended so that your email does not become too large to send.</text></g><g class="node"><path fill="none" stroke="#000" stroke-width="4" d="M3636.887-101.401H2253.874c-6 0-12 6-12 12V-54.6c0 6 6 12 12 12h1383.013c6 0 12-6 12-12V-89.4c0-6-6-12-12-12"/><text text-anchor="middle" x="2945.381" y="-84.6" font-family="Helvetica,sans-Serif" font-size="14">Use iMessage</text><text x="2249.878" y="-67.8" font-family="Helvetica,sans-Serif" font-size="14">Notes:</text><text text-anchor="middle" x="2945.381" y="-51" font-family="Helvetica,sans-Serif" font-size="14">• While you could send multiple photos/videos via iMessage, it&apos;s probably not a great idea to spam your friends and family that way. If you do try this, note that the Photos app on macOS will not allow sending multiple videos.</text></g><g class="node"><path fill="none" stroke="#000" stroke-width="4" d="M806.642-118H12.12c-6 0-12 6-12 12v68c0 6 6 12 12 12h794.523c6 0 12-6 12-12v-68c0-6-6-12-12-12"/><text text-anchor="middle" x="409.381" y="-101.4" font-family="Helvetica,sans-Serif" font-size="14">Use iCloud Photo Sharing</text><text x="8" y="-84.6" font-family="Helvetica,sans-Serif" font-size="14">Notes:</text><text x="8" y="-67.8" font-family="Helvetica,sans-Serif" font-size="14">• If any recipent doesn&apos;t have an Apple device you will need to turn on &quot;Public Website&quot; for the Shared Album.</text><text x="8" y="-51" font-family="Helvetica,sans-Serif" font-size="14">• Shared Albums default to allowing other people add photos/videos to them.</text><text text-anchor="middle" x="409.381" y="-34.2" font-family="Helvetica,sans-Serif" font-size="14">• Screenshots, &apos;Slo-mo&apos; videos, and &apos;Time-lapse&apos; videos will lose their type tagging and most other metadata (including location).</text></g><g class="node"><path fill="none" stroke="#000" stroke-width="4" d="M5054.286-134.6h-1375.81c-6 0-12 6-12 12v101.2c0 6 6 12 12 12h1375.81c6 0 12-6 12-12v-101.2c0-6-6-12-12-12"/><text text-anchor="middle" x="4366.381" y="-118.2" font-family="Helvetica,sans-Serif" font-size="14">Use AirDrop</text><text x="3674.428" y="-101.4" font-family="Helvetica,sans-Serif" font-size="14">Notes:</text><text x="3674.428" y="-84.6" font-family="Helvetica,sans-Serif" font-size="14">• When sharing from iOS, &apos;Slo-mo&apos; videos will lose their type tagging.</text><text x="3674.428" y="-67.8" font-family="Helvetica,sans-Serif" font-size="14">• When sharing from macOS, screenshots will lose their type tagging, and &apos;Slo-mo&apos; videos will lose their type tagging and most other metadata (including location).</text><text x="3674.428" y="-51" font-family="Helvetica,sans-Serif" font-size="14">• When sharing to macOS, be sure to choose &quot;Open in Photos&quot;, otherwise &apos;Live Photos&apos; will not send correctly. You will only see this option reliably if you do not have AirDrop open in the Finder.</text><text x="3674.428" y="-34.2" font-family="Helvetica,sans-Serif" font-size="14">• If you AirDrop to your own Mac you are not given the option above, so &apos;Live Photos&apos; will never send correctly.</text><text text-anchor="middle" x="4366.381" y="-17.4" font-family="Helvetica,sans-Serif" font-size="14">• The Photos app can have to go through a lengthy &quot;Preparing...&quot; phase before sharing your photos/videos. When this happens it can silently fail to initiate AirDrop. You may have to tap to AirDrop again after this completes.</text></g><g class="edge"><path fill="none" stroke="#000" d="M2327.92-2743.078c-13.011 25.893-27.47 54.666-40.455 80.503"/><path stroke="#000" d="M2290.557-2660.932l-7.618 7.363 1.363-10.507 6.255 3.144z"/><text text-anchor="middle" x="2304.384" y="-2720.277" font-family="Helvetica,sans-Serif" font-size="14">Yes</text></g><g class="node"><path fill="none" stroke="#000" d="M2486.38-2676.8l-145.333 92 145.334 92 145.334-92-145.334-92z"/><text text-anchor="middle" x="2486.381" y="-2614.2" font-family="Helvetica,sans-Serif" font-size="14">Do you want the</text><text text-anchor="middle" x="2486.381" y="-2597.4" font-family="Helvetica,sans-Serif" font-size="14">photos/videos to be</text><text text-anchor="middle" x="2486.381" y="-2580.6" font-family="Helvetica,sans-Serif" font-size="14">fully editable (as</text><text text-anchor="middle" x="2486.381" y="-2563.8" font-family="Helvetica,sans-Serif" font-size="14">if the recipients</text><text text-anchor="middle" x="2486.381" y="-2547" font-family="Helvetica,sans-Serif" font-size="14">took them)?</text></g><g class="edge"><path fill="none" stroke="#000" d="M2406.84-2743.078l39.743 79.084"/><path stroke="#000" d="M2449.868-2665.251l1.363 10.507-7.617-7.364 6.254-3.143z"/><text text-anchor="middle" x="2407.721" y="-2708.891" font-family="Helvetica,sans-Serif" font-size="14">No</text></g><g class="node"><path fill="none" stroke="#000" d="M2394.38-2456.6L2238.267-2348l156.115 108.6 156.115-108.6-156.115-108.6z"/><text text-anchor="middle" x="2394.381" y="-2385.8" font-family="Helvetica,sans-Serif" font-size="14">Do you want to share</text><text text-anchor="middle" x="2394.381" y="-2369" font-family="Helvetica,sans-Serif" font-size="14">&apos;Portrait&apos;, &apos;Burst&apos;,</text><text text-anchor="middle" x="2394.381" y="-2352.2" font-family="Helvetica,sans-Serif" font-size="14">or &apos;Slo-mo&apos;</text><text text-anchor="middle" x="2394.381" y="-2335.4" font-family="Helvetica,sans-Serif" font-size="14">photos/videos so that</text><text text-anchor="middle" x="2394.381" y="-2318.6" font-family="Helvetica,sans-Serif" font-size="14">the recipients can</text><text text-anchor="middle" x="2394.381" y="-2301.8" font-family="Helvetica,sans-Serif" font-size="14">edit them?</text></g><g class="edge"><path fill="none" stroke="#000" d="M2457.65-2510.849l-26.22 67.488"/><path stroke="#000" d="M2434.602-2441.86l-6.884 8.053.359-10.589 6.525 2.536z"/><text text-anchor="middle" x="2435.985" y="-2485.897" font-family="Helvetica,sans-Serif" font-size="14">Yes</text></g><g class="node"><path fill="none" stroke="#000" d="M2578.38-2203.4l-94.666 75.4 94.667 75.4 94.667-75.4-94.667-75.4z"/><text text-anchor="middle" x="2578.381" y="-2149" font-family="Helvetica,sans-Serif" font-size="14">Do you have</text><text text-anchor="middle" x="2578.381" y="-2132.2" font-family="Helvetica,sans-Serif" font-size="14">multiple</text><text text-anchor="middle" x="2578.381" y="-2115.4" font-family="Helvetica,sans-Serif" font-size="14">photos to</text><text text-anchor="middle" x="2578.381" y="-2098.6" font-family="Helvetica,sans-Serif" font-size="14">share?</text></g><g class="edge"><path fill="none" stroke="#000" d="M2530.599-2520.655c11.4 19.654 22.278 41.902 28.782 63.855 24.176 81.61 26.66 179.483 24.506 247.114"/><path stroke="#000" d="M2587.378-2209.384l-3.858 9.867-3.137-10.12 6.995.253z"/><text text-anchor="middle" x="2533.037" y="-2486.554" font-family="Helvetica,sans-Serif" font-size="14">No</text></g><g class="edge"><path fill="none" stroke="#000" d="M2392.912-2240.256l-.41 30.036"/><path stroke="#000" d="M2396-2210.076l-3.636 9.951-3.363-10.047 7 .096z"/><text text-anchor="middle" x="2379.863" y="-2209.042" font-family="Helvetica,sans-Serif" font-size="14">Yes</text></g><g class="edge"><path fill="none" stroke="#000" d="M2451.843-2279.296l82.202 98.286"/><path stroke="#000" d="M2536.772-2183.206l3.73 9.917-9.1-5.426 5.37-4.49z"/><text text-anchor="middle" x="2459.561" y="-2246.105" font-family="Helvetica,sans-Serif" font-size="14">No</text></g><g class="node"><path fill="none" stroke="#000" d="M2481.38-1830.4l-151.287 92 151.288 92 151.288-92-151.288-92z"/><text text-anchor="middle" x="2481.381" y="-1767.8" font-family="Helvetica,sans-Serif" font-size="14">Do you want to share</text><text text-anchor="middle" x="2481.381" y="-1751" font-family="Helvetica,sans-Serif" font-size="14">a collection of</text><text text-anchor="middle" x="2481.381" y="-1734.2" font-family="Helvetica,sans-Serif" font-size="14">photos that you (and</text><text text-anchor="middle" x="2481.381" y="-1717.4" font-family="Helvetica,sans-Serif" font-size="14">possibly others) can</text><text text-anchor="middle" x="2481.381" y="-1700.6" font-family="Helvetica,sans-Serif" font-size="14">add to over time?</text></g><g class="edge"><path fill="none" stroke="#000" d="M2552.865-2072.83c-7.416 17.622-14.99 37.393-20.484 56.03-17.628 59.789-30.308 128.684-38.616 182.98"/><path stroke="#000" d="M2497.215-1833.225l-4.951 9.367-1.972-10.41 6.923 1.043z"/><text text-anchor="middle" x="2530.707" y="-2048.406" font-family="Helvetica,sans-Serif" font-size="14">Yes</text></g><g class="node"><path fill="none" stroke="#000" d="M2660.38-2017l-118.868 75.4 118.869 75.4 118.869-75.4-118.87-75.4z"/><text text-anchor="middle" x="2660.381" y="-1962.6" font-family="Helvetica,sans-Serif" font-size="14">Do the</text><text text-anchor="middle" x="2660.381" y="-1945.8" font-family="Helvetica,sans-Serif" font-size="14">recipients have</text><text text-anchor="middle" x="2660.381" y="-1929" font-family="Helvetica,sans-Serif" font-size="14">iMessage (blue</text><text text-anchor="middle" x="2660.381" y="-1912.2" font-family="Helvetica,sans-Serif" font-size="14">bubbles)?</text></g><g class="edge"><path fill="none" stroke="#000" d="M2602.983-2072.074l27.318 62.099"/><path stroke="#000" d="M2633.547-2011.289l.823 10.563-7.23-7.744 6.407-2.819z"/><text text-anchor="middle" x="2602.327" y="-2037.881" font-family="Helvetica,sans-Serif" font-size="14">No</text></g><g class="node"><path fill="none" stroke="#000" d="M2223.38-1576.7l-163.047 58.3 163.048 58.3 163.047-58.3-163.047-58.3z"/><text text-anchor="middle" x="2223.381" y="-1531" font-family="Helvetica,sans-Serif" font-size="14">Do you want to</text><text text-anchor="middle" x="2223.381" y="-1514.2" font-family="Helvetica,sans-Serif" font-size="14">avoid downsampling</text><text text-anchor="middle" x="2223.381" y="-1497.4" font-family="Helvetica,sans-Serif" font-size="14">(reducing resolution)?</text></g><g class="edge"><path fill="none" stroke="#000" d="M2418.267-1684.582l-138.853 118.402"/><path stroke="#000" d="M2281.575-1563.423l-9.88 3.825 5.338-9.151 4.542 5.326z"/><text text-anchor="middle" x="2389.352" y="-1672.388" font-family="Helvetica,sans-Serif" font-size="14">Yes</text></g><g class="node"><path fill="none" stroke="#000" d="M2518.38-1593.8l-114.039 75.4 114.04 75.4 114.039-75.4-114.04-75.4z"/><text text-anchor="middle" x="2518.381" y="-1539.4" font-family="Helvetica,sans-Serif" font-size="14">Are the</text><text text-anchor="middle" x="2518.381" y="-1522.6" font-family="Helvetica,sans-Serif" font-size="14">recipients in a</text><text text-anchor="middle" x="2518.381" y="-1505.8" font-family="Helvetica,sans-Serif" font-size="14">different</text><text text-anchor="middle" x="2518.381" y="-1489" font-family="Helvetica,sans-Serif" font-size="14">location?</text></g><g class="edge"><path fill="none" stroke="#000" d="M2495.422-1654.914l9.821 58.4"/><path stroke="#000" d="M2508.728-1596.899l-1.793 10.442-5.11-9.281 6.903-1.161z"/><text text-anchor="middle" x="2487.428" y="-1621.798" font-family="Helvetica,sans-Serif" font-size="14">No</text></g><g class="node"><path fill="none" stroke="#000" d="M2208.38-990.4l-114.05 92 114.05 92 114.051-92-114.05-92z"/><text text-anchor="middle" x="2208.381" y="-927.8" font-family="Helvetica,sans-Serif" font-size="14">Do you want to</text><text text-anchor="middle" x="2208.381" y="-911" font-family="Helvetica,sans-Serif" font-size="14">avoid type</text><text text-anchor="middle" x="2208.381" y="-894.2" font-family="Helvetica,sans-Serif" font-size="14">conversion as</text><text text-anchor="middle" x="2208.381" y="-877.4" font-family="Helvetica,sans-Serif" font-size="14">much as</text><text text-anchor="middle" x="2208.381" y="-860.6" font-family="Helvetica,sans-Serif" font-size="14">possible?</text></g><g class="edge"><path fill="none" stroke="#000" d="M2208.38-806.375v45.56"/><path stroke="#000" d="M2211.88-760.655l-3.5 10-3.5-10h7z"/><text text-anchor="middle" x="2195.702" y="-774.986" font-family="Helvetica,sans-Serif" font-size="14">Yes</text></g><g class="node"><path fill="none" stroke="#000" d="M1374.38-770.4l-154.445 92 154.446 92 154.445-92-154.445-92z"/><text text-anchor="middle" x="1374.381" y="-707.8" font-family="Helvetica,sans-Serif" font-size="14">Do you want to avoid</text><text text-anchor="middle" x="1374.381" y="-691" font-family="Helvetica,sans-Serif" font-size="14">coverting lossless</text><text text-anchor="middle" x="1374.381" y="-674.2" font-family="Helvetica,sans-Serif" font-size="14">images to lossy</text><text text-anchor="middle" x="1374.381" y="-657.4" font-family="Helvetica,sans-Serif" font-size="14">images (e.g. PNG to</text><text text-anchor="middle" x="1374.381" y="-640.6" font-family="Helvetica,sans-Serif" font-size="14">JPEG)?</text></g><g class="edge"><path fill="none" stroke="#000" d="M2122.27-875.685l-630.992 166.449"/><path stroke="#000" d="M1492.117-705.838l-10.562-.833 8.776-5.935 1.786 6.768z"/><text text-anchor="middle" x="2092.745" y="-876.809" font-family="Helvetica,sans-Serif" font-size="14">No</text></g><g class="node"><path fill="none" stroke="#000" d="M2502.38-990.4l-114.05 92 114.05 92 114.051-92-114.05-92z"/><text text-anchor="middle" x="2502.381" y="-927.8" font-family="Helvetica,sans-Serif" font-size="14">Do you want to</text><text text-anchor="middle" x="2502.381" y="-911" font-family="Helvetica,sans-Serif" font-size="14">avoid type</text><text text-anchor="middle" x="2502.381" y="-894.2" font-family="Helvetica,sans-Serif" font-size="14">conversion as</text><text text-anchor="middle" x="2502.381" y="-877.4" font-family="Helvetica,sans-Serif" font-size="14">much as</text><text text-anchor="middle" x="2502.381" y="-860.6" font-family="Helvetica,sans-Serif" font-size="14">possible?</text></g><g class="edge"><path fill="none" stroke="#000" d="M2480.964-823.611l-18.083 63.145"/><path stroke="#000" d="M2466.216-759.399l-6.117 8.65-.612-10.577 6.73 1.927z"/><text text-anchor="middle" x="2461.29" y="-796.763" font-family="Helvetica,sans-Serif" font-size="14">Yes</text></g><g class="node"><path fill="none" stroke="#000" d="M2647.38-736.7l-115.593 58.3 115.594 58.3 115.594-58.3-115.594-58.3z"/><text text-anchor="middle" x="2647.381" y="-691" font-family="Helvetica,sans-Serif" font-size="14">Are you</text><text text-anchor="middle" x="2647.381" y="-674.2" font-family="Helvetica,sans-Serif" font-size="14">sharing any</text><text text-anchor="middle" x="2647.381" y="-657.4" font-family="Helvetica,sans-Serif" font-size="14">&apos;Live Photos&apos;?</text></g><g class="edge"><path fill="none" stroke="#000" d="M2542.003-838.284l70.83 107.466"/><path stroke="#000" d="M2615.805-732.667l2.581 10.276-8.425-6.424 5.845-3.852z"/><text text-anchor="middle" x="2546.379" y="-804.405" font-family="Helvetica,sans-Serif" font-size="14">No</text></g><g class="node"><path fill="none" stroke="#000" d="M2977.38-1830.4l-114.05 92 114.05 92 114.051-92-114.05-92z"/><text text-anchor="middle" x="2977.381" y="-1767.8" font-family="Helvetica,sans-Serif" font-size="14">Do you want to</text><text text-anchor="middle" x="2977.381" y="-1751" font-family="Helvetica,sans-Serif" font-size="14">avoid type</text><text text-anchor="middle" x="2977.381" y="-1734.2" font-family="Helvetica,sans-Serif" font-size="14">conversion as</text><text text-anchor="middle" x="2977.381" y="-1717.4" font-family="Helvetica,sans-Serif" font-size="14">much as</text><text text-anchor="middle" x="2977.381" y="-1700.6" font-family="Helvetica,sans-Serif" font-size="14">possible?</text></g><g class="node"><path fill="none" stroke="#000" d="M3171.38-1373.8l-114.039 75.4 114.04 75.4 114.039-75.4-114.04-75.4z"/><text text-anchor="middle" x="3171.381" y="-1319.4" font-family="Helvetica,sans-Serif" font-size="14">Are the</text><text text-anchor="middle" x="3171.381" y="-1302.6" font-family="Helvetica,sans-Serif" font-size="14">recipients in a</text><text text-anchor="middle" x="3171.381" y="-1285.8" font-family="Helvetica,sans-Serif" font-size="14">different</text><text text-anchor="middle" x="3171.381" y="-1269" font-family="Helvetica,sans-Serif" font-size="14">location?</text></g><g class="edge"><path fill="none" stroke="#000" d="M3046.408-1702.066c34.214 21.807 72.675 52.871 93.973 91.666 39.038 71.11 43.13 165.16 39.734 231.344"/><path stroke="#000" d="M3183.586-1378.46l-4.076 9.779-2.912-10.187 6.988.408z"/><text text-anchor="middle" x="3062.161" y="-1672.335" font-family="Helvetica,sans-Serif" font-size="14">Yes</text></g><g class="node"><path fill="none" stroke="#000" d="M2977.38-1610.4l-154.445 92 154.446 92 154.445-92-154.445-92z"/><text text-anchor="middle" x="2977.381" y="-1547.8" font-family="Helvetica,sans-Serif" font-size="14">Do you want to avoid</text><text text-anchor="middle" x="2977.381" y="-1531" font-family="Helvetica,sans-Serif" font-size="14">coverting lossless</text><text text-anchor="middle" x="2977.381" y="-1514.2" font-family="Helvetica,sans-Serif" font-size="14">images to lossy</text><text text-anchor="middle" x="2977.381" y="-1497.4" font-family="Helvetica,sans-Serif" font-size="14">images (e.g. PNG to</text><text text-anchor="middle" x="2977.381" y="-1480.6" font-family="Helvetica,sans-Serif" font-size="14">JPEG)?</text></g><g class="edge"><path fill="none" stroke="#000" d="M2977.38-1646.375v25.875"/><path stroke="#000" d="M2980.88-1620.41l-3.5 10-3.5-10h7z"/><text text-anchor="middle" x="2964.702" y="-1614.986" font-family="Helvetica,sans-Serif" font-size="14">No</text></g><g class="node"><path fill="none" stroke="#000" d="M2149.38-1390.4l-148.046 92 148.047 92 148.047-92-148.047-92z"/><text text-anchor="middle" x="2149.381" y="-1327.8" font-family="Helvetica,sans-Serif" font-size="14">Do you want to be</text><text text-anchor="middle" x="2149.381" y="-1311" font-family="Helvetica,sans-Serif" font-size="14">able to reorder the</text><text text-anchor="middle" x="2149.381" y="-1294.2" font-family="Helvetica,sans-Serif" font-size="14">photos/videos in the</text><text text-anchor="middle" x="2149.381" y="-1277.4" font-family="Helvetica,sans-Serif" font-size="14">shared collection</text><text text-anchor="middle" x="2149.381" y="-1260.6" font-family="Helvetica,sans-Serif" font-size="14">after sharing them?</text></g><g class="edge"><path fill="none" stroke="#000" d="M2131.891-1217.052l-7.822 36.382"/><path stroke="#000" d="M2127.444-1179.716l-5.524 9.04-1.32-10.512 6.844 1.472z"/><text text-anchor="middle" x="2113.781" y="-1188.936" font-family="Helvetica,sans-Serif" font-size="14">Yes</text></g><g class="edge"><path fill="none" stroke="#000" d="M2176.14-1222.995c5.17 17.103 9.985 35.321 13.24 52.595 10.523 55.822 15.355 119.076 17.52 170.53"/><path stroke="#000" d="M2210.403-999.872l-3.104 10.13-3.89-9.855 6.994-.275z"/><text text-anchor="middle" x="2171.759" y="-1189.117" font-family="Helvetica,sans-Serif" font-size="14">No</text></g><g class="edge"><path fill="none" stroke="#000" d="M2258.39-1472.28l81.265 107.055"/><path stroke="#000" d="M2342.61-1367.119l3.26 10.081-8.835-5.849 5.576-4.232z"/><text text-anchor="middle" x="2264.73" y="-1438.758" font-family="Helvetica,sans-Serif" font-size="14">Yes</text></g><g class="edge"><path fill="none" stroke="#000" d="M2205.844-1466.263l-27.529 81.842"/><path stroke="#000" d="M2181.566-1383.107l-6.506 8.362-.129-10.594 6.635 2.232z"/><text text-anchor="middle" x="2185.159" y="-1440.335" font-family="Helvetica,sans-Serif" font-size="14">No</text></g><g class="node"><path fill="none" stroke="#000" d="M2518.38-1156.7l-163.047 58.3 163.048 58.3 163.047-58.3-163.047-58.3z"/><text text-anchor="middle" x="2518.381" y="-1111" font-family="Helvetica,sans-Serif" font-size="14">Do you want to</text><text text-anchor="middle" x="2518.381" y="-1094.2" font-family="Helvetica,sans-Serif" font-size="14">avoid downsampling</text><text text-anchor="middle" x="2518.381" y="-1077.4" font-family="Helvetica,sans-Serif" font-size="14">(reducing resolution)?</text></g><g class="edge"><path fill="none" stroke="#000" d="M2460.072-1060.782l-179.716 115.947"/><path stroke="#000" d="M2282.063-941.772l-10.3 2.48 6.505-8.362 3.795 5.882z"/><text text-anchor="middle" x="2430.352" y="-1052.495" font-family="Helvetica,sans-Serif" font-size="14">No</text></g><g class="edge"><path fill="none" stroke="#000" d="M2513.838-1041.623l-3.71 46.377"/><path stroke="#000" d="M2513.582-994.526l-4.286 9.689-2.692-10.247 6.978.558z"/><text text-anchor="middle" x="2499.032" y="-1011.331" font-family="Helvetica,sans-Serif" font-size="14">Yes</text></g><g class="node"><path fill="none" stroke="#000" d="M2797.38-956.7l-163.047 58.3 163.048 58.3 163.047-58.3-163.047-58.3z"/><text text-anchor="middle" x="2797.381" y="-911" font-family="Helvetica,sans-Serif" font-size="14">Do you want to</text><text text-anchor="middle" x="2797.381" y="-894.2" font-family="Helvetica,sans-Serif" font-size="14">avoid downsampling</text><text text-anchor="middle" x="2797.381" y="-877.4" font-family="Helvetica,sans-Serif" font-size="14">(reducing resolution)?</text></g><g class="edge"><path fill="none" stroke="#000" d="M2807.206-843.538l131.11 732.09"/><path stroke="#000" d="M2941.77-112.02l-1.683 10.46-5.208-9.226 6.89-1.234z"/><text text-anchor="middle" x="2799.519" y="-810.339" font-family="Helvetica,sans-Serif" font-size="14">No</text></g><g class="edge"><path fill="none" stroke="#000" d="M2765.386-851.474l-82.5 120.999"/><path stroke="#000" d="M2685.558-728.18l-8.525 6.29 2.741-10.234 5.784 3.944z"/><text text-anchor="middle" x="2739.594" y="-831.952" font-family="Helvetica,sans-Serif" font-size="14">Yes</text></g><g class="edge"><path fill="none" stroke="#000" d="M2719.634-1903.618l185.688 119.028"/><path stroke="#000" d="M2907.266-1787.502l6.53 8.343-10.308-2.45 3.778-5.893z"/><text text-anchor="middle" x="2735.682" y="-1874.071" font-family="Helvetica,sans-Serif" font-size="14">Yes</text></g><g class="edge"><path fill="none" stroke="#000" d="M2664.964-1869.07c4.716 100.512 7.552 287.335-23.583 442.67-19.594 97.757-64.534 204.82-94.322 269.18"/><path stroke="#000" d="M2550.177-1155.624l-7.398 7.584 1.053-10.542 6.345 2.958z"/><text text-anchor="middle" x="2653.4" y="-1837.189" font-family="Helvetica,sans-Serif" font-size="14">No</text></g><g class="node"><path fill="none" stroke="#000" d="M2974.38-1156.7l-84.447 58.3 84.448 58.3 84.448-58.3-84.448-58.3z"/><text text-anchor="middle" x="2974.381" y="-1111" font-family="Helvetica,sans-Serif" font-size="14">Are you</text><text text-anchor="middle" x="2974.381" y="-1094.2" font-family="Helvetica,sans-Serif" font-size="14">sending a</text><text text-anchor="middle" x="2974.381" y="-1077.4" font-family="Helvetica,sans-Serif" font-size="14">video?</text></g><g class="edge"><path fill="none" stroke="#000" d="M2977.453-1042.035c4.121 80.59 10.928 233.407 10.928 363.635v203.2c0 134.194-23.843 292.102-36.02 364"/><path stroke="#000" d="M2955.791-110.494l-5.138 9.265-1.761-10.447 6.9 1.182z"/><text text-anchor="middle" x="2966.143" y="-1010.048" font-family="Helvetica,sans-Serif" font-size="14">No</text></g><g class="edge"><path fill="none" stroke="#000" d="M2942.327-1062.181L2843.5-950.513"/><path stroke="#000" d="M2845.868-947.907l-9.248 5.169 4.006-9.808 5.242 4.639z"/><text text-anchor="middle" x="2914.814" y="-1046.023" font-family="Helvetica,sans-Serif" font-size="14">Yes</text></g><g class="edge"><path fill="none" stroke="#000" d="M2518.38-1442.827v275.647"/><path stroke="#000" d="M2521.88-1166.8l-3.5 10-3.5-10h7z"/><text text-anchor="middle" x="2505.702" y="-1411.438" font-family="Helvetica,sans-Serif" font-size="14">Yes</text></g><g class="node"><path fill="none" stroke="#000" d="M2801.38-1373.8l-113.033 75.4 113.034 75.4 113.033-75.4-113.033-75.4z"/><text text-anchor="middle" x="2801.381" y="-1319.4" font-family="Helvetica,sans-Serif" font-size="14">Do the</text><text text-anchor="middle" x="2801.381" y="-1302.6" font-family="Helvetica,sans-Serif" font-size="14">recipients</text><text text-anchor="middle" x="2801.381" y="-1285.8" font-family="Helvetica,sans-Serif" font-size="14">have an Apple</text><text text-anchor="middle" x="2801.381" y="-1269" font-family="Helvetica,sans-Serif" font-size="14">device?</text></g><g class="edge"><path fill="none" stroke="#000" d="M2570.948-1477.535l170.225 132.33"/><path stroke="#000" d="M2743.348-1347.947l5.747 8.901-10.043-3.374 4.296-5.527z"/><text text-anchor="middle" x="2584.632" y="-1446.638" font-family="Helvetica,sans-Serif" font-size="14">No</text></g><g class="edge"><path fill="none" stroke="#000" d="M3215.454-1251.761l87.409 92.495"/><path stroke="#000" d="M3305.561-1161.506l4.325 9.672-9.412-4.864 5.087-4.808z"/><text text-anchor="middle" x="3224.914" y="-1219.092" font-family="Helvetica,sans-Serif" font-size="14">Yes</text></g><g class="node"><path fill="none" stroke="#000" d="M3172.38-1156.7l-95.229 58.3 95.23 58.3 95.23-58.3-95.23-58.3z"/><text text-anchor="middle" x="3172.381" y="-1111" font-family="Helvetica,sans-Serif" font-size="14">What kind of</text><text text-anchor="middle" x="3172.381" y="-1094.2" font-family="Helvetica,sans-Serif" font-size="14">device are</text><text text-anchor="middle" x="3172.381" y="-1077.4" font-family="Helvetica,sans-Serif" font-size="14">you using?</text></g><g class="edge"><path fill="none" stroke="#000" d="M3171.757-1223.074l.28 56.096"/><path stroke="#000" d="M3175.539-1166.838l-3.45 10.017-3.55-9.982 7-.035z"/><text text-anchor="middle" x="3159.215" y="-1191.621" font-family="Helvetica,sans-Serif" font-size="14">No</text></g><g class="edge"><path fill="none" stroke="#000" d="M2747.179-1258.747c-22.45 16.323-48.803 35.352-72.798 52.347-29.843 21.136-63.14 44.25-91.282 63.653"/><path stroke="#000" d="M2584.76-1139.642l-10.22 2.79 6.25-8.555 3.97 5.765z"/><text text-anchor="middle" x="2717.73" y="-1248.824" font-family="Helvetica,sans-Serif" font-size="14">No</text></g><g class="edge"><path fill="none" stroke="#000" d="M2870.084-1268.825c54.6 24.326 132.32 60.808 197.297 98.425 17.755 10.28 36.439 22.57 53.043 34.062"/><path stroke="#000" d="M3122.708-1139.012l6.194 8.596-10.202-2.858 4.008-5.738z"/><text text-anchor="middle" x="2889.692" y="-1241.921" font-family="Helvetica,sans-Serif" font-size="14">Yes</text></g><g class="edge"><path fill="none" stroke="#000" d="M2647.38-619.899v62.38"/><path stroke="#000" d="M2650.88-557.365l-3.5 10-3.5-10h7z"/><text text-anchor="middle" x="2634.702" y="-588.51" font-family="Helvetica,sans-Serif" font-size="14">Yes</text></g><g class="node"><path fill="none" stroke="#000" d="M1931.38-533.5l-95.229 58.3 95.23 58.3 95.23-58.3-95.23-58.3z"/><text text-anchor="middle" x="1931.381" y="-487.8" font-family="Helvetica,sans-Serif" font-size="14">What kind of</text><text text-anchor="middle" x="1931.381" y="-471" font-family="Helvetica,sans-Serif" font-size="14">device are</text><text text-anchor="middle" x="1931.381" y="-454.2" font-family="Helvetica,sans-Serif" font-size="14">you using?</text></g><g class="edge"><path fill="none" stroke="#000" d="M2606.111-640.641c-23.05 19.091-53.214 40.97-83.73 54.241-163.501 71.108-371.859 96.83-492.47 106.075"/><path stroke="#000" d="M2029.825-476.808l-10.232-2.75 9.713-4.231.519 6.98z"/><text text-anchor="middle" x="2577.023" y="-629.103" font-family="Helvetica,sans-Serif" font-size="14">No</text></g><g class="node"><path fill="none" stroke="#000" d="M817.38-347.4L721.112-272l96.27 75.4 96.27-75.4-96.27-75.4z"/><text text-anchor="middle" x="817.381" y="-293" font-family="Helvetica,sans-Serif" font-size="14">Are you</text><text text-anchor="middle" x="817.381" y="-276.2" font-family="Helvetica,sans-Serif" font-size="14">sharing any</text><text text-anchor="middle" x="817.381" y="-259.4" font-family="Helvetica,sans-Serif" font-size="14">animated</text><text text-anchor="middle" x="817.381" y="-242.6" font-family="Helvetica,sans-Serif" font-size="14">GIFs?</text></g><g class="edge"><path fill="none" stroke="#000" d="M843.315-216.82l30.78 65.489"/><path stroke="#000" d="M877.38-152.568l1.087 10.539-7.421-7.562 6.335-2.977z"/><text text-anchor="middle" x="843.406" y="-182.62" font-family="Helvetica,sans-Serif" font-size="14">Yes</text></g><g class="edge"><path fill="none" stroke="#000" d="M758.054-242.918L512.878-122.734"/><path stroke="#000" d="M514.068-119.42l-10.52 1.26 7.44-7.545 3.08 6.285z"/><text text-anchor="middle" x="728.06" y="-238.135" font-family="Helvetica,sans-Serif" font-size="14">No</text></g><g class="edge"><path fill="none" stroke="#000" d="M3211.376-1063.816c18.641 14.366 42.08 29.509 66.005 37.416 101.771 33.636 870.186-15.843 964 36 138.028 76.277 169 154.297 169 312v203.2c0 131.471.11 165.125-19 295.2-1.694 11.529-3.985 23.646-6.496 35.427"/><path stroke="#000" d="M4388.297-143.791l-5.565 9.016-1.272-10.518 6.837 1.502z"/><text text-anchor="middle" x="3225.443" y="-1033.119" font-family="Helvetica,sans-Serif" font-size="14">iOS</text></g><g class="node"><path fill="none" stroke="#000" d="M4078.38-990.4l-154.445 92 154.446 92 154.445-92-154.445-92z"/><text text-anchor="middle" x="4078.381" y="-927.8" font-family="Helvetica,sans-Serif" font-size="14">Do you want to avoid</text><text text-anchor="middle" x="4078.381" y="-911" font-family="Helvetica,sans-Serif" font-size="14">coverting lossless</text><text text-anchor="middle" x="4078.381" y="-894.2" font-family="Helvetica,sans-Serif" font-size="14">images to lossy</text><text text-anchor="middle" x="4078.381" y="-877.4" font-family="Helvetica,sans-Serif" font-size="14">images (e.g. PNG to</text><text text-anchor="middle" x="4078.381" y="-860.6" font-family="Helvetica,sans-Serif" font-size="14">JPEG)?</text></g><g class="edge"><path fill="none" stroke="#000" d="M3212.849-1064.396c18.568 13.89 41.54 28.819 64.532 37.996 117.148 46.759 462.555 90.754 659.412 112.957"/><path stroke="#000" d="M3937.378-916.899l9.547 4.595-10.329 2.361.782-6.956z"/><text text-anchor="middle" x="3227.238" y="-1033.872" font-family="Helvetica,sans-Serif" font-size="14">Mac</text></g><g class="edge"><path fill="none" stroke="#000" d="M1881.973-446.707c-33.802 20.701-78.645 50.617-113.592 82.707-76.991 70.697-150.614 166.932-195.065 229.262"/><path stroke="#000" d="M1576.149-132.683l-8.642 6.13 2.933-10.18 5.709 4.05z"/><text text-anchor="middle" x="1852.184" y="-438.955" font-family="Helvetica,sans-Serif" font-size="14">iOS</text></g><g class="node"><path fill="none" stroke="#000" d="M1931.38-364l-154.445 92 154.446 92 154.445-92-154.445-92z"/><text text-anchor="middle" x="1931.381" y="-301.4" font-family="Helvetica,sans-Serif" font-size="14">Do you want to avoid</text><text text-anchor="middle" x="1931.381" y="-284.6" font-family="Helvetica,sans-Serif" font-size="14">coverting lossless</text><text text-anchor="middle" x="1931.381" y="-267.8" font-family="Helvetica,sans-Serif" font-size="14">images to lossy</text><text text-anchor="middle" x="1931.381" y="-251" font-family="Helvetica,sans-Serif" font-size="14">images (e.g. PNG to</text><text text-anchor="middle" x="1931.381" y="-234.2" font-family="Helvetica,sans-Serif" font-size="14">JPEG)?</text></g><g class="edge"><path fill="none" stroke="#000" d="M1931.38-416.699v42.46"/><path stroke="#000" d="M1934.88-374.164l-3.5 10-3.5-10h7z"/><text text-anchor="middle" x="1918.702" y="-385.31" font-family="Helvetica,sans-Serif" font-size="14">Mac</text></g><g class="node"><path fill="none" stroke="#000" d="M817.38-533.5l-95.229 58.3 95.23 58.3 95.23-58.3-95.23-58.3z"/><text text-anchor="middle" x="817.381" y="-487.8" font-family="Helvetica,sans-Serif" font-size="14">What kind of</text><text text-anchor="middle" x="817.381" y="-471" font-family="Helvetica,sans-Serif" font-size="14">device are</text><text text-anchor="middle" x="817.381" y="-454.2" font-family="Helvetica,sans-Serif" font-size="14">you using?</text></g><g class="edge"><path fill="none" stroke="#000" d="M780.814-439.064L463.4-125.382"/><path stroke="#000" d="M465.792-122.827l-9.573 4.54 4.653-9.519 4.92 4.98z"/><text text-anchor="middle" x="752.563" y="-424.77" font-family="Helvetica,sans-Serif" font-size="14">Mac</text></g><g class="edge"><path fill="none" stroke="#000" d="M817.38-416.699v59.176"/><path stroke="#000" d="M820.88-357.506l-3.5 10-3.5-10h7z"/><text text-anchor="middle" x="804.702" y="-385.31" font-family="Helvetica,sans-Serif" font-size="14">iOS</text></g><g class="edge"><path fill="none" stroke="#000" d="M4143.193-844.894c26.162 22.344 56.24 48.998 82.188 74.494 9.293 9.13 18.834 19.09 27.986 28.975"/><path stroke="#000" d="M4256.095-743.629l4.184 9.734-9.341-5 5.157-4.734z"/><text text-anchor="middle" x="4155.574" y="-813.368" font-family="Helvetica,sans-Serif" font-size="14">Yes</text></g><g class="node"><path fill="none" stroke="#000" d="M4078.38-736.7l-138.314 58.3 138.315 58.3 138.314-58.3-138.314-58.3z"/><text text-anchor="middle" x="4078.381" y="-691" font-family="Helvetica,sans-Serif" font-size="14">Do the</text><text text-anchor="middle" x="4078.381" y="-674.2" font-family="Helvetica,sans-Serif" font-size="14">recipients</text><text text-anchor="middle" x="4078.381" y="-657.4" font-family="Helvetica,sans-Serif" font-size="14">each have a Mac?</text></g><g class="edge"><path fill="none" stroke="#000" d="M4078.38-806.375v59.333"/><path stroke="#000" d="M4081.88-746.814l-3.5 10-3.5-10h7z"/><text text-anchor="middle" x="4065.702" y="-774.986" font-family="Helvetica,sans-Serif" font-size="14">No</text></g><g class="edge"><path fill="none" stroke="#000" d="M2976.726-1426.748l-1.857 260.033"/><path stroke="#000" d="M2978.368-1166.552l-3.572 9.975-3.428-10.025 7 .05z"/><text text-anchor="middle" x="2963.854" y="-1395.45" font-family="Helvetica,sans-Serif" font-size="14">No</text></g><g class="edge"><path fill="none" stroke="#000" d="M3030.649-1457.993l91.692 103.981"/><path stroke="#000" d="M3125.302-1355.946l3.989 9.815-9.24-5.185 5.25-4.63z"/><text text-anchor="middle" x="3039.122" y="-1425.015" font-family="Helvetica,sans-Serif" font-size="14">Yes</text></g><g class="edge"><path fill="none" stroke="#000" d="M1374.38-586.313v28.685"/><path stroke="#000" d="M1377.88-557.484l-3.5 10-3.5-10h7z"/><text text-anchor="middle" x="1361.702" y="-554.923" font-family="Helvetica,sans-Serif" font-size="14">Yes</text></g><g class="edge"><path fill="none" stroke="#000" d="M1278.312-643.353L886.695-500.487"/><path stroke="#000" d="M887.712-497.132l-10.594.14 8.195-6.716 2.399 6.576z"/><text text-anchor="middle" x="1248.424" y="-641.745" font-family="Helvetica,sans-Serif" font-size="14">No</text></g><g class="edge"><path fill="none" stroke="#000" d="M1992.396-216.023l95.577 87.685"/><path stroke="#000" d="M2090.435-130.828l5.003 9.34-9.735-4.182 4.732-5.158z"/><text text-anchor="middle" x="2003.86" y="-184.1" font-family="Helvetica,sans-Serif" font-size="14">Yes</text></g><g class="edge"><path fill="none" stroke="#000" d="M1847.318-230.073l-198.515 99.01"/><path stroke="#000" d="M1650.005-127.752l-10.51 1.331 7.386-7.595 3.124 6.264z"/><text text-anchor="middle" x="1817.328" y="-225.084" font-family="Helvetica,sans-Serif" font-size="14">No</text></g><g class="edge"><path fill="none" stroke="#000" d="M4076.746-620.657c-.093 57.176 3.902 146.647 25.635 220.657 31.143 106.06 43.712 136.376 116 220 11.934 13.807 25.954 26.85 40.523 38.777"/><path stroke="#000" d="M4261.421-143.692l5.625 8.979-9.996-3.512 4.371-5.467z"/><text text-anchor="middle" x="4064.231" y="-589.192" font-family="Helvetica,sans-Serif" font-size="14">No</text></g><g class="node"><path fill="none" stroke="#000" d="M4234.38-550.6l-122.705 75.4 122.706 75.4 122.706-75.4-122.706-75.4z"/><text text-anchor="middle" x="4234.381" y="-496.2" font-family="Helvetica,sans-Serif" font-size="14">Are you sharing</text><text text-anchor="middle" x="4234.381" y="-479.4" font-family="Helvetica,sans-Serif" font-size="14">both videos and</text><text text-anchor="middle" x="4234.381" y="-462.6" font-family="Helvetica,sans-Serif" font-size="14">&apos;Live Photos&apos;</text><text text-anchor="middle" x="4234.381" y="-445.8" font-family="Helvetica,sans-Serif" font-size="14">the same time?</text></g><g class="edge"><path fill="none" stroke="#000" d="M4112.23-634.309l76.477 99.616"/><path stroke="#000" d="M4191.495-536.808l3.314 10.063-8.866-5.8 5.552-4.263z"/><text text-anchor="middle" x="4118.731" y="-600.821" font-family="Helvetica,sans-Serif" font-size="14">Yes</text></g><g class="edge"><path fill="none" stroke="#000" d="M4225.063-405.487c-5.181 62.136-4.985 154.035 28.318 225.487 6.3 13.519 15.104 26.21 25.046 37.808"/><path stroke="#000" d="M4281.044-144.516l4.065 9.784-9.279-5.113 5.214-4.67z"/><text text-anchor="middle" x="4210.515" y="-375.051" font-family="Helvetica,sans-Serif" font-size="14">No</text></g><g class="node"><path fill="none" stroke="#000" d="M4370.62-318h-96.478c-6 0-12 6-12 12v68c0 6 6 12 12 12h96.477c6 0 12-6 12-12v-68c0-6-6-12-12-12"/><text text-anchor="middle" x="4322.381" y="-301.4" font-family="Helvetica,sans-Serif" font-size="14">Be sure the</text><text text-anchor="middle" x="4322.381" y="-284.6" font-family="Helvetica,sans-Serif" font-size="14">recipients close</text><text text-anchor="middle" x="4322.381" y="-267.8" font-family="Helvetica,sans-Serif" font-size="14">any AirDrop</text><text text-anchor="middle" x="4322.381" y="-251" font-family="Helvetica,sans-Serif" font-size="14">windows they</text><text text-anchor="middle" x="4322.381" y="-234.2" font-family="Helvetica,sans-Serif" font-size="14">have open.</text></g><g class="edge"><path fill="none" stroke="#000" d="M4260.189-415.606l38.184 88.17"/><path stroke="#000" d="M4301.686-328.592l.763 10.567-7.186-7.785 6.423-2.782z"/><text text-anchor="middle" x="4259.36" y="-381.418" font-family="Helvetica,sans-Serif" font-size="14">Yes</text></g><g class="edge"><path fill="none" stroke="#000" d="M4332.53-225.865l17.84 81.085"/><path stroke="#000" d="M4353.801-145.468l-1.27 10.518-5.566-9.014 6.836-1.504z"/></g></g></svg>