<svg width="1741pt" height="2968pt" viewBox="0 0 1740.92 2968" xmlns="http://www.w3.org/2000/svg"><g class="graph" transform="translate(4 2964)"><path fill="#fff" stroke="transparent" d="M-4 4v-2968h1740.924V4H-4z"/><g class="node"><path fill="none" stroke="#000" d="M675.993-2956H459.855c-6 0-12 6-12 12v12c0 6 6 12 12 12h216.138c6 0 12-6 12-12v-12c0-6-6-12-12-12"/><path fill="none" stroke="#000" d="M679.994-2960h-224.14c-6 0-12 6-12 12v20c0 6 6 12 12 12h224.14c6 0 12-6 12-12v-20c0-6-6-12-12-12"/><text text-anchor="middle" x="567.924" y="-2933.8" font-family="Helvetica,sans-Serif" font-size="14">I want to share some photos/videos!</text></g><g class="node"><path fill="none" stroke="#000" d="M567.924-2879.8l-142.092 108.6 142.092 108.6 142.093-108.6-142.093-108.6z"/><text text-anchor="middle" x="567.924" y="-2809" font-family="Helvetica,sans-Serif" font-size="14">Do you want</text><text text-anchor="middle" x="567.924" y="-2792.2" font-family="Helvetica,sans-Serif" font-size="14">recipients to see</text><text text-anchor="middle" x="567.924" y="-2775.4" font-family="Helvetica,sans-Serif" font-size="14">any retouching you</text><text text-anchor="middle" x="567.924" y="-2758.6" font-family="Helvetica,sans-Serif" font-size="14">do after the</text><text text-anchor="middle" x="567.924" y="-2741.8" font-family="Helvetica,sans-Serif" font-size="14">photos/videos are</text><text text-anchor="middle" x="567.924" y="-2725" font-family="Helvetica,sans-Serif" font-size="14">shared?</text></g><g class="edge"><path fill="none" stroke="#000" d="M567.924-2915.85v25.706"/><path stroke="#000" d="M571.424-2889.94l-3.5 10-3.5-10h7z"/></g><g class="node"><path fill="none" stroke="#000" stroke-width="4" d="M504.924-2519.488v-29.824l-21.088-21.088h-29.824l-21.088 21.088v29.824l21.089 21.088h29.823l21.088-21.088z"/><text text-anchor="middle" x="468.924" y="-2530.2" font-family="Helvetica,sans-Serif" font-size="14">SOL</text></g><g class="node"><path fill="none" stroke="#000" stroke-width="4" d="M611.924-2062.688v-29.824l-21.088-21.088h-29.823l-21.089 21.088v29.824l21.089 21.088h29.823l21.088-21.088z"/><text text-anchor="middle" x="575.924" y="-2073.4" font-family="Helvetica,sans-Serif" font-size="14">SOL</text></g><g class="node"><path fill="none" stroke="#000" stroke-width="4" d="M192.924-1318.688v-29.824l-21.088-21.088h-29.824l-21.088 21.088v29.824l21.088 21.088h29.824l21.088-21.088z"/><text text-anchor="middle" x="156.924" y="-1329.4" font-family="Helvetica,sans-Serif" font-size="14">SOL</text></g><g class="node"><path fill="none" stroke="#000" stroke-width="4" d="M330.924-1115.488v-29.824l-21.088-21.088h-29.824l-21.088 21.088v29.824l21.089 21.088h29.823l21.088-21.088z"/><text text-anchor="middle" x="294.924" y="-1126.2" font-family="Helvetica,sans-Serif" font-size="14">SOL</text></g><g class="node"><path fill="none" stroke="#000" stroke-width="4" d="M1615.924-861.888v-29.824l-21.088-21.088h-29.823l-21.089 21.088v29.824l21.089 21.088h29.823l21.088-21.088z"/><text text-anchor="middle" x="1579.924" y="-872.6" font-family="Helvetica,sans-Serif" font-size="14">SOL</text></g><g class="node"><path fill="none" stroke="#000" stroke-width="4" d="M1732.924-388.288v-29.824l-21.088-21.088h-29.823l-21.089 21.088v29.824l21.089 21.088h29.823l21.088-21.088z"/><text text-anchor="middle" x="1696.924" y="-399" font-family="Helvetica,sans-Serif" font-size="14">SOL</text></g><g class="node"><path fill="none" stroke="#000" stroke-width="4" d="M1555.924-185.088v-29.824L1534.836-236h-29.823l-21.089 21.088v29.824L1505.013-164h29.823l21.088-21.088z"/><text text-anchor="middle" x="1519.924" y="-195.8" font-family="Helvetica,sans-Serif" font-size="14">SOL</text></g><g class="node"><path fill="none" stroke="#000" stroke-width="4" d="M226.924-591.488v-29.824L205.836-642.4h-29.824l-21.088 21.088v29.824l21.088 21.088h29.824l21.088-21.088z"/><text text-anchor="middle" x="190.924" y="-602.2" font-family="Helvetica,sans-Serif" font-size="14">SOL</text></g><g class="node"><path fill="none" stroke="#000" stroke-width="4" d="M722.924-591.488v-29.824L701.836-642.4h-29.823l-21.089 21.088v29.824l21.089 21.088h29.823l21.088-21.088z"/><text text-anchor="middle" x="686.924" y="-602.2" font-family="Helvetica,sans-Serif" font-size="14">SOL</text></g><g class="node"><path fill="none" stroke="#000" stroke-width="4" d="M798.924-388.288v-29.824L777.836-439.2h-29.823l-21.089 21.088v29.824l21.089 21.088h29.823l21.088-21.088z"/><text text-anchor="middle" x="762.924" y="-399" font-family="Helvetica,sans-Serif" font-size="14">SOL</text></g><g class="node"><path fill="none" stroke="#000" stroke-width="4" d="M966.924-21.088v-29.824L945.836-72h-29.823l-21.089 21.088v29.824L916.013 0h29.823l21.088-21.088z"/><text text-anchor="middle" x="930.924" y="-31.8" font-family="Helvetica,sans-Serif" font-size="14">SOL</text></g><g class="node"><path fill="none" stroke="#000" stroke-width="4" d="M1417.484-54h-35.12c-6 0-12 6-12 12v12c0 6 6 12 12 12h35.12c6 0 12-6 12-12v-12c0-6-6-12-12-12"/><text text-anchor="middle" x="1399.924" y="-31.8" font-family="Helvetica,sans-Serif" font-size="14">airdrop</text></g><g class="node"><path fill="none" stroke="#000" stroke-width="4" d="M814.924-54h-30c-6 0-12 6-12 12v12c0 6 6 12 12 12h30c6 0 12-6 12-12v-12c0-6-6-12-12-12"/><text text-anchor="middle" x="799.924" y="-31.8" font-family="Helvetica,sans-Serif" font-size="14">email</text></g><g class="node"><path fill="none" stroke="#000" stroke-width="4" d="M1259.822-54h-51.795c-6 0-12 6-12 12v12c0 6 6 12 12 12h51.795c6 0 12-6 12-12v-12c0-6-6-12-12-12"/><text text-anchor="middle" x="1233.924" y="-31.8" font-family="Helvetica,sans-Serif" font-size="14">imessage</text></g><g class="node"><path fill="none" stroke="#000" stroke-width="4" d="M269.924-54h-30c-6 0-12 6-12 12v12c0 6 6 12 12 12h30c6 0 12-6 12-12v-12c0-6-6-12-12-12"/><text text-anchor="middle" x="254.924" y="-31.8" font-family="Helvetica,sans-Serif" font-size="14">icps</text></g><g class="edge"><path fill="none" stroke="#000" d="M533.438-2688.711l-45.482 108.788"/><path stroke="#000" d="M491.032-2578.205l-7.087 7.876.628-10.576 6.459 2.7z"/><text text-anchor="middle" x="511.253" y="-2664.316" font-family="Helvetica,sans-Serif" font-size="14">Yes</text></g><g class="node"><path fill="none" stroke="#000" d="M667.924-2626.4l-145.334 92 145.334 92 145.334-92-145.334-92z"/><text text-anchor="middle" x="667.924" y="-2563.8" font-family="Helvetica,sans-Serif" font-size="14">Do you want the</text><text text-anchor="middle" x="667.924" y="-2547" font-family="Helvetica,sans-Serif" font-size="14">photos/videos to be</text><text text-anchor="middle" x="667.924" y="-2530.2" font-family="Helvetica,sans-Serif" font-size="14">fully editable (as</text><text text-anchor="middle" x="667.924" y="-2513.4" font-family="Helvetica,sans-Serif" font-size="14">if the recipients</text><text text-anchor="middle" x="667.924" y="-2496.6" font-family="Helvetica,sans-Serif" font-size="14">took them)?</text></g><g class="edge"><path fill="none" stroke="#000" d="M602.619-2689.043l30.618 72.503"/><path stroke="#000" d="M636.466-2617.89l.666 10.574-7.114-7.85 6.448-2.724z"/><text text-anchor="middle" x="601.516" y="-2654.864" font-family="Helvetica,sans-Serif" font-size="14">No</text></g><g class="node"><path fill="none" stroke="#000" d="M575.924-2406.2L419.81-2297.6 575.924-2189l156.115-108.6-156.115-108.6z"/><text text-anchor="middle" x="575.924" y="-2335.4" font-family="Helvetica,sans-Serif" font-size="14">Do you want to share</text><text text-anchor="middle" x="575.924" y="-2318.6" font-family="Helvetica,sans-Serif" font-size="14">&apos;Portrait&apos;, &apos;Burst&apos;,</text><text text-anchor="middle" x="575.924" y="-2301.8" font-family="Helvetica,sans-Serif" font-size="14">or &apos;Slo-mo&apos;</text><text text-anchor="middle" x="575.924" y="-2285" font-family="Helvetica,sans-Serif" font-size="14">photos/videos so that</text><text text-anchor="middle" x="575.924" y="-2268.2" font-family="Helvetica,sans-Serif" font-size="14">the recipients can</text><text text-anchor="middle" x="575.924" y="-2251.4" font-family="Helvetica,sans-Serif" font-size="14">edit them?</text></g><g class="edge"><path fill="none" stroke="#000" d="M639.193-2460.449l-26.22 67.488"/><path stroke="#000" d="M616.145-2391.46l-6.884 8.053.36-10.588 6.524 2.535z"/><text text-anchor="middle" x="617.529" y="-2435.497" font-family="Helvetica,sans-Serif" font-size="14">Yes</text></g><g class="node"><path fill="none" stroke="#000" d="M741.924-2153l-94.667 75.4 94.667 75.4 94.667-75.4-94.667-75.4z"/><text text-anchor="middle" x="741.924" y="-2098.6" font-family="Helvetica,sans-Serif" font-size="14">Do you have</text><text text-anchor="middle" x="741.924" y="-2081.8" font-family="Helvetica,sans-Serif" font-size="14">multiple</text><text text-anchor="middle" x="741.924" y="-2065" font-family="Helvetica,sans-Serif" font-size="14">photos to</text><text text-anchor="middle" x="741.924" y="-2048.2" font-family="Helvetica,sans-Serif" font-size="14">share?</text></g><g class="edge"><path fill="none" stroke="#000" d="M712.907-2470.47c11.419 19.648 22.116 41.947 28.017 64.07 22.285 83.546 18.549 183.338 11.782 250.902"/><path stroke="#000" d="M756.166-2154.935l-4.523 9.58-2.439-10.31 6.962.73z"/><text text-anchor="middle" x="715.342" y="-2436.369" font-family="Helvetica,sans-Serif" font-size="14">No</text></g><g class="edge"><path fill="none" stroke="#000" d="M575.924-2188.889v64.79"/><path stroke="#000" d="M579.424-2123.94l-3.5 10-3.5-10h7z"/><text text-anchor="middle" x="563.246" y="-2157.5" font-family="Helvetica,sans-Serif" font-size="14">Yes</text></g><g class="edge"><path fill="none" stroke="#000" d="M629.82-2226.172l70.357 93.245"/><path stroke="#000" d="M703.113-2134.847l3.23 10.09-8.818-5.874 5.588-4.216z"/><text text-anchor="middle" x="636.076" y="-2192.632" font-family="Helvetica,sans-Serif" font-size="14">No</text></g><g class="node"><path fill="none" stroke="#000" d="M597.924-1966.4l-151.288 92 151.288 92 151.288-92-151.288-92z"/><text text-anchor="middle" x="597.924" y="-1903.8" font-family="Helvetica,sans-Serif" font-size="14">Do you want to share</text><text text-anchor="middle" x="597.924" y="-1887" font-family="Helvetica,sans-Serif" font-size="14">a collection of</text><text text-anchor="middle" x="597.924" y="-1870.2" font-family="Helvetica,sans-Serif" font-size="14">photos that you (and</text><text text-anchor="middle" x="597.924" y="-1853.4" font-family="Helvetica,sans-Serif" font-size="14">possibly others) can</text><text text-anchor="middle" x="597.924" y="-1836.6" font-family="Helvetica,sans-Serif" font-size="14">add to over time?</text></g><g class="edge"><path fill="none" stroke="#000" d="M707.616-2029.187l-58.023 81.877"/><path stroke="#000" d="M652.321-1945.107l-8.637 6.135 2.926-10.183 5.711 4.048z"/><text text-anchor="middle" x="681.551" y="-2010.134" font-family="Helvetica,sans-Serif" font-size="14">Yes</text></g><g class="node"><path fill="none" stroke="#000" d="M885.924-1949.8l-118.869 75.4 118.87 75.4 118.868-75.4-118.869-75.4z"/><text text-anchor="middle" x="885.924" y="-1895.4" font-family="Helvetica,sans-Serif" font-size="14">Do the</text><text text-anchor="middle" x="885.924" y="-1878.6" font-family="Helvetica,sans-Serif" font-size="14">recipients have</text><text text-anchor="middle" x="885.924" y="-1861.8" font-family="Helvetica,sans-Serif" font-size="14">iMessage (blue</text><text text-anchor="middle" x="885.924" y="-1845" font-family="Helvetica,sans-Serif" font-size="14">bubbles)?</text></g><g class="edge"><path fill="none" stroke="#000" d="M776.233-2029.187l66.72 94.15"/><path stroke="#000" d="M845.925-1936.897l2.926 10.183-8.637-6.135 5.71-4.048z"/><text text-anchor="middle" x="781.609" y="-1995.472" font-family="Helvetica,sans-Serif" font-size="14">No</text></g><g class="node"><path fill="none" stroke="#000" d="M358.924-1662.3L195.877-1604l163.047 58.3 163.048-58.3-163.048-58.3z"/><text text-anchor="middle" x="358.924" y="-1616.6" font-family="Helvetica,sans-Serif" font-size="14">Do you want to</text><text text-anchor="middle" x="358.924" y="-1599.8" font-family="Helvetica,sans-Serif" font-size="14">avoid downsampling</text><text text-anchor="middle" x="358.924" y="-1583" font-family="Helvetica,sans-Serif" font-size="14">(reducing resolution)?</text></g><g class="edge"><path fill="none" stroke="#000" d="M544.882-1814.39l-139.676 158.028"/><path stroke="#000" d="M407.694-1653.892l-9.245 5.175 4-9.811 5.245 4.636z"/><text text-anchor="middle" x="517.376" y="-1798.214" font-family="Helvetica,sans-Serif" font-size="14">Yes</text></g><g class="node"><path fill="none" stroke="#000" d="M812.924-1679.4L698.885-1604l114.04 75.4 114.038-75.4-114.039-75.4z"/><text text-anchor="middle" x="812.924" y="-1625" font-family="Helvetica,sans-Serif" font-size="14">Are the</text><text text-anchor="middle" x="812.924" y="-1608.2" font-family="Helvetica,sans-Serif" font-size="14">recipients in a</text><text text-anchor="middle" x="812.924" y="-1591.4" font-family="Helvetica,sans-Serif" font-size="14">different</text><text text-anchor="middle" x="812.924" y="-1574.6" font-family="Helvetica,sans-Serif" font-size="14">location?</text></g><g class="edge"><path fill="none" stroke="#000" d="M647.25-1812.365l119.846 150.728"/><path stroke="#000" d="M770.026-1663.575l3.484 10.005-8.963-5.649 5.48-4.356z"/><text text-anchor="middle" x="654.247" y="-1778.992" font-family="Helvetica,sans-Serif" font-size="14">No</text></g><g class="node"><path fill="none" stroke="#000" d="M222.924-1019.1L.076-876.8l222.848 142.3 222.849-142.3-222.849-142.3z"/><text text-anchor="middle" x="222.924" y="-931.4" font-family="Helvetica,sans-Serif" font-size="14">Do you want to avoid type</text><text text-anchor="middle" x="222.924" y="-914.6" font-family="Helvetica,sans-Serif" font-size="14">conversion (e.g. recompression</text><text text-anchor="middle" x="222.924" y="-897.8" font-family="Helvetica,sans-Serif" font-size="14">due to HEIF to JPEG</text><text text-anchor="middle" x="222.924" y="-881" font-family="Helvetica,sans-Serif" font-size="14">conversion) as much as</text><text text-anchor="middle" x="222.924" y="-864.2" font-family="Helvetica,sans-Serif" font-size="14">possible? (Photos will always</text><text text-anchor="middle" x="222.924" y="-847.4" font-family="Helvetica,sans-Serif" font-size="14">send certain items like</text><text text-anchor="middle" x="222.924" y="-830.6" font-family="Helvetica,sans-Serif" font-size="14">editted photos and &apos;Portrait&apos;</text><text text-anchor="middle" x="222.924" y="-813.8" font-family="Helvetica,sans-Serif" font-size="14">photos as JPEG.)</text></g><g class="edge"><path fill="none" stroke="#000" d="M207.252-744.372l-10.844 91.63"/><path stroke="#000" d="M199.863-652.154l-4.65 9.52-2.301-10.343 6.951.823z"/><text text-anchor="middle" x="191.466" y="-714.662" font-family="Helvetica,sans-Serif" font-size="14">Yes</text></g><g class="edge"><path fill="none" stroke="#000" d="M233.448-740.958a3146.867 3146.867 0 0 1 2.476 42.558c12.454 245.389 17.352 542.36 18.634 634.063"/><path stroke="#000" d="M258.06-64.235l-3.364 10.047-3.636-9.951 7-.096z"/><text text-anchor="middle" x="222.53" y="-708.816" font-family="Helvetica,sans-Serif" font-size="14">No</text></g><g class="node"><path fill="none" stroke="#000" d="M686.924-1019.1L464.076-876.8l222.848 142.3 222.849-142.3-222.849-142.3z"/><text text-anchor="middle" x="686.924" y="-931.4" font-family="Helvetica,sans-Serif" font-size="14">Do you want to avoid type</text><text text-anchor="middle" x="686.924" y="-914.6" font-family="Helvetica,sans-Serif" font-size="14">conversion (e.g. recompression</text><text text-anchor="middle" x="686.924" y="-897.8" font-family="Helvetica,sans-Serif" font-size="14">due to HEIF to JPEG</text><text text-anchor="middle" x="686.924" y="-881" font-family="Helvetica,sans-Serif" font-size="14">conversion) as much as</text><text text-anchor="middle" x="686.924" y="-864.2" font-family="Helvetica,sans-Serif" font-size="14">possible? (Photos will always</text><text text-anchor="middle" x="686.924" y="-847.4" font-family="Helvetica,sans-Serif" font-size="14">send certain items like</text><text text-anchor="middle" x="686.924" y="-830.6" font-family="Helvetica,sans-Serif" font-size="14">editted photos and &apos;Portrait&apos;</text><text text-anchor="middle" x="686.924" y="-813.8" font-family="Helvetica,sans-Serif" font-size="14">photos as JPEG.)</text></g><g class="edge"><path fill="none" stroke="#000" d="M686.924-734.473v81.919"/><path stroke="#000" d="M690.424-652.435l-3.5 10-3.5-10h7z"/><text text-anchor="middle" x="674.246" y="-703.084" font-family="Helvetica,sans-Serif" font-size="14">Yes</text></g><g class="node"><path fill="none" stroke="#000" d="M911.924-664.7L796.33-606.4l115.594 58.3 115.594-58.3-115.594-58.3z"/><text text-anchor="middle" x="911.924" y="-619" font-family="Helvetica,sans-Serif" font-size="14">Are you</text><text text-anchor="middle" x="911.924" y="-602.2" font-family="Helvetica,sans-Serif" font-size="14">sharing any</text><text text-anchor="middle" x="911.924" y="-585.4" font-family="Helvetica,sans-Serif" font-size="14">&apos;Live Photos&apos;?</text></g><g class="edge"><path fill="none" stroke="#000" d="M764.356-783.744l106.591 128.1"/><path stroke="#000" d="M873.78-657.713l3.706 9.925-9.087-5.448 5.38-4.477z"/><text text-anchor="middle" x="772.001" y="-750.534" font-family="Helvetica,sans-Serif" font-size="14">No</text></g><g class="node"><path fill="none" stroke="#000" d="M1180.924-1746.3L958.076-1604l222.848 142.3 222.849-142.3-222.849-142.3z"/><text text-anchor="middle" x="1180.924" y="-1658.6" font-family="Helvetica,sans-Serif" font-size="14">Do you want to avoid type</text><text text-anchor="middle" x="1180.924" y="-1641.8" font-family="Helvetica,sans-Serif" font-size="14">conversion (e.g. recompression</text><text text-anchor="middle" x="1180.924" y="-1625" font-family="Helvetica,sans-Serif" font-size="14">due to HEIF to JPEG</text><text text-anchor="middle" x="1180.924" y="-1608.2" font-family="Helvetica,sans-Serif" font-size="14">conversion) as much as</text><text text-anchor="middle" x="1180.924" y="-1591.4" font-family="Helvetica,sans-Serif" font-size="14">possible? (Photos will always</text><text text-anchor="middle" x="1180.924" y="-1574.6" font-family="Helvetica,sans-Serif" font-size="14">send certain items like</text><text text-anchor="middle" x="1180.924" y="-1557.8" font-family="Helvetica,sans-Serif" font-size="14">editted photos and &apos;Portrait&apos;</text><text text-anchor="middle" x="1180.924" y="-1541" font-family="Helvetica,sans-Serif" font-size="14">photos as JPEG.)</text></g><g class="node"><path fill="none" stroke="#000" d="M1417.924-1205.8l-114.039 75.4 114.04 75.4 114.038-75.4-114.039-75.4z"/><text text-anchor="middle" x="1417.924" y="-1151.4" font-family="Helvetica,sans-Serif" font-size="14">Are the</text><text text-anchor="middle" x="1417.924" y="-1134.6" font-family="Helvetica,sans-Serif" font-size="14">recipients in a</text><text text-anchor="middle" x="1417.924" y="-1117.8" font-family="Helvetica,sans-Serif" font-size="14">different</text><text text-anchor="middle" x="1417.924" y="-1101" font-family="Helvetica,sans-Serif" font-size="14">location?</text></g><g class="edge"><path fill="none" stroke="#000" d="M1272.987-1520.477c26.198 27.918 52.572 60.69 70.937 94.877 36.24 67.458 55.164 153.15 64.763 214.81"/><path stroke="#000" d="M1412.175-1211.134l-1.97 10.41-4.952-9.366 6.922-1.044z"/><text text-anchor="middle" x="1282.102" y="-1487.695" font-family="Helvetica,sans-Serif" font-size="14">Yes</text></g><g class="node"><path fill="none" stroke="#000" d="M1180.924-1425.6l-154.445 92 154.445 92 154.445-92-154.445-92z"/><text text-anchor="middle" x="1180.924" y="-1363" font-family="Helvetica,sans-Serif" font-size="14">Do you want to avoid</text><text text-anchor="middle" x="1180.924" y="-1346.2" font-family="Helvetica,sans-Serif" font-size="14">coverting lossless</text><text text-anchor="middle" x="1180.924" y="-1329.4" font-family="Helvetica,sans-Serif" font-size="14">images to lossy</text><text text-anchor="middle" x="1180.924" y="-1312.6" font-family="Helvetica,sans-Serif" font-size="14">images (e.g. PNG to</text><text text-anchor="middle" x="1180.924" y="-1295.8" font-family="Helvetica,sans-Serif" font-size="14">JPEG)?</text></g><g class="edge"><path fill="none" stroke="#000" d="M1180.924-1461.673v25.789"/><path stroke="#000" d="M1184.424-1435.664l-3.5 10-3.5-10h7z"/><text text-anchor="middle" x="1168.246" y="-1430.284" font-family="Helvetica,sans-Serif" font-size="14">No</text></g><g class="node"><path fill="none" stroke="#000" d="M358.924-1425.6l-148.047 92 148.047 92 148.047-92-148.047-92z"/><text text-anchor="middle" x="358.924" y="-1363" font-family="Helvetica,sans-Serif" font-size="14">Do you want to be</text><text text-anchor="middle" x="358.924" y="-1346.2" font-family="Helvetica,sans-Serif" font-size="14">able to reorder the</text><text text-anchor="middle" x="358.924" y="-1329.4" font-family="Helvetica,sans-Serif" font-size="14">photos/videos in the</text><text text-anchor="middle" x="358.924" y="-1312.6" font-family="Helvetica,sans-Serif" font-size="14">shared collection</text><text text-anchor="middle" x="358.924" y="-1295.8" font-family="Helvetica,sans-Serif" font-size="14">after sharing them?</text></g><g class="edge"><path fill="none" stroke="#000" d="M334.637-1256.49l-25.24 80.141"/><path stroke="#000" d="M312.666-1175.079l-6.343 8.487-.334-10.59 6.677 2.103z"/><text text-anchor="middle" x="314.376" y="-1230.165" font-family="Helvetica,sans-Serif" font-size="14">Yes</text></g><g class="edge"><path fill="none" stroke="#000" d="M364.2-1244.85c.582 55.818-3.744 128.576-24.276 189.65-8.672 25.796-22.004 51.481-36.607 74.993"/><path stroke="#000" d="M306.198-978.215l-8.312 6.568 2.402-10.318 5.91 3.75z"/><text text-anchor="middle" x="351.546" y="-1213.448" font-family="Helvetica,sans-Serif" font-size="14">No</text></g><g class="edge"><path fill="none" stroke="#000" d="M315.39-1561.247c-33.673 34.558-80.038 85.537-113.466 135.647-9.642 14.454-18.48 31.278-25.722 46.557"/><path stroke="#000" d="M179.283-1377.368l-7.378 7.604 1.026-10.545 6.352 2.941z"/><text text-anchor="middle" x="287.389" y="-1546.278" font-family="Helvetica,sans-Serif" font-size="14">Yes</text></g><g class="edge"><path fill="none" stroke="#000" d="M358.924-1545.66v109.699"/><path stroke="#000" d="M362.424-1435.602l-3.5 10-3.5-10h7z"/><text text-anchor="middle" x="346.246" y="-1514.271" font-family="Helvetica,sans-Serif" font-size="14">No</text></g><g class="node"><path fill="none" stroke="#000" d="M686.924-1188.7l-163.047 58.3 163.047 58.3 163.048-58.3-163.048-58.3z"/><text text-anchor="middle" x="686.924" y="-1143" font-family="Helvetica,sans-Serif" font-size="14">Do you want to</text><text text-anchor="middle" x="686.924" y="-1126.2" font-family="Helvetica,sans-Serif" font-size="14">avoid downsampling</text><text text-anchor="middle" x="686.924" y="-1109.4" font-family="Helvetica,sans-Serif" font-size="14">(reducing resolution)?</text></g><g class="edge"><path fill="none" stroke="#000" d="M614.367-1097.973c-46.236 21.237-107.078 50.252-159.443 78.773-36.921 20.11-76.198 43.439-111.735 65.322"/><path stroke="#000" d="M344.586-950.627l-10.347 2.278 6.668-8.233 3.679 5.955z"/><text text-anchor="middle" x="584.368" y="-1093.886" font-family="Helvetica,sans-Serif" font-size="14">No</text></g><g class="edge"><path fill="none" stroke="#000" d="M686.924-1071.9v42.278"/><path stroke="#000" d="M690.424-1029.25l-3.5 10-3.5-10h7z"/><text text-anchor="middle" x="674.246" y="-1040.511" font-family="Helvetica,sans-Serif" font-size="14">Yes</text></g><g class="node"><path fill="none" stroke="#000" d="M1090.924-935.1l-163.047 58.3 163.047 58.3 163.048-58.3-163.048-58.3z"/><text text-anchor="middle" x="1090.924" y="-889.4" font-family="Helvetica,sans-Serif" font-size="14">Do you want to</text><text text-anchor="middle" x="1090.924" y="-872.6" font-family="Helvetica,sans-Serif" font-size="14">avoid downsampling</text><text text-anchor="middle" x="1090.924" y="-855.8" font-family="Helvetica,sans-Serif" font-size="14">(reducing resolution)?</text></g><g class="edge"><path fill="none" stroke="#000" d="M1100.307-821.633l128.849 757.596"/><path stroke="#000" d="M1232.616-64.567l-1.774 10.445-5.127-9.271 6.9-1.174z"/><text text-anchor="middle" x="1092.367" y="-788.503" font-family="Helvetica,sans-Serif" font-size="14">No</text></g><g class="edge"><path fill="none" stroke="#000" d="M1059.54-829.39L946.615-658.805"/><path stroke="#000" d="M949.339-656.578l-8.439 6.406 2.602-10.27 5.837 3.864z"/><text text-anchor="middle" x="1033.96" y="-809.517" font-family="Helvetica,sans-Serif" font-size="14">Yes</text></g><g class="edge"><path fill="none" stroke="#000" d="M934.638-1829.749L1081.645-1695"/><path stroke="#000" d="M1084.195-1697.411l5.006 9.337-9.736-4.177 4.73-5.16z"/><text text-anchor="middle" x="946.114" y="-1797.831" font-family="Helvetica,sans-Serif" font-size="14">Yes</text></g><g class="edge"><path fill="none" stroke="#000" d="M831.92-1833.094c-22.418 16.485-48.993 35.19-73.996 50.694-29.062 18.02-50.29 6.747-68 36-106.559 176.013-54.647 435.385-22.272 553.41"/><path stroke="#000" d="M671.113-1193.61l-.684 10.573-6.058-8.692 6.742-1.88z"/><text text-anchor="middle" x="802.49" y="-1823.075" font-family="Helvetica,sans-Serif" font-size="14">No</text></g><g class="node"><path fill="none" stroke="#000" d="M1163.924-1188.7l-84.448 58.3 84.448 58.3 84.448-58.3-84.448-58.3z"/><text text-anchor="middle" x="1163.924" y="-1143" font-family="Helvetica,sans-Serif" font-size="14">Are you</text><text text-anchor="middle" x="1163.924" y="-1126.2" font-family="Helvetica,sans-Serif" font-size="14">sending a</text><text text-anchor="middle" x="1163.924" y="-1109.4" font-family="Helvetica,sans-Serif" font-size="14">video?</text></g><g class="edge"><path fill="none" stroke="#000" d="M1203.054-1098.72c21.866 20.21 47.197 48.4 59.87 79.52 69.266 170.099 19 229.14 19 412.8v203.2c0 127.367-28.744 277.503-41.745 338.896"/><path stroke="#000" d="M1243.537-63.273l-5.52 9.044-1.324-10.512 6.844 1.468z"/><text text-anchor="middle" x="1214.074" y="-1066.617" font-family="Helvetica,sans-Serif" font-size="14">No</text></g><g class="edge"><path fill="none" stroke="#000" d="M1149.85-1081.503l-40.843 141.885"/><path stroke="#000" d="M1112.346-938.566l-6.13 8.642-.597-10.578 6.727 1.936z"/><text text-anchor="middle" x="1130.144" y="-1054.682" font-family="Helvetica,sans-Serif" font-size="14">Yes</text></g><g class="edge"><path fill="none" stroke="#000" d="M781.361-1549.12c-18.405 34.415-40.479 80.306-53.437 123.52-22.793 76.016-32.992 166.91-37.505 227.566"/><path stroke="#000" d="M693.893-1197.545l-4.202 9.726-2.78-10.223 6.982.497z"/><text text-anchor="middle" x="757.463" y="-1526.784" font-family="Helvetica,sans-Serif" font-size="14">Yes</text></g><g class="node"><path fill="none" stroke="#000" d="M849.924-1409l-113.033 75.4 113.033 75.4 113.034-75.4-113.034-75.4z"/><text text-anchor="middle" x="849.924" y="-1354.6" font-family="Helvetica,sans-Serif" font-size="14">Do the</text><text text-anchor="middle" x="849.924" y="-1337.8" font-family="Helvetica,sans-Serif" font-size="14">recipients</text><text text-anchor="middle" x="849.924" y="-1321" font-family="Helvetica,sans-Serif" font-size="14">have an Apple</text><text text-anchor="middle" x="849.924" y="-1304.2" font-family="Helvetica,sans-Serif" font-size="14">device?</text></g><g class="edge"><path fill="none" stroke="#000" d="M822.405-1534.716l16.672 121.846"/><path stroke="#000" d="M842.58-1413.086l-2.112 10.383-4.823-9.434 6.935-.949z"/><text text-anchor="middle" x="813.529" y="-1501.859" font-family="Helvetica,sans-Serif" font-size="14">No</text></g><g class="edge"><path fill="none" stroke="#000" d="M1471.252-1089.953c22.35 19.304 46.967 44.016 63.672 70.753 18.434 29.504 29.906 67.2 36.65 96.395"/><path stroke="#000" d="M1575.032-923.38l-1.265 10.52-5.57-9.012 6.835-1.507z"/><text text-anchor="middle" x="1483.29" y="-1058.274" font-family="Helvetica,sans-Serif" font-size="14">Yes</text></g><g class="node"><path fill="none" stroke="#000" d="M1417.924-935.1l-107.613 58.3 107.613 58.3 107.613-58.3-107.613-58.3z"/><text text-anchor="middle" x="1417.924" y="-889.4" font-family="Helvetica,sans-Serif" font-size="14">Are you</text><text text-anchor="middle" x="1417.924" y="-872.6" font-family="Helvetica,sans-Serif" font-size="14">using an iOS</text><text text-anchor="middle" x="1417.924" y="-855.8" font-family="Helvetica,sans-Serif" font-size="14">device?</text></g><g class="edge"><path fill="none" stroke="#000" d="M1417.924-1054.998v109.333"/><path stroke="#000" d="M1421.424-945.406l-3.5 10-3.5-10h7z"/><text text-anchor="middle" x="1405.246" y="-1023.609" font-family="Helvetica,sans-Serif" font-size="14">No</text></g><g class="edge"><path fill="none" stroke="#000" d="M810.466-1284.41l-80.428 100.263"/><path stroke="#000" d="M732.495-1181.616l-8.987 5.61 3.527-9.99 5.46 4.38z"/><text text-anchor="middle" x="783.564" y="-1266.935" font-family="Helvetica,sans-Serif" font-size="14">No</text></g><g class="edge"><path fill="none" stroke="#000" d="M906.696-1295.954c31.519 19.18 72.156 41.177 111.228 54.354 101.788 34.327 159.414-36.147 239 36 51.08 46.306 9.538 87.604 38 150.4 21.567 47.583 55.929 96.038 82.859 130.417"/><path stroke="#000" d="M1380.644-926.807l3.461 10.013-8.95-5.669 5.49-4.344z"/><text text-anchor="middle" x="923.495" y="-1266.899" font-family="Helvetica,sans-Serif" font-size="14">Yes</text></g><g class="edge"><path fill="none" stroke="#000" d="M876.416-565.776c-20.863 24.602-47.227 57-68.492 87.376-7.436 10.621-14.908 22.505-21.567 33.632"/><path stroke="#000" d="M789.304-442.875l-8.098 6.831 2.07-10.39 6.028 3.559z"/><text text-anchor="middle" x="849.195" y="-548.964" font-family="Helvetica,sans-Serif" font-size="14">Yes</text></g><g class="node"><path fill="none" stroke="#000" d="M924.924-461.5l-107.613 58.3 107.613 58.3 107.613-58.3-107.613-58.3z"/><text text-anchor="middle" x="924.924" y="-415.8" font-family="Helvetica,sans-Serif" font-size="14">Are you</text><text text-anchor="middle" x="924.924" y="-399" font-family="Helvetica,sans-Serif" font-size="14">using an iOS</text><text text-anchor="middle" x="924.924" y="-382.2" font-family="Helvetica,sans-Serif" font-size="14">device?</text></g><g class="edge"><path fill="none" stroke="#000" d="M915.545-549.798l5.11 79.86"/><path stroke="#000" d="M924.154-470.054l-2.854 10.203-4.131-9.756 6.985-.447z"/><text text-anchor="middle" x="904.629" y="-517.654" font-family="Helvetica,sans-Serif" font-size="14">No</text></g><g class="edge"><path fill="none" stroke="#000" d="M1406.748-824.4c-6.965 35.395-15.257 83.278-18.824 126-20.439 244.792 1.577 542.162 9.436 634.014"/><path stroke="#000" d="M1400.864-64.486l-2.62 10.266-4.353-9.66 6.973-.606z"/><text text-anchor="middle" x="1389.136" y="-795.913" font-family="Helvetica,sans-Serif" font-size="14">Yes</text></g><g class="node"><path fill="none" stroke="#000" d="M1550.924-698.4l-154.445 92 154.445 92 154.445-92-154.445-92z"/><text text-anchor="middle" x="1550.924" y="-635.8" font-family="Helvetica,sans-Serif" font-size="14">Do you want to avoid</text><text text-anchor="middle" x="1550.924" y="-619" font-family="Helvetica,sans-Serif" font-size="14">coverting lossless</text><text text-anchor="middle" x="1550.924" y="-602.2" font-family="Helvetica,sans-Serif" font-size="14">images to lossy</text><text text-anchor="middle" x="1550.924" y="-585.4" font-family="Helvetica,sans-Serif" font-size="14">images (e.g. PNG to</text><text text-anchor="middle" x="1550.924" y="-568.6" font-family="Helvetica,sans-Serif" font-size="14">JPEG)?</text></g><g class="edge"><path fill="none" stroke="#000" d="M1440.637-830.624l70.745 143.831"/><path stroke="#000" d="M1514.651-688.076l1.273 10.518-7.554-7.428 6.281-3.09z"/><text text-anchor="middle" x="1441.26" y="-796.43" font-family="Helvetica,sans-Serif" font-size="14">No</text></g><g class="edge"><path fill="none" stroke="#000" d="M875.347-371.397c-43.715 28.567-101.4 67.752-107.423 79.397-37.565 72.64-16.976 104.004 0 184 3.29 15.505 10.159 31.725 16.691 44.837"/><path stroke="#000" d="M787.756-64.709l1.5 10.488-7.713-7.263 6.213-3.225z"/><text text-anchor="middle" x="845.662" y="-362.861" font-family="Helvetica,sans-Serif" font-size="14">Yes</text></g><g class="node"><path fill="none" stroke="#000" d="M930.924-292L776.48-200l154.445 92 154.445-92-154.445-92z"/><text text-anchor="middle" x="930.924" y="-229.4" font-family="Helvetica,sans-Serif" font-size="14">Do you want to avoid</text><text text-anchor="middle" x="930.924" y="-212.6" font-family="Helvetica,sans-Serif" font-size="14">coverting lossless</text><text text-anchor="middle" x="930.924" y="-195.8" font-family="Helvetica,sans-Serif" font-size="14">images to lossy</text><text text-anchor="middle" x="930.924" y="-179" font-family="Helvetica,sans-Serif" font-size="14">images (e.g. PNG to</text><text text-anchor="middle" x="930.924" y="-162.2" font-family="Helvetica,sans-Serif" font-size="14">JPEG)?</text></g><g class="edge"><path fill="none" stroke="#000" d="M926.62-345.786c.414 14.056.87 29.513 1.327 44.947"/><path stroke="#000" d="M931.449-300.815l-3.203 10.1-3.794-9.893 6.997-.207z"/><text text-anchor="middle" x="914.749" y="-314.034" font-family="Helvetica,sans-Serif" font-size="14">No</text></g><g class="edge"><path fill="none" stroke="#000" d="M1602.149-544.793c16.478 20.673 34.43 44.137 49.775 66.393 7.36 10.674 14.806 22.575 21.466 33.703"/><path stroke="#000" d="M1676.47-446.366l2.076 10.39-8.102-6.827 6.026-3.563z"/><text text-anchor="middle" x="1609.115" y="-511.413" font-family="Helvetica,sans-Serif" font-size="14">Yes</text></g><g class="node"><path fill="none" stroke="#000" d="M1519.924-478.6l-122.706 75.4 122.706 75.4 122.706-75.4-122.706-75.4z"/><text text-anchor="middle" x="1519.924" y="-424.2" font-family="Helvetica,sans-Serif" font-size="14">Are you sharing</text><text text-anchor="middle" x="1519.924" y="-407.4" font-family="Helvetica,sans-Serif" font-size="14">both videos and</text><text text-anchor="middle" x="1519.924" y="-390.6" font-family="Helvetica,sans-Serif" font-size="14">&apos;Live Photos&apos;</text><text text-anchor="middle" x="1519.924" y="-373.8" font-family="Helvetica,sans-Serif" font-size="14">the same time?</text></g><g class="edge"><path fill="none" stroke="#000" d="M1538.047-521.99l-6.027 39.507"/><path stroke="#000" d="M1535.421-481.574l-4.968 9.358-1.952-10.413 6.92 1.055z"/><text text-anchor="middle" x="1521.413" y="-492.824" font-family="Helvetica,sans-Serif" font-size="14">No</text></g><g class="edge"><path fill="none" stroke="#000" d="M1173.591-1245.95l-4.175 49.904"/><path stroke="#000" d="M1172.881-1195.48l-4.321 9.673-2.654-10.257 6.975.584z"/><text text-anchor="middle" x="1158.69" y="-1215.713" font-family="Helvetica,sans-Serif" font-size="14">No</text></g><g class="edge"><path fill="none" stroke="#000" d="M1244.436-1279.146l115.928 99.395"/><path stroke="#000" d="M1362.826-1182.25l5.314 9.166-9.87-3.852 4.556-5.315z"/><text text-anchor="middle" x="1256.825" y="-1247.624" font-family="Helvetica,sans-Serif" font-size="14">Yes</text></g><g class="edge"><path fill="none" stroke="#000" d="M930.924-107.933v25.88"/><path stroke="#000" d="M934.424-82.046l-3.5 10-3.5-10h7z"/><text text-anchor="middle" x="918.246" y="-76.544" font-family="Helvetica,sans-Serif" font-size="14">Yes</text></g><g class="edge"><path fill="none" stroke="#000" d="M881.025-137.53l-60.414 75.632"/><path stroke="#000" d="M823.313-59.672l-8.976 5.629 3.506-9.998 5.47 4.369z"/><text text-anchor="middle" x="854.15" y="-120" font-family="Helvetica,sans-Serif" font-size="14">No</text></g><g class="edge"><path fill="none" stroke="#000" d="M1519.924-327.825v81.527"/><path stroke="#000" d="M1523.424-246.018l-3.5 10-3.5-10h7z"/><text text-anchor="middle" x="1507.246" y="-296.435" font-family="Helvetica,sans-Serif" font-size="14">Yes</text></g><g class="edge"><path fill="none" stroke="#000" d="M1494.415-343.307c-6.678 16.5-13.64 34.489-19.49 51.307-28.434 81.739-55.32 180.55-67.767 227.958"/><path stroke="#000" d="M1410.5-62.988l-5.913 8.79-.86-10.56 6.773 1.77z"/><text text-anchor="middle" x="1472.496" y="-318.623" font-family="Helvetica,sans-Serif" font-size="14">No</text></g></g></svg>