<svg width="256pt" height="52pt" viewBox="0 0 256.07 52" xmlns="http://www.w3.org/2000/svg"><g class="graph" transform="translate(4 48)"><path fill="#fff" stroke="transparent" d="M-4 4v-52h256.07V4H-4z"/><g class="node"><path fill="none" stroke="#000" d="M232.104-40H15.966c-6 0-12 6-12 12v12c0 6 6 12 12 12h216.138c6 0 12-6 12-12v-12c0-6-6-12-12-12"/><path fill="none" stroke="#000" d="M236.105-44H11.965c-6 0-12 6-12 12v20c0 6 6 12 12 12h224.14c6 0 12-6 12-12v-20c0-6-6-12-12-12"/><text text-anchor="middle" x="124.035" y="-17.8" font-family="Helvetica,sans-Serif" font-size="14">I want to share some photos/videos!</text></g></g></svg>